{"glyphs":{"0":{"ha":772,"x_min":0,"x_max":0,"o":"m 226 490 b 229 390 226 463 227 429 b 247 276 231 350 237 312 b 293 182 256 239 272 208 b 385 143 314 156 345 143 b 478 182 425 143 457 156 b 526 276 500 208 516 239 b 543 390 535 312 541 350 b 546 490 545 429 546 463 b 545 551 546 507 546 527 b 540 624 545 574 543 599 b 526 698 536 649 532 673 b 499 764 520 722 511 744 b 453 811 487 783 471 799 b 385 829 434 823 412 829 b 317 811 358 829 335 823 b 273 764 299 799 284 783 b 246 698 261 744 252 722 b 232 624 239 673 235 649 b 227 551 229 599 228 574 b 226 490 227 527 226 507 z m 29 490 b 58 728 29 585 39 664 b 135 883 77 793 102 844 b 248 967 167 922 205 950 b 385 992 291 983 337 992 b 523 967 434 992 480 983 b 637 883 566 950 604 922 b 715 728 670 844 696 793 b 743 490 734 664 743 585 b 715 247 743 393 734 312 b 637 90 696 181 670 129 b 523 7 604 51 566 24 b 385 -18 480 -10 434 -18 b 248 7 337 -18 291 -10 b 135 90 205 24 167 51 b 58 247 102 129 77 181 b 29 490 39 312 29 393 z "},"1":{"ha":772,"x_min":0,"x_max":0,"o":"m 544 0 l 347 0 l 347 631 l 103 631 l 103 779 b 202 787 137 778 170 781 b 288 819 234 793 263 803 b 353 879 314 834 335 854 b 388 972 370 904 382 935 l 544 972 z "},"2":{"ha":772,"x_min":0,"x_max":0,"o":"m 51 599 b 71 753 50 654 56 706 b 138 878 86 801 108 843 b 249 962 167 914 204 942 b 404 992 294 982 346 992 b 531 971 449 992 491 985 b 638 911 572 957 607 937 b 710 815 668 885 692 853 b 738 688 728 777 738 735 b 714 561 738 638 730 596 b 651 467 698 526 677 495 b 563 393 625 440 596 415 b 464 327 530 371 497 349 b 367 257 431 305 398 282 b 283 169 335 232 307 203 l 743 169 l 743 0 l 29 0 b 53 147 29 56 37 106 b 119 259 70 189 92 226 b 217 350 147 292 180 322 b 336 435 255 378 294 406 b 404 480 357 450 380 465 b 470 531 428 495 450 512 b 520 593 490 549 507 570 b 540 672 534 616 540 643 b 499 783 540 719 527 756 b 394 822 472 809 437 822 b 322 802 366 822 341 816 b 274 749 302 789 286 771 b 248 677 262 728 253 703 b 240 599 243 651 240 625 z "},"3":{"ha":772,"x_min":0,"x_max":0,"o":"m 317 579 b 385 579 338 577 361 577 b 452 595 409 581 431 586 b 503 633 473 604 490 617 b 524 700 517 650 524 672 b 482 796 524 742 510 774 b 386 829 454 818 422 829 b 273 780 336 829 298 813 b 236 656 247 747 235 706 l 49 656 b 76 792 50 706 59 751 b 144 899 92 834 115 869 b 249 967 173 928 208 951 b 385 992 289 984 335 992 b 501 974 424 992 463 986 b 606 922 540 963 575 945 b 682 838 637 899 663 871 b 711 722 701 804 711 766 b 677 597 711 675 700 633 b 575 524 654 561 620 537 l 575 521 b 701 443 629 509 671 483 b 747 300 732 403 747 356 b 717 164 747 249 737 204 b 638 64 697 124 671 91 b 522 3 604 37 566 17 b 386 -18 479 -11 433 -18 b 237 6 331 -18 282 -10 b 122 74 192 21 154 44 b 49 185 91 104 66 141 b 25 335 32 228 24 278 l 213 335 b 225 260 213 309 218 284 b 257 199 232 237 243 216 b 309 158 271 182 288 169 b 383 143 330 148 355 143 b 496 184 428 143 465 157 b 542 296 526 211 542 249 b 520 381 542 333 534 361 b 465 423 506 400 488 414 b 392 438 443 432 419 437 b 317 440 366 440 341 440 z "},"4":{"ha":772,"x_min":0,"x_max":0,"o":"m 433 725 l 429 725 l 178 388 l 433 388 z m 433 225 l 22 225 l 22 406 l 444 972 l 621 972 l 621 388 l 750 388 l 750 225 l 621 225 l 621 0 l 433 0 z "},"5":{"ha":772,"x_min":0,"x_max":0,"o":"m 694 810 l 293 810 l 254 589 l 257 586 b 343 644 284 613 312 632 b 447 661 374 655 408 661 b 575 635 495 661 538 652 b 669 564 612 617 643 594 b 727 459 694 534 714 499 b 747 331 741 419 747 376 b 718 191 747 281 738 234 b 640 79 699 148 672 111 b 525 6 607 48 569 23 b 386 -18 481 -11 435 -19 b 251 1 339 -18 294 -12 b 136 58 208 13 169 32 b 56 155 103 84 76 116 b 25 289 36 193 26 238 l 222 289 b 272 183 227 244 244 209 b 382 143 301 156 338 143 b 452 159 408 143 431 148 b 505 201 473 170 491 184 b 538 260 519 218 530 238 b 550 331 546 283 550 306 b 539 401 550 356 546 379 b 506 460 531 424 520 443 b 453 499 491 476 473 489 b 382 513 432 508 409 512 b 296 494 347 513 318 506 b 233 435 274 481 253 462 l 56 435 l 151 972 l 694 972 z "},"6":{"ha":772,"x_min":0,"x_max":0,"o":"m 397 504 b 328 490 371 504 348 499 b 279 450 309 480 292 467 b 250 392 266 433 256 414 b 240 324 244 371 240 348 b 251 258 240 301 244 279 b 281 199 258 236 268 216 b 331 158 295 182 311 169 b 397 143 350 148 372 143 b 460 158 421 143 442 148 b 507 199 478 169 494 182 b 536 256 520 215 530 234 b 546 321 543 277 546 299 b 537 388 546 344 543 366 b 510 447 531 410 522 429 b 463 488 498 464 482 478 b 397 504 444 499 422 504 z m 539 722 b 494 807 532 755 518 783 b 408 843 471 831 443 843 b 320 812 373 843 344 833 b 264 735 297 791 278 766 b 233 639 250 705 240 673 b 222 547 227 605 223 574 l 225 544 b 319 628 252 583 283 611 b 444 653 356 644 397 653 b 567 626 486 653 527 644 b 668 553 606 608 640 583 b 725 451 694 523 713 489 b 743 336 737 413 743 375 b 719 197 743 286 735 240 b 649 84 703 153 679 116 b 542 9 619 52 583 27 b 403 -18 500 -9 454 -18 b 221 26 330 -18 269 -3 b 106 140 173 55 134 93 b 46 301 77 188 57 241 b 29 483 35 360 29 421 b 50 664 29 544 36 604 b 117 827 64 724 86 778 b 235 946 147 876 187 915 b 411 992 283 976 342 992 b 528 974 453 992 492 986 b 624 922 564 962 596 944 b 692 838 651 899 674 871 b 726 722 709 804 721 766 z "},"7":{"ha":772,"x_min":0,"x_max":0,"o":"m 718 803 b 583 639 667 758 622 704 b 484 432 543 574 510 505 b 423 210 458 359 437 285 b 400 0 409 135 401 65 l 189 0 b 291 419 200 145 234 285 b 515 789 348 554 423 677 l 54 789 l 54 972 l 718 972 z "},"8":{"ha":772,"x_min":0,"x_max":0,"o":"m 239 708 b 283 613 239 667 254 635 b 388 581 313 591 348 581 b 492 613 429 581 464 591 b 533 708 519 635 533 667 b 528 751 533 721 531 735 b 506 794 524 766 517 781 b 462 829 496 808 481 820 b 388 843 443 838 418 843 b 331 834 368 843 349 840 b 283 808 313 828 297 819 b 251 767 269 797 259 783 b 239 708 243 750 239 731 z m 60 726 b 89 842 60 770 69 808 b 165 925 108 875 134 903 b 269 975 196 947 231 964 b 388 992 308 986 348 992 b 540 964 448 992 499 982 b 641 897 582 945 616 923 b 696 812 666 870 685 842 b 713 731 707 782 713 755 b 677 604 713 682 701 640 b 571 526 653 568 618 542 l 571 524 b 706 441 629 511 674 483 b 753 286 737 399 753 347 b 722 151 753 234 742 189 b 639 57 701 113 673 82 b 522 1 605 32 566 13 b 389 -18 479 -12 434 -18 b 252 -1 342 -18 296 -12 b 134 54 208 11 169 29 b 51 149 99 79 72 111 b 19 285 30 187 19 232 b 67 440 19 347 35 399 b 203 524 99 482 144 510 l 203 526 b 96 600 156 539 120 564 b 60 726 72 636 60 678 z m 217 294 b 231 226 217 269 221 247 b 267 174 240 206 252 189 b 322 141 283 160 301 149 b 389 129 344 133 366 129 b 455 141 413 129 435 133 b 508 174 475 149 492 160 b 543 226 523 189 535 206 b 556 293 551 247 556 269 b 542 356 556 316 551 337 b 506 406 534 375 522 392 b 453 438 491 419 473 430 b 389 449 434 445 412 449 b 267 409 341 449 300 435 b 217 294 233 383 217 344 z "},"9":{"ha":772,"x_min":0,"x_max":0,"o":"m 375 468 b 444 483 402 468 425 473 b 493 522 464 492 480 506 b 522 580 506 539 516 558 b 532 649 529 602 532 625 b 522 715 532 671 528 693 b 491 773 515 736 504 756 b 442 814 478 790 461 804 b 375 829 422 824 400 829 b 313 814 352 829 331 824 b 265 774 294 804 278 790 b 236 717 252 757 243 738 b 226 651 230 695 226 674 b 235 584 226 628 229 606 b 263 526 241 562 250 543 b 309 484 275 509 290 495 b 375 468 328 473 350 468 z m 233 250 b 278 165 240 218 255 189 b 364 129 301 141 330 129 b 453 160 400 129 430 140 b 508 237 476 181 494 207 b 538 333 522 267 532 299 b 550 425 544 368 548 398 l 547 428 b 453 344 520 389 489 361 b 328 319 417 328 375 319 b 206 347 286 319 245 328 b 104 419 166 365 132 389 b 47 521 78 449 59 483 b 29 636 35 559 29 597 b 53 776 29 686 37 733 b 123 888 70 819 93 856 b 231 964 153 920 189 945 b 369 992 272 982 319 992 b 552 948 444 992 504 977 b 667 833 600 919 638 880 b 726 671 695 785 715 731 b 743 489 738 611 743 550 b 722 308 743 429 736 369 b 656 145 708 248 686 194 b 538 27 625 97 586 57 b 361 -18 489 -3 431 -18 b 244 -1 319 -18 281 -12 b 149 51 208 11 176 28 b 81 136 121 75 98 103 b 46 250 63 169 51 207 z "},"\u0000":{"ha":0,"x_min":0,"x_max":0,"o":""},"\b":{"ha":0,"x_min":0,"x_max":0,"o":""},"\t":{"ha":386,"x_min":0,"x_max":0,"o":""},"\n":{"ha":386,"x_min":0,"x_max":0,"o":""},"\r":{"ha":386,"x_min":0,"x_max":0,"o":""},"\u001d":{"ha":0,"x_min":0,"x_max":0,"o":""},"!":{"ha":386,"x_min":0,"x_max":0,"o":"m 85 214 l 303 214 l 303 0 l 85 0 z m 296 725 l 242 297 l 143 297 l 90 725 l 90 992 l 296 992 z "},"\"":{"ha":643,"x_min":0,"x_max":0,"o":"m 118 992 l 267 992 l 267 546 l 118 546 z m 376 992 l 525 992 l 525 546 l 376 546 z "},"#":{"ha":772,"x_min":0,"x_max":0,"o":"m 338 572 l 313 400 l 447 400 l 471 572 z m 161 275 l 46 275 l 46 400 l 178 400 l 203 572 l 88 572 l 88 697 l 219 697 l 258 972 l 393 972 l 354 697 l 489 697 l 526 972 l 661 972 l 624 697 l 726 697 l 726 572 l 606 572 l 582 400 l 685 400 l 685 275 l 564 275 l 526 0 l 392 0 l 429 275 l 296 275 l 257 0 l 122 0 z "},"$":{"ha":772,"x_min":0,"x_max":0,"o":"m 196 322 b 238 197 195 269 209 228 b 344 139 266 167 302 147 l 344 429 b 326 435 340 431 334 433 b 300 442 318 438 309 440 b 199 474 266 451 232 462 b 109 524 165 487 135 503 b 46 602 83 545 62 571 b 22 718 30 633 22 672 b 49 843 22 765 31 807 b 121 934 67 879 91 909 b 224 991 150 959 185 978 b 344 1015 263 1004 303 1013 l 344 1122 l 426 1122 l 426 1015 b 544 988 468 1011 507 1002 b 640 933 580 975 613 956 b 708 844 668 909 691 880 b 739 719 726 809 736 768 l 542 719 b 507 814 541 756 529 788 b 426 853 485 840 458 853 l 426 607 b 460 599 438 604 449 601 b 497 589 472 596 484 593 b 656 520 566 570 619 547 b 738 435 693 493 720 464 b 769 346 755 405 766 375 b 774 267 772 316 774 290 b 758 190 774 246 769 221 b 703 99 748 159 730 128 b 597 19 677 69 642 43 b 426 -22 553 -4 496 -18 l 426 -140 l 344 -140 l 344 -22 b 101 74 241 -15 160 17 b 0 322 43 130 9 213 z m 426 139 b 478 151 443 141 460 145 b 527 176 497 157 513 165 b 563 217 541 188 553 201 b 576 275 572 234 576 253 b 542 356 576 311 565 338 b 426 406 520 374 481 391 z m 344 853 b 299 846 329 853 313 850 b 258 824 284 841 270 834 b 230 788 246 815 237 803 b 219 738 223 774 219 757 b 249 667 219 707 229 683 b 344 626 268 650 300 637 z "},"%":{"ha":1389,"x_min":0,"x_max":0,"o":"m 963 253 b 964 201 963 238 963 221 b 974 147 965 182 968 164 b 1000 103 979 129 988 115 b 1051 85 1012 91 1029 85 b 1102 103 1073 85 1090 91 b 1130 147 1115 115 1124 129 b 1141 201 1136 164 1140 182 b 1143 251 1142 220 1143 237 b 1141 301 1143 265 1142 282 b 1131 355 1140 320 1136 338 b 1105 399 1125 372 1116 387 b 1057 418 1093 412 1077 418 b 1005 401 1035 418 1017 413 b 976 360 992 390 983 376 b 965 306 970 343 966 325 b 963 253 963 286 963 269 z m 821 254 b 835 360 821 292 825 327 b 878 444 844 392 858 420 b 951 501 897 469 922 488 b 1057 522 981 515 1016 522 b 1165 501 1100 522 1137 515 b 1235 442 1194 486 1217 467 b 1274 356 1253 418 1266 389 b 1285 249 1281 322 1285 287 b 1271 143 1285 211 1280 175 b 1228 58 1262 111 1247 82 b 1156 2 1209 34 1185 16 b 1050 -18 1126 -11 1091 -18 b 942 3 1007 -18 972 -11 b 872 60 913 17 890 36 b 833 147 853 85 841 114 b 821 254 825 181 821 216 z m 928 1003 l 1046 1003 l 474 -29 l 353 -29 z m 246 714 b 247 664 246 699 246 682 b 257 612 248 645 251 628 b 283 571 263 596 271 582 b 335 554 295 560 313 554 b 385 571 356 554 373 560 b 413 612 398 582 407 596 b 424 663 419 628 423 645 b 426 713 426 681 426 698 b 424 763 426 726 426 743 b 414 821 423 783 419 802 b 388 868 408 839 400 855 b 340 888 377 881 361 887 b 288 869 318 888 301 881 b 260 825 276 857 266 843 b 248 768 253 807 249 788 b 246 714 247 748 246 730 z m 104 717 b 118 824 104 755 109 790 b 161 911 127 857 142 886 b 235 970 181 936 205 956 b 340 992 264 984 300 992 b 449 969 384 992 420 984 b 519 909 477 955 501 934 b 557 819 537 884 550 854 b 568 711 564 785 568 749 b 554 606 568 673 563 638 b 512 524 545 574 531 547 b 439 469 493 500 469 482 b 333 450 409 456 374 450 b 226 470 291 450 255 457 b 155 526 197 484 173 502 b 116 610 137 549 124 578 b 104 717 108 643 104 679 z "},"&":{"ha":951,"x_min":0,"x_max":0,"o":"m 644 99 b 517 11 605 60 562 31 b 365 -18 472 -8 422 -18 b 240 1 321 -18 279 -12 b 138 59 200 14 166 34 b 69 152 109 84 86 116 b 44 278 53 189 44 231 b 63 374 44 313 50 345 b 112 453 75 403 91 430 b 183 517 133 477 156 498 b 267 565 210 535 238 551 b 199 663 240 598 217 630 b 172 776 181 695 172 733 b 194 869 172 811 179 842 b 251 941 208 897 227 921 b 334 987 275 961 303 976 b 431 1003 365 997 397 1003 b 537 988 469 1003 504 998 b 623 942 570 977 598 962 b 681 868 647 922 667 898 b 703 765 696 838 703 804 b 652 618 703 707 686 658 b 526 518 618 578 576 545 l 654 361 b 678 419 664 380 672 399 b 690 479 683 439 688 459 l 861 479 b 831 350 856 435 846 392 b 765 235 815 308 793 270 l 967 0 l 725 0 z m 371 438 b 319 411 353 430 336 421 b 275 375 303 401 288 389 b 244 329 262 361 252 346 b 232 274 236 313 232 294 b 244 223 232 256 236 239 b 275 181 252 207 262 193 b 320 153 288 170 303 160 b 374 143 337 147 355 143 b 466 167 409 143 440 151 b 540 231 492 184 517 205 z m 531 776 b 503 843 531 802 522 825 b 440 871 485 862 464 871 b 378 847 416 871 395 863 b 351 783 360 830 351 809 b 376 703 351 752 360 725 b 429 635 393 681 411 658 b 501 692 457 652 481 671 b 531 776 521 712 531 740 z "},"'":{"ha":386,"x_min":0,"x_max":0,"o":"m 119 992 l 268 992 l 268 546 l 119 546 z "},"(":{"ha":411,"x_min":0,"x_max":0,"o":"m 421 1015 b 306 709 368 917 330 815 b 269 386 281 603 269 495 b 305 60 269 275 281 166 b 419 -251 328 -47 367 -150 l 256 -251 b 120 50 197 -156 152 -56 b 72 372 88 156 72 263 b 84 535 72 424 76 478 b 119 706 92 592 103 649 b 176 869 134 762 153 817 b 256 1015 198 922 225 971 z "},")":{"ha":411,"x_min":0,"x_max":0,"o":"m -8 -251 b 105 53 43 -153 80 -52 b 142 375 129 159 142 266 b 106 703 142 486 130 595 b -7 1015 81 810 44 914 l 156 1015 b 291 713 214 920 259 819 b 339 389 323 606 339 498 b 328 226 339 337 335 283 b 294 56 320 169 309 112 b 236 -107 278 0 259 -54 b 156 -251 213 -160 186 -208 z "},"*":{"ha":565,"x_min":0,"x_max":0,"o":"m 336 818 l 497 879 l 535 772 l 371 718 l 474 582 l 382 514 l 279 657 l 182 514 l 89 582 l 192 718 l 31 772 l 68 879 l 225 818 l 225 992 l 336 992 z "},"+":{"ha":833,"x_min":0,"x_max":0,"o":"m 492 425 l 768 425 l 768 276 l 492 276 l 492 0 l 343 0 l 343 276 l 67 276 l 67 425 l 343 425 l 343 701 l 492 701 z "},",":{"ha":386,"x_min":0,"x_max":0,"o":"m 85 214 l 303 214 l 303 0 b 285 -87 303 -31 297 -60 b 239 -156 274 -113 258 -136 b 170 -203 219 -175 197 -191 b 86 -229 144 -216 116 -225 l 86 -129 b 126 -112 100 -126 113 -121 b 158 -83 138 -104 149 -94 b 179 -44 168 -71 175 -58 b 185 0 184 -29 186 -15 l 85 0 z "},"-":{"ha":565,"x_min":0,"x_max":0,"o":"m 74 464 l 492 464 l 492 294 l 74 294 z "},".":{"ha":386,"x_min":0,"x_max":0,"o":"m 83 214 l 301 214 l 301 0 l 83 0 z "},"/":{"ha":515,"x_min":0,"x_max":0,"o":"m 372 1015 l 531 1015 l 143 -22 l -14 -22 z "},":":{"ha":386,"x_min":0,"x_max":0,"o":"m 303 492 l 85 492 l 85 706 l 303 706 z m 85 214 l 303 214 l 303 0 l 85 0 z "},";":{"ha":386,"x_min":0,"x_max":0,"o":"m 303 492 l 85 492 l 85 706 l 303 706 z m 85 214 l 303 214 l 303 0 b 285 -87 303 -31 297 -60 b 239 -156 274 -113 258 -136 b 170 -203 219 -175 197 -191 b 86 -229 144 -216 116 -225 l 86 -129 b 126 -112 100 -126 113 -121 b 158 -83 138 -104 149 -94 b 179 -44 168 -71 175 -58 b 185 0 184 -29 186 -15 l 85 0 z "},"<":{"ha":833,"x_min":0,"x_max":0,"o":"m 769 554 l 260 351 l 769 149 l 769 -10 l 64 269 l 64 433 l 769 714 z "},"=":{"ha":833,"x_min":0,"x_max":0,"o":"m 768 128 l 67 128 l 67 276 l 768 276 z m 768 425 l 67 425 l 67 574 l 768 574 z "},">":{"ha":833,"x_min":0,"x_max":0,"o":"m 64 149 l 574 351 l 64 554 l 64 714 l 769 433 l 769 269 l 64 -10 z "},"?":{"ha":772,"x_min":0,"x_max":0,"o":"m 268 214 l 486 214 l 486 0 l 268 0 z m 44 672 b 70 810 45 722 54 768 b 138 918 86 851 109 888 b 244 990 167 949 203 972 b 382 1015 285 1007 331 1015 b 547 988 448 1015 503 1006 b 653 921 591 970 626 948 b 710 834 680 894 699 865 b 728 747 722 803 728 774 b 710 638 728 703 722 666 b 667 564 699 609 684 584 b 610 512 650 544 631 526 b 551 469 590 497 570 483 b 502 419 533 454 516 438 b 475 350 488 401 479 378 l 475 297 l 288 297 l 288 360 b 310 460 290 400 298 433 b 354 528 323 487 338 509 b 407 578 371 547 388 564 b 458 619 425 592 443 606 b 497 665 474 633 487 649 b 510 728 506 682 511 703 b 478 822 510 770 499 802 b 392 853 458 843 429 853 b 327 838 367 853 345 848 b 283 799 309 828 294 816 b 257 742 271 783 263 764 b 249 672 251 721 249 697 z "},"@":{"ha":1111,"x_min":0,"x_max":0,"o":"m 776 399 b 769 369 774 389 771 379 b 765 339 766 358 765 348 b 771 316 765 330 767 322 b 789 307 775 310 781 307 b 848 326 808 307 828 313 b 901 378 868 338 885 356 b 938 460 916 401 928 428 b 953 563 948 491 953 525 b 924 709 953 618 943 667 b 844 816 904 751 878 787 b 724 882 810 845 770 867 b 576 904 678 897 629 904 b 415 873 517 904 463 894 b 290 787 366 852 325 823 b 211 656 256 750 230 707 b 183 493 193 606 183 551 b 214 327 183 432 194 377 b 299 199 234 278 263 235 b 428 117 335 164 378 136 b 593 88 479 97 534 88 b 759 117 651 88 707 97 b 892 201 811 137 856 165 l 1008 201 b 826 35 961 129 900 74 b 585 -22 752 -3 672 -22 b 376 17 511 -22 441 -9 b 206 125 312 43 255 79 b 92 290 158 171 119 226 b 50 496 64 353 50 422 b 92 701 50 569 64 637 b 206 865 119 764 157 819 b 374 975 254 912 310 948 b 578 1015 438 1002 506 1015 b 760 985 641 1015 701 1005 b 914 899 818 964 869 936 b 1021 766 958 863 994 818 b 1061 592 1048 714 1061 656 b 1023 408 1061 520 1048 459 b 931 283 997 357 967 316 b 823 212 896 251 859 227 b 735 189 786 197 757 189 b 663 211 705 189 681 196 b 633 268 645 226 635 245 l 631 268 b 565 207 614 240 592 220 b 481 188 538 194 510 188 b 397 206 451 188 423 194 b 327 258 370 219 347 236 b 280 333 307 279 291 305 b 263 425 268 362 263 393 b 284 554 262 469 270 512 b 345 668 298 597 319 635 b 441 749 372 701 403 728 b 565 779 478 769 520 779 b 657 758 595 779 625 772 b 728 682 688 743 712 718 l 750 757 l 864 757 z m 404 443 b 434 353 404 406 414 376 b 513 319 454 331 480 319 b 581 339 538 319 560 326 b 635 388 602 352 620 368 b 671 456 651 408 663 431 b 683 529 679 481 683 505 b 652 614 683 563 673 592 b 576 647 631 636 606 647 b 507 628 551 647 528 641 b 452 580 486 616 467 600 b 417 514 437 560 425 538 b 404 443 408 490 404 466 z "},"A":{"ha":951,"x_min":0,"x_max":0,"o":"m 346 383 l 603 383 l 478 747 l 475 747 z m 367 992 l 590 992 l 961 0 l 735 0 l 660 221 l 289 221 l 211 0 l -8 0 z "},"B":{"ha":978,"x_min":0,"x_max":0,"o":"m 314 590 l 535 590 b 631 618 574 590 606 600 b 668 708 656 637 668 667 b 656 765 668 731 664 750 b 622 800 647 780 636 792 b 574 817 608 808 592 814 b 518 822 556 821 538 822 l 314 822 z m 96 992 l 563 992 b 692 979 610 992 653 988 b 792 938 731 971 764 957 b 856 863 819 919 841 894 b 879 746 872 831 879 792 b 845 621 879 696 868 654 b 744 539 822 588 789 560 b 881 447 806 521 851 491 b 926 288 911 403 926 350 b 897 158 926 238 917 194 b 819 68 878 121 852 91 b 706 17 786 45 748 28 b 576 0 664 6 621 0 l 96 0 z m 314 169 l 547 169 b 608 176 569 169 589 172 b 660 197 628 180 645 187 b 695 236 675 206 686 219 b 708 300 704 253 708 274 b 665 409 708 351 694 387 b 551 442 637 431 599 442 l 314 442 z "},"C":{"ha":1029,"x_min":0,"x_max":0,"o":"m 757 658 b 732 727 753 683 745 706 b 683 782 719 748 703 766 b 617 819 664 798 642 810 b 540 832 593 828 567 832 b 415 803 491 832 450 822 b 332 727 381 784 353 759 b 285 618 311 695 295 659 b 271 492 276 577 271 535 b 285 370 271 450 276 409 b 332 264 295 331 311 295 b 415 188 353 232 381 207 b 540 160 450 169 491 160 b 697 221 607 160 659 180 b 765 382 734 262 757 315 l 976 382 b 933 214 971 320 956 264 b 842 86 910 164 880 121 b 708 6 804 51 759 24 b 540 -22 657 -13 601 -22 b 335 17 464 -22 396 -9 b 182 126 275 44 224 80 b 86 290 140 173 108 227 b 53 492 64 352 53 419 b 86 698 53 566 64 634 b 182 864 108 761 140 817 b 335 975 224 911 275 948 b 540 1015 396 1002 464 1015 b 695 992 595 1015 647 1007 b 826 923 744 976 787 953 b 921 811 864 893 896 856 b 968 658 946 767 962 716 z "},"D":{"ha":1029,"x_min":0,"x_max":0,"o":"m 314 183 l 508 183 b 600 199 540 183 570 188 b 679 249 630 209 656 226 b 735 342 702 273 721 304 b 756 481 749 380 756 426 b 741 616 756 531 751 576 b 693 719 731 656 715 691 b 605 785 671 748 641 770 b 469 808 568 801 523 808 l 314 808 z m 96 992 l 524 992 b 702 961 587 992 647 981 b 845 869 757 941 805 910 b 940 717 885 829 917 778 b 974 501 962 656 974 584 b 946 301 974 429 964 363 b 862 143 927 240 899 188 b 722 38 824 99 778 64 b 524 0 666 13 600 0 l 96 0 z "},"E":{"ha":900,"x_min":0,"x_max":0,"o":"m 96 992 l 838 992 l 838 808 l 314 808 l 314 596 l 794 596 l 794 426 l 314 426 l 314 183 l 849 183 l 849 0 l 96 0 z "},"F":{"ha":824,"x_min":0,"x_max":0,"o":"m 96 992 l 793 992 l 793 808 l 314 808 l 314 579 l 729 579 l 729 410 l 314 410 l 314 0 l 96 0 z "},"G":{"ha":1054,"x_min":0,"x_max":0,"o":"m 813 113 b 683 8 774 63 731 28 b 540 -22 636 -12 588 -22 b 335 17 464 -22 396 -9 b 182 126 275 44 224 80 b 86 290 140 173 108 227 b 53 492 64 352 53 419 b 86 698 53 566 64 634 b 182 864 108 761 140 817 b 335 975 224 911 275 948 b 540 1015 396 1002 464 1015 b 688 992 591 1015 641 1008 b 817 925 736 977 779 955 b 913 815 856 895 888 859 b 958 665 938 772 953 722 l 750 665 b 675 790 737 721 712 763 b 540 832 638 818 593 832 b 415 803 491 832 450 822 b 332 727 381 784 353 759 b 285 618 311 695 295 659 b 271 492 276 577 271 535 b 285 370 271 450 276 409 b 332 264 295 331 311 295 b 415 188 353 232 381 207 b 540 160 450 169 491 160 b 708 215 613 160 668 178 b 776 374 747 251 770 304 l 557 374 l 557 536 l 974 536 l 974 0 l 835 0 z "},"H":{"ha":1029,"x_min":0,"x_max":0,"o":"m 96 992 l 314 992 l 314 611 l 715 611 l 715 992 l 933 992 l 933 0 l 715 0 l 715 428 l 314 428 l 314 0 l 96 0 z "},"I":{"ha":410,"x_min":0,"x_max":0,"o":"m 96 992 l 314 992 l 314 0 l 96 0 z "},"J":{"ha":772,"x_min":0,"x_max":0,"o":"m 676 313 b 667 206 676 280 673 244 b 622 97 660 167 645 130 b 522 12 599 63 566 34 b 346 -22 479 -11 420 -22 b 225 -5 304 -22 264 -16 b 121 49 186 7 151 25 b 47 144 90 74 66 105 b 19 283 29 182 19 229 l 19 369 l 217 369 l 217 325 b 222 258 217 301 219 279 b 242 206 226 238 232 221 b 280 172 251 192 264 181 b 343 160 296 164 317 160 b 410 175 372 160 394 165 b 444 215 425 185 437 198 b 456 267 451 231 455 248 b 458 322 458 286 458 305 l 458 992 l 676 992 z "},"K":{"ha":1003,"x_min":0,"x_max":0,"o":"m 96 992 l 314 992 l 314 581 l 701 992 l 974 992 l 586 600 l 1011 0 l 738 0 l 439 446 l 314 319 l 314 0 l 96 0 z "},"L":{"ha":824,"x_min":0,"x_max":0,"o":"m 96 992 l 314 992 l 314 183 l 797 183 l 797 0 l 96 0 z "},"M":{"ha":1260,"x_min":0,"x_max":0,"o":"m 96 992 l 403 992 l 635 310 l 638 310 l 857 992 l 1164 992 l 1164 0 l 960 0 l 960 703 l 957 703 l 714 0 l 546 0 l 303 696 l 300 696 l 300 0 l 96 0 z "},"N":{"ha":1029,"x_min":0,"x_max":0,"o":"m 96 992 l 313 992 l 726 326 l 729 326 l 729 992 l 933 992 l 933 0 l 715 0 l 303 664 l 300 664 l 300 0 l 96 0 z "},"O":{"ha":1081,"x_min":0,"x_max":0,"o":"m 271 492 b 285 370 271 450 276 409 b 332 264 295 331 311 295 b 415 188 353 232 381 207 b 540 160 450 169 491 160 b 665 188 589 160 631 169 b 749 264 700 207 727 232 b 795 370 770 295 785 331 b 810 492 805 409 810 450 b 795 618 810 535 805 577 b 749 727 785 659 770 695 b 665 803 727 759 700 784 b 540 832 631 822 589 832 b 415 803 491 832 450 822 b 332 727 381 784 353 759 b 285 618 311 695 295 659 b 271 492 276 577 271 535 z m 53 492 b 86 698 53 566 64 634 b 182 864 108 761 140 817 b 335 975 224 911 275 948 b 540 1015 396 1002 464 1015 b 746 975 617 1015 686 1002 b 899 864 806 948 857 911 b 994 698 940 817 972 761 b 1028 492 1017 634 1028 566 b 994 290 1028 419 1017 352 b 899 126 972 227 940 173 b 746 17 857 80 806 44 b 540 -22 686 -9 617 -22 b 335 17 464 -22 396 -9 b 182 126 275 44 224 80 b 86 290 140 173 108 227 b 53 492 64 352 53 419 z "},"P":{"ha":926,"x_min":0,"x_max":0,"o":"m 314 525 l 483 525 b 556 531 508 525 532 527 b 617 552 579 534 599 541 b 659 597 634 563 648 578 b 675 674 670 617 675 642 b 659 750 675 705 670 731 b 617 795 648 769 634 784 b 556 817 599 806 579 813 b 483 822 532 820 508 822 l 314 822 z m 96 992 l 543 992 b 701 965 605 992 658 983 b 808 893 745 947 780 923 b 867 792 835 863 855 830 b 886 674 880 754 886 714 b 867 556 886 634 880 595 b 808 454 855 518 835 484 b 701 383 780 425 745 401 b 543 356 658 365 605 356 l 314 356 l 314 0 l 96 0 z "},"Q":{"ha":1081,"x_min":0,"x_max":0,"o":"m 636 367 l 749 264 b 793 357 767 289 782 320 b 810 492 804 394 810 439 b 795 618 810 535 805 577 b 749 727 785 659 770 695 b 665 803 727 759 700 784 b 540 832 631 822 589 832 b 415 803 491 832 450 822 b 332 727 381 784 353 759 b 285 618 311 695 295 659 b 271 492 276 577 271 535 b 285 370 271 450 276 409 b 332 264 295 331 311 295 b 415 188 353 232 381 207 b 540 160 450 169 491 160 b 590 161 556 160 573 160 b 628 174 608 162 620 166 l 535 258 z m 921 -92 l 781 35 b 540 -22 715 -3 635 -22 b 335 17 464 -22 396 -9 b 182 126 275 44 224 80 b 86 290 140 173 108 227 b 53 492 64 352 53 419 b 86 698 53 566 64 634 b 182 864 108 761 140 817 b 335 975 224 911 275 948 b 540 1015 396 1002 464 1015 b 746 975 617 1015 686 1002 b 899 864 806 948 857 911 b 994 698 940 817 972 761 b 1028 492 1017 634 1028 566 b 994 290 1028 419 1017 352 b 899 126 972 228 940 174 l 1022 14 z "},"R":{"ha":1003,"x_min":0,"x_max":0,"o":"m 314 543 l 553 543 b 665 576 603 543 640 554 b 703 685 690 599 703 635 b 665 790 703 733 690 768 b 553 822 640 811 603 822 l 314 822 z m 96 992 l 631 992 b 751 970 675 992 715 984 b 842 911 786 956 817 936 b 901 824 868 886 887 857 b 921 718 914 791 921 756 b 884 567 921 660 909 609 b 764 469 859 524 819 492 l 764 467 b 831 433 791 459 813 448 b 874 378 848 417 863 399 b 898 310 885 358 893 335 b 908 235 903 285 906 260 b 911 179 909 219 910 200 b 916 114 912 158 914 136 b 927 51 918 92 922 71 b 950 0 932 31 940 14 l 732 0 b 710 113 720 31 713 69 b 697 238 707 156 703 198 b 650 351 690 289 674 327 b 532 388 626 375 587 388 l 314 388 l 314 0 l 96 0 z "},"S":{"ha":901,"x_min":0,"x_max":0,"o":"m 244 329 b 263 244 244 296 250 268 b 310 188 275 221 291 203 b 381 156 330 174 354 163 b 464 146 407 149 435 146 b 526 151 483 146 504 147 b 589 169 549 154 569 160 b 638 208 608 179 625 191 b 657 269 650 224 657 244 b 631 335 657 296 648 318 b 564 376 614 351 592 365 b 469 406 536 388 505 397 b 363 433 434 414 399 423 b 254 467 325 443 289 454 b 160 519 219 481 188 498 b 92 599 132 541 109 567 b 67 715 75 631 67 670 b 99 848 67 766 78 810 b 185 942 121 885 150 917 b 304 997 220 967 260 985 b 438 1015 349 1009 393 1015 b 587 998 489 1015 539 1009 b 714 942 634 986 677 968 b 802 842 751 916 780 883 b 835 696 824 802 835 753 l 624 696 b 605 769 622 725 616 750 b 563 815 594 789 580 804 b 502 839 545 826 525 834 b 428 846 479 844 455 846 b 375 840 410 846 393 844 b 327 821 357 837 341 830 b 292 786 313 812 301 800 b 278 733 282 772 278 755 b 289 686 278 714 281 698 b 333 653 296 674 311 663 b 423 622 354 643 384 632 b 574 583 461 612 512 599 b 651 563 592 580 618 573 b 749 517 684 553 716 538 b 833 431 781 495 809 467 b 868 294 856 396 868 350 b 842 168 868 249 859 207 b 763 67 824 129 798 96 b 634 1 728 39 685 17 b 456 -22 583 -14 523 -22 b 297 -2 401 -22 348 -16 b 160 61 245 11 200 32 b 67 171 121 90 90 126 b 33 329 44 215 32 268 z "},"T":{"ha":849,"x_min":0,"x_max":0,"o":"m 315 808 l 18 808 l 18 992 l 831 992 l 831 808 l 533 808 l 533 0 l 315 0 z "},"U":{"ha":1029,"x_min":0,"x_max":0,"o":"m 938 375 b 825 76 938 241 900 141 b 514 -22 750 10 646 -22 b 202 75 380 -22 276 10 b 92 375 128 140 92 240 l 92 992 l 310 992 l 310 375 b 317 296 310 348 312 322 b 346 227 321 270 331 247 b 408 178 361 207 381 191 b 514 160 434 166 469 160 b 675 212 592 160 645 177 b 719 375 705 247 719 301 l 719 992 l 938 992 z "},"V":{"ha":875,"x_min":0,"x_max":0,"o":"m 557 0 l 311 0 l -10 992 l 214 992 l 435 294 l 438 294 l 661 992 l 886 992 z "},"W":{"ha":1311,"x_min":0,"x_max":0,"o":"m 1040 0 l 824 0 l 656 675 l 653 675 l 488 0 l 267 0 l 4 992 l 222 992 l 379 317 l 382 317 l 554 992 l 758 992 l 928 308 l 931 308 l 1093 992 l 1307 992 z "},"X":{"ha":926,"x_min":0,"x_max":0,"o":"m 339 519 l 19 992 l 272 992 l 467 675 l 668 992 l 907 992 l 589 518 l 935 0 l 675 0 l 458 343 l 238 0 l -7 0 z "},"Y":{"ha":926,"x_min":0,"x_max":0,"o":"m 353 386 l -11 992 l 233 992 l 465 600 l 696 992 l 939 992 l 571 381 l 571 0 l 353 0 z "},"Z":{"ha":900,"x_min":0,"x_max":0,"o":"m 32 172 l 564 808 l 74 808 l 74 992 l 854 992 l 854 819 l 322 183 l 868 183 l 868 0 l 32 0 z "},"[":{"ha":463,"x_min":0,"x_max":0,"o":"m 94 1015 l 461 1015 l 461 860 l 292 860 l 292 -96 l 461 -96 l 461 -251 l 94 -251 z "},"\\":{"ha":515,"x_min":0,"x_max":0,"o":"m 531 -22 l 372 -22 l -14 1015 l 143 1015 z "},"]":{"ha":463,"x_min":0,"x_max":0,"o":"m 368 -251 l 1 -251 l 1 -96 l 171 -96 l 171 860 l 1 860 l 1 1015 l 368 1015 z "},"^":{"ha":833,"x_min":0,"x_max":0,"o":"m 324 972 l 510 972 l 749 438 l 586 438 l 417 819 l 247 438 l 85 438 z "},"_":{"ha":694,"x_min":0,"x_max":0,"o":"m 0 -103 l 694 -103 l 694 -172 l 0 -172 z "},"`":{"ha":360,"x_min":0,"x_max":0,"o":"m 151 1004 l -65 1004 l 147 807 l 285 807 z "},"a":{"ha":797,"x_min":0,"x_max":0,"o":"m 67 497 b 101 613 69 544 81 582 b 179 686 122 643 148 668 b 285 726 211 705 246 718 b 404 738 325 734 364 738 b 514 730 440 738 477 735 b 615 700 551 725 585 715 b 690 638 646 685 671 665 b 719 533 710 612 719 577 l 719 160 b 725 67 719 127 721 96 b 744 0 729 37 735 15 l 544 0 b 535 34 541 11 538 22 b 531 69 533 46 531 57 b 419 1 499 37 462 14 b 289 -18 377 -12 333 -18 b 193 -6 255 -18 223 -14 b 115 33 163 3 138 16 b 63 100 93 51 76 73 b 44 196 51 127 44 159 b 66 297 44 237 52 270 b 122 360 80 323 99 344 b 199 395 144 375 170 387 b 288 414 228 403 258 409 b 375 425 317 419 346 422 b 451 438 404 428 429 432 b 504 462 474 443 491 451 b 522 508 517 472 523 488 b 512 559 522 530 519 547 b 484 588 505 572 496 581 b 444 602 472 595 459 600 b 394 606 428 604 412 606 b 303 581 356 606 325 597 b 264 497 281 564 268 536 z m 522 351 b 491 334 514 344 503 338 b 451 324 478 330 465 326 b 406 317 436 321 421 319 b 358 310 390 315 374 313 b 315 299 344 307 329 303 b 277 280 300 294 288 288 b 251 250 266 272 258 262 b 242 204 245 238 242 223 b 251 160 242 187 245 172 b 278 131 258 148 267 138 b 317 117 289 124 302 119 b 363 113 331 114 347 113 b 453 132 401 113 431 119 b 500 178 474 145 490 160 b 519 233 510 197 516 215 b 522 278 521 252 522 267 z "},"b":{"ha":849,"x_min":0,"x_max":0,"o":"m 601 358 b 592 446 601 389 598 418 b 561 519 585 474 575 498 b 509 570 547 541 530 558 b 433 589 488 583 463 589 b 358 570 405 589 380 583 b 306 519 337 558 319 541 b 275 446 292 498 281 474 b 265 358 269 418 265 389 b 275 272 265 329 269 300 b 306 199 281 244 292 220 b 358 148 319 177 337 160 b 433 129 380 135 405 129 b 509 148 463 129 488 135 b 561 199 530 160 547 177 b 592 272 575 220 585 244 b 601 358 598 300 601 329 z m 75 992 l 272 992 l 272 631 l 275 631 b 373 712 299 668 332 695 b 501 738 414 729 457 737 b 608 715 538 738 573 730 b 703 647 644 700 675 678 b 772 530 732 617 755 578 b 799 360 790 482 799 425 b 772 190 799 294 790 237 b 703 72 755 142 732 103 b 608 4 675 42 644 19 b 501 -18 573 -11 538 -18 b 360 7 449 -18 401 -10 b 265 92 318 24 287 52 l 263 92 l 263 0 l 75 0 z "},"c":{"ha":797,"x_min":0,"x_max":0,"o":"m 564 465 b 418 589 551 548 502 589 b 339 567 387 589 360 582 b 287 512 318 553 300 534 b 258 437 273 489 264 464 b 250 356 253 409 250 382 b 258 276 250 330 253 303 b 285 203 264 250 273 225 b 336 150 298 182 315 164 b 414 129 357 136 383 129 b 523 169 461 129 497 142 b 571 275 548 195 564 231 l 761 275 b 650 57 748 180 711 107 b 415 -18 589 7 511 -18 b 267 9 362 -18 312 -9 b 153 85 222 27 184 52 b 79 201 121 117 97 156 b 53 349 62 246 53 295 b 77 503 53 404 61 456 b 149 627 93 551 117 592 b 264 708 180 662 219 689 b 419 738 309 728 361 738 b 542 721 462 738 503 732 b 648 670 582 710 617 693 b 724 585 679 647 704 619 b 757 465 743 552 754 512 z "},"d":{"ha":849,"x_min":0,"x_max":0,"o":"m 585 361 b 576 447 585 391 582 419 b 548 519 571 474 561 498 b 496 569 534 540 517 556 b 415 589 475 582 448 589 b 333 569 383 589 356 582 b 280 518 311 556 293 539 b 251 445 266 497 257 472 b 242 360 245 418 242 389 b 251 276 242 332 245 304 b 283 202 258 249 268 224 b 337 149 297 180 315 163 b 415 129 359 136 385 129 b 497 149 448 129 475 136 b 549 201 518 162 536 179 b 576 275 562 222 571 247 b 585 361 582 303 585 331 z m 588 92 l 585 92 b 494 8 562 53 531 25 b 367 -18 456 -9 414 -18 b 225 13 313 -18 266 -8 b 124 98 184 34 151 62 b 65 221 98 134 78 175 b 44 365 51 267 44 315 b 65 505 44 413 51 460 b 124 624 78 550 98 589 b 224 706 151 658 184 685 b 363 738 263 727 310 738 b 484 710 405 738 446 728 b 575 631 522 692 553 666 l 578 631 l 578 992 l 775 992 l 775 0 l 588 0 z "},"e":{"ha":797,"x_min":0,"x_max":0,"o":"m 558 436 b 509 550 549 486 533 524 b 401 589 485 576 450 589 b 323 573 370 589 344 584 b 273 533 302 562 285 549 b 247 483 260 518 252 501 b 238 436 241 466 238 450 z m 238 311 b 286 172 240 247 256 201 b 414 129 316 144 358 129 b 517 159 454 129 488 139 b 569 222 545 179 563 200 l 743 222 b 615 38 715 136 673 75 b 407 -18 558 0 488 -18 b 254 9 350 -18 300 -9 b 139 86 209 27 170 53 b 66 206 107 119 83 159 b 40 358 49 252 40 303 b 67 508 40 412 49 462 b 142 628 84 555 109 595 b 258 708 174 662 213 689 b 407 738 303 728 352 738 b 567 702 468 738 521 726 b 678 607 612 678 649 647 b 742 471 708 567 729 522 b 756 311 755 420 759 367 z "},"f":{"ha":463,"x_min":0,"x_max":0,"o":"m 118 586 l 0 586 l 0 718 l 118 718 l 118 774 b 178 931 118 837 138 890 b 358 992 218 971 278 992 b 411 990 376 992 394 991 b 463 986 429 988 446 987 l 463 839 b 390 843 439 842 415 843 b 333 824 363 843 344 837 b 315 761 321 812 315 791 l 315 718 l 451 718 l 451 586 l 315 586 l 315 0 l 118 0 z "},"g":{"ha":849,"x_min":0,"x_max":0,"o":"m 410 169 b 483 186 438 169 462 175 b 536 231 505 197 522 212 b 567 294 550 249 560 270 b 578 368 574 317 578 342 b 569 452 578 398 575 426 b 542 522 564 478 555 502 b 490 571 529 543 512 559 b 410 589 469 583 442 589 b 338 572 382 589 358 583 b 288 527 318 561 302 546 b 259 462 275 508 265 486 b 250 385 253 437 250 412 b 258 308 250 359 253 333 b 284 239 263 282 272 259 b 333 189 297 219 313 202 b 410 169 354 176 379 169 z m 765 46 b 753 -53 765 17 761 -16 b 703 -156 746 -90 729 -124 b 590 -237 677 -188 639 -215 b 393 -271 541 -260 475 -271 b 285 -258 358 -271 322 -266 b 185 -217 249 -249 216 -235 b 110 -145 155 -198 130 -174 b 76 -40 91 -116 79 -81 l 272 -40 b 326 -117 281 -77 300 -103 b 419 -139 353 -132 384 -139 b 541 -89 475 -139 516 -122 b 578 38 566 -56 579 -13 l 578 132 l 575 132 b 484 48 554 94 523 66 b 360 21 445 30 403 21 b 221 49 306 21 260 30 b 125 127 182 68 150 94 b 70 242 100 160 82 198 b 53 382 59 286 53 333 b 73 516 53 428 59 473 b 132 630 86 559 106 597 b 228 708 158 663 190 689 b 361 738 267 728 311 738 b 485 711 408 738 450 729 b 575 622 521 694 551 664 l 578 622 l 578 718 l 765 718 z "},"h":{"ha":824,"x_min":0,"x_max":0,"o":"m 75 992 l 272 992 l 272 618 l 276 618 b 372 709 301 660 333 690 b 486 738 411 728 449 738 b 616 716 539 738 582 730 b 696 656 650 702 676 682 b 737 563 715 631 729 600 b 749 442 745 527 749 486 l 749 0 l 551 0 l 551 406 b 524 538 551 465 542 509 b 425 582 505 567 472 582 b 308 534 371 582 332 566 b 272 376 284 502 272 450 l 272 0 l 75 0 z "},"i":{"ha":358,"x_min":0,"x_max":0,"o":"m 278 829 l 81 829 l 81 992 l 278 992 z m 81 718 l 278 718 l 278 0 l 81 0 z "},"j":{"ha":386,"x_min":0,"x_max":0,"o":"m 290 829 l 93 829 l 93 992 l 290 992 z m -25 -83 b 17 -89 -15 -87 -1 -89 b 70 -77 37 -89 55 -85 b 93 -25 85 -69 93 -52 l 93 718 l 290 718 l 290 -35 b 278 -131 290 -72 286 -104 b 238 -198 271 -157 257 -180 b 161 -238 219 -216 194 -229 b 38 -251 129 -247 88 -251 b -25 -246 14 -251 -6 -250 z "},"k":{"ha":797,"x_min":0,"x_max":0,"o":"m 93 992 l 290 992 l 290 460 l 539 718 l 772 718 l 501 454 l 803 0 l 564 0 l 367 321 l 290 247 l 290 0 l 93 0 z "},"l":{"ha":358,"x_min":0,"x_max":0,"o":"m 81 992 l 278 992 l 278 0 l 81 0 z "},"m":{"ha":1258,"x_min":0,"x_max":0,"o":"m 81 718 l 267 718 l 267 621 l 269 621 b 363 707 295 658 327 687 b 489 738 400 727 442 738 b 613 711 534 738 576 729 b 699 618 651 694 679 663 b 785 701 720 650 749 677 b 915 738 822 725 865 737 b 1021 724 953 738 988 733 b 1104 679 1053 714 1081 700 b 1158 599 1127 659 1145 632 b 1178 481 1171 566 1178 527 l 1178 0 l 981 0 l 981 407 b 978 475 981 431 980 454 b 963 531 976 496 971 515 b 926 568 954 546 942 559 b 860 582 909 577 888 582 b 792 566 832 582 809 577 b 752 524 775 555 762 541 b 733 466 742 507 736 488 b 728 400 729 444 728 422 l 728 0 l 531 0 l 531 403 b 529 466 531 424 530 445 b 517 524 528 487 524 506 b 483 566 510 541 499 555 b 411 582 466 577 443 582 b 374 576 402 582 390 580 b 330 552 359 572 344 564 b 293 502 316 541 303 524 b 278 417 283 480 278 452 l 278 0 l 81 0 z "},"n":{"ha":824,"x_min":0,"x_max":0,"o":"m 75 718 l 263 718 l 263 618 l 267 618 b 364 709 292 660 324 690 b 486 738 404 728 444 738 b 616 716 539 738 582 730 b 696 656 650 702 676 682 b 737 563 715 631 729 600 b 749 442 745 527 749 486 l 749 0 l 551 0 l 551 406 b 524 538 551 465 542 509 b 425 582 505 567 472 582 b 308 534 371 582 332 566 b 272 376 284 502 272 450 l 272 0 l 75 0 z "},"o":{"ha":849,"x_min":0,"x_max":0,"o":"m 250 358 b 258 274 250 330 253 302 b 287 201 264 247 273 222 b 340 149 300 179 318 162 b 424 129 363 136 390 129 b 508 149 457 129 485 136 b 562 201 530 162 548 179 b 590 274 575 222 585 247 b 599 358 596 302 599 330 b 590 443 599 387 596 415 b 562 517 585 471 575 495 b 508 569 548 538 530 555 b 424 589 485 582 457 589 b 340 569 390 589 363 582 b 287 517 318 555 300 538 b 258 443 273 495 264 471 b 250 358 253 415 250 387 z m 53 358 b 79 515 53 416 62 468 b 154 634 97 561 122 601 b 271 710 187 667 225 692 b 424 738 316 728 367 738 b 577 710 480 738 531 728 b 694 634 623 692 662 667 b 769 515 727 601 752 561 b 796 358 787 468 796 416 b 769 203 796 301 787 249 b 694 84 752 156 727 117 b 577 8 662 51 623 26 b 424 -18 531 -9 480 -18 b 271 8 367 -18 316 -9 b 154 84 225 26 187 51 b 79 203 122 117 97 156 b 53 358 62 249 53 301 z "},"p":{"ha":849,"x_min":0,"x_max":0,"o":"m 438 129 b 519 149 470 129 497 136 b 572 199 541 162 558 178 b 600 272 585 220 594 244 b 608 357 606 300 608 328 b 599 442 608 386 605 414 b 569 516 593 469 583 494 b 516 569 556 538 538 555 b 436 589 494 582 468 589 b 355 569 404 589 377 582 b 302 517 333 555 316 538 b 274 443 289 495 279 471 b 265 357 268 415 265 387 b 274 272 265 328 268 300 b 303 199 280 244 290 220 b 357 149 317 178 335 162 b 438 129 379 136 406 129 z m 75 718 l 263 718 l 263 626 l 265 626 b 357 711 289 665 320 694 b 479 738 394 729 435 738 b 625 706 536 738 584 727 b 726 621 666 684 700 656 b 786 498 753 586 773 545 b 806 351 799 451 806 402 b 786 213 806 303 799 257 b 727 94 773 168 753 129 b 628 13 701 60 668 33 b 490 -18 589 -8 543 -18 b 367 9 446 -18 405 -9 b 275 89 330 27 299 54 l 272 89 l 272 -251 l 75 -251 z "},"q":{"ha":849,"x_min":0,"x_max":0,"o":"m 242 358 b 250 274 242 330 244 302 b 278 201 256 247 265 222 b 331 149 292 179 309 162 b 413 129 353 136 380 129 b 494 148 445 129 472 135 b 547 198 516 160 533 177 b 576 270 560 219 570 243 b 585 356 582 297 585 326 b 576 439 585 383 582 411 b 547 514 570 467 560 492 b 495 568 534 536 517 554 b 417 589 473 582 447 589 b 335 569 384 589 357 582 b 281 517 313 556 294 539 b 251 444 267 496 257 471 b 242 358 245 416 242 388 z m 775 -251 l 578 -251 l 578 90 l 575 90 b 478 7 552 51 519 24 b 349 -18 436 -10 393 -18 b 245 1 315 -18 281 -12 b 147 63 209 13 177 34 b 74 178 118 92 93 131 b 44 354 54 226 44 285 b 64 497 44 403 51 451 b 124 620 77 544 97 584 b 224 706 150 656 184 684 b 367 738 265 727 312 737 b 492 712 411 738 453 729 b 585 626 532 695 563 666 l 588 626 l 588 718 l 775 718 z "},"r":{"ha":540,"x_min":0,"x_max":0,"o":"m 75 718 l 263 718 l 263 585 l 265 585 b 303 647 275 607 287 628 b 357 695 319 666 337 682 b 422 726 377 709 399 719 b 494 738 445 734 469 737 b 538 731 507 738 522 735 l 538 547 b 504 552 528 549 517 551 b 467 554 491 553 479 554 b 375 536 431 554 400 548 b 315 487 350 524 330 508 b 282 414 299 466 288 442 b 272 324 275 386 272 356 l 272 0 l 75 0 z "},"s":{"ha":746,"x_min":0,"x_max":0,"o":"m 228 233 b 241 178 228 212 232 194 b 275 141 250 163 261 151 b 323 119 289 131 305 124 b 379 113 341 115 360 113 b 423 117 393 113 408 114 b 465 133 438 121 452 126 b 496 160 477 140 488 149 b 508 204 504 172 508 187 b 449 271 508 234 489 256 b 285 315 410 286 355 300 b 201 338 256 322 228 329 b 128 373 173 347 149 359 b 76 427 106 387 89 405 b 57 507 63 449 57 475 b 84 621 57 553 66 591 b 156 691 102 650 126 674 b 256 727 185 708 219 720 b 369 738 293 734 331 738 b 483 726 408 738 446 734 b 581 689 519 719 552 706 b 652 619 609 671 633 648 b 686 508 671 590 682 553 l 499 508 b 456 585 496 546 481 572 b 364 606 430 599 399 606 b 328 603 353 606 341 605 b 292 594 315 602 303 599 b 265 574 282 590 273 583 b 254 539 258 566 254 554 b 274 496 254 521 261 507 b 324 469 287 485 303 476 b 396 450 345 462 369 456 b 478 432 423 444 450 438 b 562 408 506 425 534 418 b 635 372 589 399 613 387 b 686 315 656 356 673 337 b 706 231 699 292 706 264 b 677 112 706 183 696 144 b 603 35 658 80 633 54 b 498 -6 572 15 537 2 b 378 -18 459 -14 419 -18 b 256 -6 336 -18 295 -14 b 149 36 216 3 180 17 b 73 113 118 56 93 81 b 40 233 53 145 42 185 z "},"t":{"ha":489,"x_min":0,"x_max":0,"o":"m 325 718 l 469 718 l 469 586 l 325 586 l 325 231 b 342 164 325 197 331 175 b 408 147 353 153 375 147 b 440 149 419 147 430 148 b 469 153 450 150 460 151 l 469 0 b 414 -6 453 -3 434 -5 b 354 -7 394 -6 374 -7 b 267 -1 324 -7 295 -5 b 195 24 240 3 216 12 b 146 75 174 36 158 53 b 128 163 134 97 128 126 l 128 586 l 8 586 l 8 718 l 128 718 l 128 933 l 325 933 z "},"u":{"ha":824,"x_min":0,"x_max":0,"o":"m 749 0 l 561 0 l 561 100 l 557 100 b 460 10 532 58 500 28 b 338 -18 420 -9 379 -18 b 208 3 285 -18 241 -11 b 128 62 174 17 147 36 b 87 155 108 87 95 118 b 75 276 79 191 75 232 l 75 718 l 272 718 l 272 313 b 300 180 272 253 281 209 b 399 136 319 151 351 136 b 515 184 452 136 491 152 b 551 342 539 216 551 269 l 551 718 l 749 718 z "},"v":{"ha":722,"x_min":0,"x_max":0,"o":"m 472 0 l 253 0 l 7 718 l 214 718 l 365 228 l 368 228 l 519 718 l 715 718 z "},"w":{"ha":1131,"x_min":0,"x_max":0,"o":"m 896 0 l 693 0 l 565 482 l 563 482 l 440 0 l 236 0 l 8 718 l 217 718 l 349 231 l 351 231 l 471 718 l 663 718 l 785 232 l 788 232 l 919 718 l 1122 718 z "},"x":{"ha":746,"x_min":0,"x_max":0,"o":"m 258 378 l 22 718 l 247 718 l 374 531 l 499 718 l 717 718 l 481 382 l 746 0 l 521 0 l 371 226 l 221 0 l 0 0 z "},"y":{"ha":721,"x_min":0,"x_max":0,"o":"m 429 -89 b 340 -214 408 -147 378 -189 b 182 -251 302 -239 250 -251 b 122 -249 162 -251 141 -251 b 61 -244 102 -248 81 -246 l 61 -82 b 118 -87 80 -84 99 -86 b 176 -89 138 -89 157 -90 b 234 -58 202 -86 222 -76 b 253 0 247 -41 253 -21 b 244 44 253 16 250 31 l -7 718 l 203 718 l 365 226 l 368 226 l 525 718 l 729 718 z "},"z":{"ha":721,"x_min":0,"x_max":0,"o":"m 31 149 l 404 569 l 58 569 l 58 718 l 664 718 l 664 569 l 290 149 l 690 149 l 690 0 l 31 0 z "},"{":{"ha":463,"x_min":0,"x_max":0,"o":"m 463 860 l 388 860 b 348 850 371 860 358 856 b 325 826 338 844 331 835 b 315 793 319 816 316 805 b 313 758 313 781 313 769 l 313 547 b 297 465 313 513 307 485 b 259 416 286 444 273 428 b 214 392 245 404 230 396 b 175 383 198 387 185 384 l 175 379 b 214 370 185 378 198 375 b 259 345 230 365 245 357 b 297 299 273 334 286 318 b 313 226 307 280 313 256 l 313 4 b 315 -29 313 -6 313 -17 b 325 -62 316 -41 319 -52 b 348 -86 331 -72 338 -80 b 388 -96 358 -93 371 -96 l 463 -96 l 463 -251 l 286 -251 b 233 -240 270 -251 253 -247 b 177 -205 213 -232 194 -220 b 133 -147 160 -190 145 -170 b 115 -64 121 -123 115 -95 l 115 206 b 101 260 115 227 111 245 b 68 295 92 275 81 286 b 26 315 55 304 41 310 b -11 321 12 319 -1 321 l -11 442 b 26 448 -1 442 12 444 b 68 469 41 452 55 459 b 101 508 81 478 92 491 b 115 567 111 524 115 544 l 115 828 b 133 910 115 859 121 887 b 177 969 145 934 160 953 b 233 1003 194 984 213 996 b 286 1015 253 1011 270 1015 l 463 1015 z "},"|":{"ha":310,"x_min":0,"x_max":0,"o":"m 81 1092 l 229 1092 l 229 -296 l 81 -296 z "},"}":{"ha":463,"x_min":0,"x_max":0,"o":"m 0 -96 l 75 -96 b 115 -86 92 -96 105 -93 b 138 -62 124 -80 132 -72 b 148 -29 143 -52 147 -41 b 150 4 149 -17 150 -6 l 150 226 b 166 299 150 256 155 280 b 203 345 177 318 189 334 b 249 370 218 357 233 365 b 288 379 264 375 277 378 l 288 383 b 249 392 277 384 264 387 b 203 416 233 396 218 404 b 166 465 189 428 177 444 b 150 547 155 485 150 513 l 150 758 b 148 793 150 769 149 781 b 138 826 147 805 143 816 b 115 850 132 835 124 844 b 75 860 105 856 92 860 l 0 860 l 0 1015 l 176 1015 b 230 1003 192 1015 210 1011 b 285 969 250 996 268 984 b 329 910 303 953 317 934 b 347 828 341 887 347 859 l 347 567 b 361 508 347 544 352 524 b 394 469 370 491 381 478 b 436 448 407 459 421 452 b 475 442 451 444 464 442 l 475 321 b 436 315 464 321 451 319 b 394 295 421 310 407 304 b 361 260 381 286 370 275 b 347 206 352 245 347 227 l 347 -64 b 329 -147 347 -95 341 -123 b 285 -205 317 -170 303 -190 b 230 -240 268 -220 250 -232 b 176 -251 210 -247 192 -251 l 0 -251 z "},"~":{"ha":833,"x_min":0,"x_max":0,"o":"m 740 349 b 708 305 730 334 719 319 b 671 267 697 291 685 278 b 624 240 657 256 641 247 b 567 229 607 233 588 229 b 494 242 541 229 516 234 b 425 275 471 251 448 262 b 353 309 403 288 379 299 b 265 324 327 319 298 324 b 225 315 250 324 237 321 b 192 292 213 309 202 301 b 167 260 183 282 174 272 b 149 224 160 248 154 236 l 93 353 b 119 397 100 368 109 382 b 156 435 130 411 142 424 b 205 462 171 446 187 455 b 267 472 223 469 244 472 b 342 459 291 472 316 468 b 421 428 368 450 394 440 b 497 394 447 417 472 406 b 563 378 522 383 544 378 b 601 387 576 378 589 381 b 633 410 612 393 623 400 b 660 442 642 419 651 430 l 685 478 z "}," ":{"ha":386,"x_min":0,"x_max":0,"o":""},"¡":{"ha":386,"x_min":0,"x_max":0,"o":"m 90 13 l 144 440 l 243 440 l 296 13 l 296 -253 l 90 -253 z m 303 524 l 85 524 l 85 738 l 303 738 z "},"¢":{"ha":772,"x_min":0,"x_max":0,"o":"m 361 -18 b 225 16 311 -15 266 -4 b 120 95 184 36 149 62 b 53 209 91 128 69 166 b 29 347 37 252 29 298 b 51 494 29 400 36 449 b 115 615 65 540 86 580 b 219 699 143 649 178 677 b 361 738 260 720 307 733 l 361 856 l 443 856 l 443 738 b 555 718 481 738 518 731 b 653 663 591 705 624 687 b 724 577 683 640 706 611 b 754 464 742 543 752 506 l 561 464 b 524 549 558 497 546 526 b 443 589 501 573 475 586 l 443 129 b 490 148 460 132 475 138 b 528 183 505 158 518 169 b 554 230 539 197 548 213 b 564 282 561 247 564 264 l 757 282 b 726 162 753 238 743 197 b 658 70 709 126 686 96 b 562 10 631 45 598 25 b 443 -18 525 -5 486 -14 l 443 -158 l 361 -158 z m 361 588 b 298 556 336 581 315 570 b 256 503 281 541 267 523 b 233 438 246 484 238 462 b 226 367 229 415 226 391 b 233 292 226 342 229 317 b 256 223 238 268 245 245 b 297 166 266 201 279 182 b 361 129 314 150 335 138 z "},"£":{"ha":772,"x_min":0,"x_max":0,"o":"m 36 106 b 94 148 56 118 75 132 b 144 201 113 164 129 182 b 179 265 158 221 170 242 b 193 336 188 287 193 311 b 185 383 193 352 191 367 b 167 429 180 398 174 413 l 29 429 l 29 547 l 118 547 b 76 625 104 565 90 591 b 56 739 63 659 56 697 b 78 844 56 776 63 811 b 146 933 94 878 116 907 b 257 993 175 958 213 978 b 411 1015 301 1008 353 1015 b 660 926 518 1015 600 986 b 749 668 719 867 749 781 l 561 668 b 556 720 560 682 558 699 b 537 781 553 741 547 761 b 492 831 527 800 512 817 b 410 853 472 846 445 853 b 310 818 368 853 335 841 b 274 725 286 795 274 764 b 275 693 274 714 274 703 b 281 658 276 683 278 671 b 298 611 284 644 290 629 b 331 547 306 594 317 572 l 515 547 l 515 429 l 369 429 b 378 388 374 415 377 401 b 381 343 380 374 381 359 b 347 231 381 300 369 262 b 267 149 324 200 297 173 l 269 146 b 324 172 292 160 310 169 b 364 178 337 176 351 178 b 419 173 382 178 401 176 b 474 163 437 170 455 166 b 528 151 492 158 510 154 b 582 146 545 147 563 146 b 638 156 600 146 619 149 b 704 206 657 162 679 179 l 788 65 b 681 -3 754 33 719 10 b 571 -22 643 -16 606 -22 b 483 -15 536 -22 506 -20 b 419 1 460 -11 439 -5 b 358 21 399 9 379 15 b 282 29 338 26 313 29 b 203 19 257 29 231 26 b 122 -22 176 12 149 -2 z "},"¤":{"ha":772,"x_min":0,"x_max":0,"o":"m 389 682 b 313 665 360 682 335 676 b 257 622 290 654 272 640 b 224 559 242 603 231 583 b 213 485 216 535 213 511 b 224 412 212 460 216 435 b 257 349 231 388 242 367 b 312 306 272 331 290 317 b 388 290 334 296 359 290 b 463 307 416 290 441 296 b 515 351 484 318 501 333 b 547 415 529 370 540 391 b 557 488 553 438 557 463 b 547 559 557 512 553 535 b 515 622 540 583 529 603 b 463 665 501 640 484 654 b 389 682 441 676 417 682 z m 107 288 b 40 485 63 339 40 405 b 56 597 40 524 46 561 b 107 685 67 632 84 662 l 28 765 l 107 844 l 186 767 b 276 813 209 786 239 802 b 389 831 312 825 350 831 b 496 813 426 831 462 825 b 579 768 530 802 558 787 l 660 847 l 744 763 l 667 686 b 713 599 687 664 703 635 b 729 488 724 564 729 526 b 713 376 729 449 724 412 b 665 285 703 341 687 311 l 742 207 l 665 131 l 586 211 b 499 160 563 189 534 172 b 388 142 463 148 426 142 b 272 159 346 142 307 147 b 183 210 237 171 207 188 l 106 129 l 28 207 z "},"¥":{"ha":772,"x_min":0,"x_max":0,"o":"m 288 0 l 288 192 l 69 192 l 69 324 l 288 324 l 288 388 l 268 428 l 69 428 l 69 560 l 201 560 l -11 992 l 214 992 l 397 560 l 576 992 l 801 992 l 586 560 l 718 560 l 718 428 l 519 428 l 499 388 l 499 324 l 718 324 l 718 192 l 499 192 l 499 0 z "},"¦":{"ha":310,"x_min":0,"x_max":0,"o":"m 229 571 l 81 571 l 81 918 l 229 918 z m 81 224 l 229 224 l 229 -122 l 81 -122 z "},"§":{"ha":772,"x_min":0,"x_max":0,"o":"m 514 747 b 483 833 514 781 503 810 b 396 867 462 855 433 867 b 324 843 371 867 347 859 b 290 778 302 827 290 806 b 326 710 291 752 303 729 b 413 656 350 691 378 673 b 526 603 448 638 486 620 b 639 541 567 585 605 565 b 724 459 673 517 702 490 b 758 347 747 428 758 391 b 719 222 758 300 745 258 b 614 144 694 186 658 160 b 672 72 641 124 660 100 b 690 -18 684 44 690 14 b 664 -120 690 -57 681 -91 b 595 -193 646 -149 623 -174 b 500 -237 567 -212 535 -227 b 394 -251 465 -247 430 -251 b 271 -235 350 -251 309 -246 b 172 -187 233 -225 200 -209 b 106 -103 143 -165 121 -137 b 82 17 90 -70 82 -30 l 254 17 b 292 -73 256 -23 269 -53 b 390 -103 316 -93 349 -103 b 463 -80 419 -103 443 -95 b 493 -11 483 -65 493 -42 b 460 58 494 16 483 39 b 372 114 437 78 407 96 b 257 167 337 131 299 149 b 140 231 215 185 176 206 b 50 315 104 255 74 283 b 14 432 26 348 14 387 b 53 558 14 482 27 524 b 163 635 79 593 115 618 b 118 699 143 656 128 677 b 103 775 108 720 103 745 b 128 878 103 814 111 848 b 195 954 146 909 168 934 b 288 1000 222 975 253 990 b 393 1015 323 1010 358 1015 b 508 998 434 1015 472 1009 b 601 946 543 986 574 969 b 663 862 627 923 648 895 b 686 747 678 829 686 791 z m 294 528 b 277 538 289 531 283 534 b 257 542 271 541 264 543 b 228 531 247 541 237 537 b 206 509 220 525 212 518 b 192 480 200 500 195 491 b 186 449 188 469 186 459 b 197 411 186 436 190 423 b 231 381 203 399 215 389 l 481 244 b 499 238 485 243 491 241 b 522 235 506 236 514 235 b 548 242 531 235 540 237 b 568 262 556 247 562 254 b 581 287 574 270 578 278 b 586 311 584 296 586 304 b 567 364 586 332 580 350 b 524 399 555 378 540 389 z "},"¨":{"ha":360,"x_min":0,"x_max":0,"o":"m 131 992 l -56 992 l -56 829 l 131 829 z m 417 992 l 229 992 l 229 829 l 417 829 z "},"©":{"ha":1111,"x_min":0,"x_max":0,"o":"m 828 410 b 797 317 822 375 812 345 b 740 248 781 290 762 267 b 663 205 717 229 691 215 b 575 190 635 195 606 190 b 452 214 530 190 489 198 b 358 279 416 230 384 251 b 298 377 332 307 312 340 b 276 499 284 415 276 455 b 297 622 276 543 283 584 b 355 721 310 660 329 693 b 448 786 380 749 411 770 b 572 810 484 802 526 810 b 663 796 605 810 635 805 b 739 755 691 787 717 773 b 794 688 761 737 780 714 b 824 594 809 661 819 630 l 715 594 b 665 671 708 627 691 652 b 572 699 639 689 608 699 b 451 644 519 699 479 680 b 410 501 424 607 410 560 b 422 424 410 475 414 449 b 455 360 429 400 441 378 b 507 317 469 342 487 328 b 575 301 527 307 550 301 b 671 331 614 301 646 311 b 715 410 696 350 711 376 z m 164 496 b 194 332 164 437 174 382 b 278 203 215 282 243 239 b 402 118 313 167 354 138 b 556 88 450 98 501 88 b 708 118 609 87 660 98 b 832 203 755 138 797 167 b 916 332 867 239 895 282 b 947 496 937 382 947 437 b 916 660 947 555 937 610 b 832 789 895 710 867 753 b 708 874 797 825 755 853 b 556 904 660 894 609 904 b 402 874 501 904 450 894 b 278 789 354 853 313 825 b 194 660 243 753 215 710 b 164 496 174 610 164 555 z m 22 496 b 66 711 22 575 37 647 b 183 874 95 775 134 829 b 353 978 232 919 289 954 b 556 1015 418 1003 485 1015 b 758 978 626 1015 693 1003 b 928 874 822 954 879 919 b 1045 711 977 829 1016 775 b 1089 496 1074 647 1089 575 b 1045 282 1089 417 1074 346 b 928 118 1016 218 977 163 b 758 14 879 73 822 38 b 556 -22 693 -10 626 -22 b 353 14 485 -22 418 -10 b 183 118 289 38 232 73 b 66 282 134 163 95 218 b 22 496 37 346 22 417 z "},"ª":{"ha":478,"x_min":0,"x_max":0,"o":"m 28 840 b 55 915 32 871 41 896 b 104 961 68 935 85 950 b 169 985 124 972 145 980 b 244 992 194 989 219 992 b 318 987 269 992 293 990 b 385 969 343 984 366 978 b 434 931 405 960 422 947 b 453 868 447 915 453 894 l 453 638 b 469 533 453 589 458 555 l 329 533 b 324 555 327 541 325 548 b 319 576 322 562 320 569 b 248 533 299 555 275 541 b 169 521 221 525 194 521 b 59 553 126 521 89 532 b 14 660 29 575 14 611 b 28 723 14 686 19 707 b 64 762 37 739 49 752 b 115 783 79 772 96 779 b 172 794 134 788 153 792 b 231 801 194 797 213 799 b 278 808 249 802 265 804 b 309 822 291 811 301 816 b 321 847 317 828 321 836 b 297 892 321 871 313 886 b 238 901 280 898 261 901 b 193 887 222 901 207 897 b 169 840 179 877 171 862 z m 319 743 b 276 726 309 734 295 728 b 226 718 257 723 240 721 b 176 700 207 713 190 707 b 156 663 163 693 156 680 b 177 622 156 642 163 628 b 218 611 191 615 205 611 b 273 622 241 611 259 615 b 303 647 286 628 297 637 b 317 681 310 657 315 669 b 319 715 319 693 319 704 z "},"«":{"ha":617,"x_min":0,"x_max":0,"o":"m 58 285 l 58 472 l 276 643 l 276 476 l 151 378 l 276 278 l 276 111 z m 340 285 l 340 472 l 558 643 l 558 476 l 433 378 l 558 278 l 558 111 z "},"¬":{"ha":833,"x_min":0,"x_max":0,"o":"m 767 138 l 618 138 l 618 415 l 67 415 l 67 564 l 767 564 z "},"­":{"ha":565,"x_min":0,"x_max":0,"o":"m 74 464 l 74 294 l 492 294 l 492 464 z "},"®":{"ha":1111,"x_min":0,"x_max":0,"o":"m 464 546 l 567 546 b 649 560 600 546 627 550 b 681 626 670 569 681 591 b 669 664 681 642 677 655 b 641 685 662 673 653 680 b 602 696 629 691 616 694 b 561 699 588 698 574 699 l 464 699 z m 349 789 l 568 789 b 737 750 641 789 697 776 b 796 617 776 724 796 680 b 784 548 796 590 792 567 b 751 501 776 529 765 513 b 703 474 738 489 721 480 b 643 461 684 467 664 463 l 799 207 l 678 207 l 536 456 l 464 456 l 464 207 l 349 207 z m 164 497 b 194 333 164 438 174 383 b 278 203 215 283 243 240 b 402 118 313 167 354 138 b 556 88 450 98 501 88 b 708 118 609 87 660 98 b 832 203 755 138 797 167 b 916 333 867 240 895 283 b 947 497 937 383 947 438 b 916 660 947 556 937 611 b 832 789 895 710 867 753 b 708 874 797 825 755 853 b 556 904 660 894 609 904 b 402 874 501 904 450 894 b 278 789 354 853 313 825 b 194 660 243 753 215 710 b 164 497 174 611 164 556 z m 22 497 b 66 711 22 576 37 647 b 183 874 95 775 134 829 b 353 978 232 919 289 954 b 556 1015 418 1003 485 1015 b 758 978 626 1015 693 1003 b 928 874 822 954 879 919 b 1045 711 977 829 1016 775 b 1089 497 1074 647 1089 576 b 1045 282 1089 418 1074 346 b 928 118 1016 218 977 163 b 758 14 879 73 822 38 b 556 -22 693 -10 626 -22 b 353 14 485 -22 418 -10 b 183 118 289 38 232 73 b 66 282 134 163 95 218 b 22 497 37 346 22 418 z "},"¯":{"ha":360,"x_min":0,"x_max":0,"o":"m 439 960 l -78 960 l -78 856 l 439 856 z "},"°":{"ha":556,"x_min":0,"x_max":0,"o":"m 163 786 b 172 739 162 769 166 754 b 198 700 179 724 187 711 b 235 674 209 689 221 680 b 278 664 249 667 263 664 b 321 674 293 664 307 667 b 358 700 335 680 347 689 b 383 739 368 711 377 724 b 393 786 390 754 393 769 b 383 833 393 803 390 819 b 358 872 377 848 368 861 b 321 899 347 883 335 892 b 278 908 307 905 293 908 b 235 899 263 908 249 905 b 198 872 221 892 209 883 b 172 833 187 861 179 848 b 163 786 166 819 163 803 z m 72 786 b 88 867 72 815 78 842 b 132 932 99 892 113 913 b 197 976 150 950 172 965 b 278 992 222 986 249 992 b 358 976 306 992 333 986 b 424 932 383 965 405 950 b 467 867 442 913 457 892 b 483 786 478 842 483 815 b 467 706 483 757 478 731 b 424 640 457 681 442 659 b 358 597 405 622 383 607 b 278 581 333 586 306 581 b 197 597 249 581 222 586 b 132 640 172 607 150 622 b 88 706 113 659 99 681 b 72 786 78 731 72 757 z "},"±":{"ha":833,"x_min":0,"x_max":0,"o":"m 67 149 l 768 149 l 768 0 l 67 0 z m 492 521 l 768 521 l 768 372 l 492 372 l 492 190 l 343 190 l 343 372 l 67 372 l 67 521 l 343 521 l 343 703 l 492 703 z "},"²":{"ha":544,"x_min":0,"x_max":0,"o":"m 39 750 b 100 924 38 821 58 879 b 290 992 142 969 205 992 b 374 980 320 992 348 988 b 442 944 400 972 422 960 b 490 885 462 929 478 909 b 507 804 501 862 507 835 b 474 698 507 760 496 724 b 394 628 453 672 426 648 b 297 567 363 607 331 587 b 211 490 264 547 235 522 l 501 490 l 501 379 l 38 379 b 53 474 38 416 43 448 b 94 545 63 501 77 524 b 156 601 112 566 133 585 b 232 651 180 618 205 635 b 276 679 246 661 260 670 b 319 710 291 688 305 699 b 352 747 332 721 343 733 b 365 794 361 761 365 777 b 342 856 365 819 358 839 b 281 881 327 872 306 881 b 232 868 261 881 245 876 b 201 836 219 860 209 849 b 184 794 193 823 187 809 b 181 750 181 778 180 764 z "},"³":{"ha":544,"x_min":0,"x_max":0,"o":"m 228 742 b 270 742 241 742 255 742 b 313 749 285 743 300 745 b 347 769 327 753 338 760 b 360 807 355 778 360 790 b 333 861 360 830 351 848 b 274 881 316 874 296 881 b 204 851 244 881 221 871 b 181 781 188 832 180 808 l 47 781 b 109 935 49 845 70 897 b 272 992 148 973 203 992 b 353 981 300 992 327 988 b 424 949 380 974 403 964 b 474 896 445 935 462 917 b 493 821 487 875 493 850 b 470 746 493 793 485 768 b 401 701 455 724 432 709 l 401 699 b 484 653 437 692 464 677 b 514 568 504 629 514 600 b 494 481 514 535 507 506 b 442 417 481 456 464 434 b 366 379 421 400 395 388 b 274 367 337 371 306 367 b 94 424 199 367 139 386 b 31 589 50 462 29 517 l 164 589 b 192 511 166 559 175 533 b 271 478 209 489 236 478 b 342 502 299 478 322 486 b 372 565 362 518 372 539 b 358 611 372 585 368 600 b 323 635 349 622 337 630 b 276 643 309 639 293 642 b 228 644 260 644 244 644 z "},"´":{"ha":360,"x_min":0,"x_max":0,"o":"m 75 807 l 213 807 l 426 1004 l 208 1004 z "},"µ":{"ha":824,"x_min":0,"x_max":0,"o":"m 749 0 l 561 0 l 561 100 l 557 100 b 513 47 544 80 529 62 b 464 10 497 32 481 20 b 416 -11 447 1 431 -6 b 376 -18 401 -16 388 -18 b 310 -9 349 -18 326 -15 b 272 14 293 -3 281 5 l 272 -251 l 75 -251 l 75 718 l 272 718 l 272 313 b 300 180 272 253 281 209 b 399 136 319 151 351 136 b 515 184 452 136 491 152 b 551 342 539 216 551 269 l 551 718 l 749 718 z "},"¶":{"ha":861,"x_min":0,"x_max":0,"o":"m 307 496 b 81 561 209 496 134 518 b 3 739 29 605 3 664 b 28 860 3 787 11 827 b 97 938 44 892 68 918 b 203 979 127 957 162 971 b 336 992 244 988 288 992 l 743 992 l 743 -229 l 601 -229 l 601 881 l 449 881 l 449 -229 l 307 -229 z "},"·":{"ha":386,"x_min":0,"x_max":0,"o":"m 76 399 b 112 483 76 432 88 460 b 194 517 135 505 163 517 b 239 508 210 517 225 514 b 276 483 253 502 265 493 b 301 445 286 472 295 459 b 311 399 308 431 311 415 b 301 356 311 384 308 369 b 276 318 295 342 287 329 b 240 292 266 307 254 298 b 196 282 226 285 212 282 b 149 291 179 282 164 285 b 112 316 135 297 122 305 b 86 353 101 327 93 339 b 76 399 80 368 76 383 z "},"¸":{"ha":360,"x_min":0,"x_max":0,"o":"m 46 -204 b 97 -222 61 -211 78 -216 b 163 -229 117 -227 138 -229 b 203 -218 179 -229 193 -225 b 218 -182 213 -211 218 -199 b 202 -147 218 -164 213 -153 b 163 -137 191 -141 178 -137 b 107 -147 142 -137 124 -141 l 78 -114 l 160 3 l 228 3 l 174 -72 l 176 -72 b 224 -65 188 -68 203 -65 b 270 -71 239 -65 255 -67 b 311 -88 285 -75 299 -80 b 340 -119 323 -96 333 -106 b 351 -162 348 -131 351 -146 b 338 -230 351 -189 347 -212 b 301 -273 328 -248 316 -262 b 249 -295 285 -284 268 -291 b 189 -301 229 -299 209 -301 b 132 -299 167 -301 148 -301 b 90 -293 116 -298 102 -296 b 53 -283 77 -290 65 -287 b 17 -271 42 -280 30 -275 z "},"¹":{"ha":544,"x_min":0,"x_max":0,"o":"m 401 379 l 260 379 l 260 760 l 107 760 l 107 864 b 170 868 129 863 150 864 b 224 887 190 872 208 878 b 265 923 241 896 254 908 b 285 979 275 938 282 957 l 401 979 z "},"º":{"ha":510,"x_min":0,"x_max":0,"o":"m 165 756 b 170 710 165 741 167 725 b 186 667 173 694 179 680 b 214 637 194 655 203 645 b 254 625 225 629 238 625 b 295 637 270 625 284 629 b 324 667 307 645 316 655 b 340 710 331 680 336 694 b 344 756 343 725 344 741 b 340 803 344 771 343 787 b 324 845 336 819 331 833 b 295 876 316 858 307 868 b 254 888 284 884 270 888 b 214 876 238 888 225 884 b 186 845 203 868 194 858 b 170 803 179 833 173 819 b 165 756 167 787 165 771 z m 17 756 b 81 928 17 829 38 886 b 254 992 124 971 182 992 b 428 928 326 992 384 971 b 493 756 471 886 493 829 b 428 583 493 682 471 625 b 254 521 384 542 326 521 b 81 583 182 521 124 542 b 17 756 38 625 17 682 z "},"»":{"ha":617,"x_min":0,"x_max":0,"o":"m 276 472 l 276 285 l 58 111 l 58 278 l 183 378 l 58 476 l 58 643 z m 558 472 l 558 285 l 340 111 l 340 278 l 465 378 l 340 476 l 340 643 z "},"¼":{"ha":1239,"x_min":0,"x_max":0,"o":"m 957 435 l 954 435 l 796 235 l 957 235 z m 957 124 l 690 124 l 690 253 l 951 583 l 1090 583 l 1090 235 l 1169 235 l 1169 124 l 1090 124 l 1090 0 l 957 0 z m 328 379 l 186 379 l 186 760 l 33 760 l 33 864 b 97 868 56 863 77 864 b 151 887 116 872 134 878 b 191 923 167 896 180 908 b 211 979 202 938 208 957 l 328 979 z m 786 1003 l 904 1003 l 332 -29 l 211 -29 z "},"½":{"ha":1235,"x_min":0,"x_max":0,"o":"m 707 371 b 768 545 706 442 726 500 b 958 613 810 590 873 613 b 1042 601 988 613 1016 609 b 1110 565 1068 593 1091 581 b 1158 506 1130 550 1146 530 b 1175 425 1169 483 1175 456 b 1142 319 1175 381 1164 345 b 1063 249 1121 292 1094 269 b 965 188 1031 228 999 208 b 879 111 932 168 903 143 l 1169 111 l 1169 0 l 706 0 b 721 95 706 37 711 69 b 763 166 731 122 745 145 b 824 222 780 187 801 206 b 900 272 848 239 873 256 b 944 300 914 281 928 291 b 987 331 959 309 973 319 b 1020 368 1000 342 1011 354 b 1033 415 1029 382 1033 398 b 1010 476 1033 439 1026 460 b 949 501 995 493 975 501 b 900 489 929 501 913 497 b 869 457 887 481 877 470 b 852 415 861 444 855 430 b 849 371 849 399 848 385 z m 328 379 l 186 379 l 186 760 l 33 760 l 33 864 b 97 868 56 863 77 864 b 151 887 116 872 134 878 b 191 923 167 896 180 908 b 211 979 202 938 208 957 l 328 979 z m 786 1003 l 904 1003 l 332 -29 l 211 -29 z "},"¾":{"ha":1235,"x_min":0,"x_max":0,"o":"m 985 435 l 982 435 l 824 235 l 985 235 z m 985 124 l 718 124 l 718 253 l 979 583 l 1118 583 l 1118 235 l 1197 235 l 1197 124 l 1118 124 l 1118 0 l 985 0 z m 251 742 b 294 742 264 742 278 742 b 337 749 309 743 323 745 b 370 769 350 753 361 760 b 383 807 379 778 383 790 b 357 861 383 830 375 848 b 297 881 339 874 319 881 b 228 851 268 881 244 871 b 204 781 211 832 203 808 l 71 781 b 133 935 73 845 93 897 b 296 992 172 973 226 992 b 377 981 324 992 351 988 b 448 949 403 974 427 964 b 498 896 469 935 485 917 b 517 821 510 875 517 850 b 494 746 517 793 509 768 b 425 701 478 724 456 709 l 425 699 b 508 653 460 692 488 677 b 538 568 528 629 538 600 b 518 481 538 535 531 506 b 466 417 505 456 488 434 b 390 379 444 400 419 388 b 297 367 360 371 330 367 b 118 424 222 367 163 386 b 54 589 74 462 52 517 l 188 589 b 216 511 189 559 199 533 b 294 478 233 489 259 478 b 366 502 322 478 346 486 b 396 565 386 518 396 539 b 382 611 396 585 391 600 b 347 635 373 622 361 630 b 300 643 332 639 317 642 b 251 644 283 644 267 644 z m 907 1003 l 1025 1003 l 453 -29 l 332 -29 z "},"¿":{"ha":772,"x_min":0,"x_max":0,"o":"m 504 524 l 286 524 l 286 738 l 504 738 z m 725 71 b 699 -65 724 22 716 -24 b 631 -174 683 -107 660 -143 b 526 -245 602 -204 567 -228 b 390 -271 486 -262 440 -271 b 226 -244 325 -271 271 -262 b 119 -176 182 -226 146 -203 b 62 -90 93 -150 73 -121 b 44 -3 50 -59 44 -30 b 62 106 44 41 50 77 b 106 179 73 134 88 159 b 163 231 123 200 142 217 b 222 274 183 244 203 259 b 271 324 241 288 257 305 b 297 393 285 342 294 365 l 297 446 l 485 446 l 485 383 b 462 283 482 344 474 310 b 418 215 449 256 435 234 b 365 165 401 196 384 179 b 314 124 347 151 330 138 b 276 78 298 110 285 94 b 263 15 266 61 262 40 b 294 -78 263 -26 273 -57 b 381 -108 315 -98 344 -108 b 443 -94 405 -108 425 -103 b 487 -55 461 -84 475 -71 b 513 2 498 -39 507 -20 b 521 71 518 24 521 47 z "},"À":{"ha":951,"x_min":0,"x_max":0,"o":"m 229 1278 l 447 1278 l 581 1081 l 443 1081 z m 346 383 l 603 383 l 478 747 l 475 747 z m 367 992 l 590 992 l 961 0 l 735 0 l 660 221 l 289 221 l 211 0 l -8 0 z "},"Á":{"ha":951,"x_min":0,"x_max":0,"o":"m 508 1081 l 371 1081 l 504 1278 l 722 1278 z m 346 383 l 603 383 l 478 747 l 475 747 z m 367 992 l 590 992 l 961 0 l 735 0 l 660 221 l 289 221 l 211 0 l -8 0 z "},"Â":{"ha":951,"x_min":0,"x_max":0,"o":"m 386 1278 l 567 1278 l 719 1081 l 557 1081 l 471 1193 l 382 1081 l 232 1081 z m 346 383 l 603 383 l 478 747 l 475 747 z m 367 992 l 590 992 l 961 0 l 735 0 l 660 221 l 289 221 l 211 0 l -8 0 z "},"Ã":{"ha":951,"x_min":0,"x_max":0,"o":"m 731 1265 b 715 1214 726 1250 721 1232 b 688 1163 709 1195 700 1178 b 644 1123 677 1147 662 1134 b 575 1107 626 1112 603 1107 b 515 1115 554 1107 534 1109 b 461 1131 497 1120 479 1125 b 411 1147 444 1137 427 1143 b 364 1154 395 1152 380 1154 b 324 1138 345 1154 332 1149 b 306 1096 316 1128 310 1113 l 221 1096 b 239 1156 225 1116 231 1136 b 269 1210 246 1176 256 1194 b 319 1250 282 1227 299 1240 b 396 1265 340 1260 365 1265 b 441 1258 412 1265 427 1263 b 485 1242 455 1253 470 1247 b 530 1224 500 1235 515 1229 b 576 1217 545 1219 561 1217 b 622 1231 598 1217 613 1222 b 635 1265 631 1241 636 1252 z m 346 383 l 603 383 l 478 747 l 475 747 z m 367 992 l 590 992 l 961 0 l 735 0 l 660 221 l 289 221 l 211 0 l -8 0 z "},"Ä":{"ha":951,"x_min":0,"x_max":0,"o":"m 239 1265 l 426 1265 l 426 1103 l 239 1103 z m 525 1265 l 713 1265 l 713 1103 l 525 1103 z m 346 383 l 603 383 l 478 747 l 475 747 z m 367 992 l 590 992 l 961 0 l 735 0 l 660 221 l 289 221 l 211 0 l -8 0 z "},"Å":{"ha":951,"x_min":0,"x_max":0,"o":"m 304 1157 b 317 1091 304 1134 309 1112 b 353 1037 326 1070 338 1052 b 408 1001 369 1022 387 1009 b 474 988 428 992 450 988 b 540 1001 498 987 520 992 b 594 1037 561 1009 579 1022 b 631 1091 610 1052 622 1070 b 644 1157 640 1112 644 1134 b 631 1224 644 1181 640 1203 b 594 1277 622 1244 610 1262 b 540 1313 579 1292 561 1304 b 474 1326 520 1322 498 1326 b 408 1313 450 1326 428 1322 b 353 1277 387 1304 369 1292 b 317 1224 338 1262 326 1244 b 304 1157 309 1203 304 1181 z m 386 1157 b 410 1226 386 1184 394 1207 b 474 1254 425 1245 447 1254 b 538 1226 500 1254 522 1245 b 563 1157 554 1207 562 1184 b 538 1088 563 1130 554 1107 b 474 1060 522 1069 500 1060 b 410 1088 447 1060 425 1069 b 386 1157 394 1107 386 1130 z m 603 383 l 346 383 l 475 747 l 478 747 z m 590 992 l 367 992 l -8 0 l 211 0 l 289 221 l 660 221 l 735 0 l 961 0 z "},"Æ":{"ha":1363,"x_min":0,"x_max":0,"o":"m 458 992 l 1300 992 l 1300 808 l 839 808 l 839 596 l 1272 596 l 1272 426 l 839 426 l 839 183 l 1311 183 l 1311 0 l 628 0 l 628 221 l 317 221 l 217 0 l -14 0 z m 389 383 l 628 383 l 628 808 l 581 808 z "},"Ç":{"ha":1029,"x_min":0,"x_max":0,"o":"m 757 658 b 732 727 753 683 745 706 b 683 782 719 748 703 766 b 617 819 664 798 642 810 b 540 832 593 828 567 832 b 415 803 491 832 450 822 b 332 727 381 784 353 759 b 285 618 311 695 295 659 b 271 492 276 577 271 535 b 285 370 271 450 276 409 b 332 264 295 331 311 295 b 415 188 353 232 381 207 b 540 160 450 169 491 160 b 697 221 607 160 659 180 b 765 382 734 262 757 315 l 976 382 b 933 215 971 320 956 264 b 842 88 910 165 880 123 b 710 8 805 53 761 27 b 544 -22 660 -11 605 -21 l 508 -72 l 511 -72 b 558 -65 522 -68 538 -65 b 605 -71 574 -65 590 -67 b 646 -88 620 -75 634 -80 b 675 -119 658 -96 668 -106 b 686 -162 682 -131 686 -146 b 672 -230 686 -189 681 -212 b 635 -273 663 -248 651 -262 b 583 -295 620 -284 603 -291 b 524 -301 564 -299 544 -301 b 467 -299 501 -301 482 -301 b 424 -293 451 -298 437 -296 b 388 -283 412 -290 400 -287 b 351 -271 377 -280 364 -275 l 381 -204 b 432 -222 395 -211 412 -216 b 497 -229 451 -227 473 -229 b 538 -218 514 -229 527 -225 b 553 -182 548 -211 553 -199 b 537 -147 553 -164 547 -153 b 497 -137 526 -141 513 -137 b 442 -147 477 -137 458 -141 l 413 -114 l 479 -18 b 299 35 412 -12 351 6 b 165 147 246 65 201 102 b 81 303 128 193 100 245 b 53 492 62 362 53 425 b 86 698 53 566 64 634 b 182 864 108 761 140 817 b 335 975 224 911 275 948 b 540 1015 396 1002 464 1015 b 695 992 595 1015 647 1007 b 826 923 744 976 787 953 b 921 811 864 893 896 856 b 968 658 946 767 962 716 z "},"È":{"ha":900,"x_min":0,"x_max":0,"o":"m 204 1278 l 422 1278 l 556 1081 l 418 1081 z m 96 992 l 838 992 l 838 808 l 314 808 l 314 596 l 794 596 l 794 426 l 314 426 l 314 183 l 849 183 l 849 0 l 96 0 z "},"É":{"ha":900,"x_min":0,"x_max":0,"o":"m 483 1081 l 346 1081 l 479 1278 l 697 1278 z m 96 992 l 838 992 l 838 808 l 314 808 l 314 596 l 794 596 l 794 426 l 314 426 l 314 183 l 849 183 l 849 0 l 96 0 z "},"Ê":{"ha":900,"x_min":0,"x_max":0,"o":"m 361 1278 l 542 1278 l 694 1081 l 532 1081 l 446 1193 l 357 1081 l 207 1081 z m 96 992 l 838 992 l 838 808 l 314 808 l 314 596 l 794 596 l 794 426 l 314 426 l 314 183 l 849 183 l 849 0 l 96 0 z "},"Ë":{"ha":900,"x_min":0,"x_max":0,"o":"m 214 1265 l 401 1265 l 401 1103 l 214 1103 z m 500 1265 l 688 1265 l 688 1103 l 500 1103 z m 96 992 l 838 992 l 838 808 l 314 808 l 314 596 l 794 596 l 794 426 l 314 426 l 314 183 l 849 183 l 849 0 l 96 0 z "},"Ì":{"ha":410,"x_min":0,"x_max":0,"o":"m -40 1278 l 176 1278 l 310 1081 l 172 1081 z m 96 992 l 314 992 l 314 0 l 96 0 z "},"Í":{"ha":410,"x_min":0,"x_max":0,"o":"m 238 1081 l 100 1081 l 233 1278 l 451 1278 z m 96 992 l 314 992 l 314 0 l 96 0 z "},"Î":{"ha":410,"x_min":0,"x_max":0,"o":"m 115 1278 l 296 1278 l 449 1081 l 286 1081 l 200 1193 l 111 1081 l -37 1081 z m 96 992 l 314 992 l 314 0 l 96 0 z "},"Ï":{"ha":410,"x_min":0,"x_max":0,"o":"m -31 1265 l 156 1265 l 156 1103 l -31 1103 z m 254 1265 l 442 1265 l 442 1103 l 254 1103 z m 96 992 l 314 992 l 314 0 l 96 0 z "},"Ð":{"ha":1029,"x_min":0,"x_max":0,"o":"m 314 593 l 536 593 l 536 431 l 314 431 l 314 183 l 508 183 b 600 199 540 183 570 188 b 679 249 630 209 656 226 b 735 342 702 273 721 304 b 756 481 749 380 756 426 b 741 616 756 531 751 576 b 693 719 731 656 715 691 b 605 785 671 748 641 770 b 469 808 568 801 523 808 l 314 808 z m 96 432 l 4 432 l 4 593 l 96 593 l 96 992 l 524 992 b 702 961 587 992 647 981 b 845 869 757 941 805 910 b 940 717 885 829 917 778 b 974 501 962 656 974 584 b 946 301 974 429 964 363 b 862 143 927 240 899 188 b 722 38 824 99 778 64 b 524 0 666 13 600 0 l 96 0 z "},"Ñ":{"ha":1029,"x_min":0,"x_max":0,"o":"m 769 1265 b 753 1214 765 1250 759 1232 b 727 1163 747 1195 739 1178 b 683 1123 716 1147 701 1134 b 614 1107 665 1112 642 1107 b 554 1115 593 1107 573 1109 b 500 1131 536 1120 518 1125 b 450 1147 482 1137 466 1143 b 403 1154 434 1152 419 1154 b 363 1138 384 1154 371 1149 b 344 1096 355 1128 349 1113 l 260 1096 b 278 1156 264 1116 270 1136 b 308 1210 285 1176 295 1194 b 358 1250 321 1227 338 1240 b 435 1265 379 1260 404 1265 b 480 1258 450 1265 466 1263 b 524 1242 494 1253 509 1247 b 569 1224 538 1235 553 1229 b 615 1217 584 1219 600 1217 b 661 1231 637 1217 652 1222 b 674 1265 670 1241 675 1252 z m 96 992 l 313 992 l 726 326 l 729 326 l 729 992 l 933 992 l 933 0 l 715 0 l 303 664 l 300 664 l 300 0 l 96 0 z "},"Ò":{"ha":1081,"x_min":0,"x_max":0,"o":"m 294 1278 l 513 1278 l 646 1081 l 508 1081 z m 271 492 b 285 370 271 450 276 409 b 332 264 295 331 311 295 b 415 188 353 232 381 207 b 540 160 450 169 491 160 b 665 188 589 160 631 169 b 749 264 700 207 727 232 b 795 370 770 295 785 331 b 810 492 805 409 810 450 b 795 618 810 535 805 577 b 749 727 785 659 770 695 b 665 803 727 759 700 784 b 540 832 631 822 589 832 b 415 803 491 832 450 822 b 332 727 381 784 353 759 b 285 618 311 695 295 659 b 271 492 276 577 271 535 z m 53 492 b 86 698 53 566 64 634 b 182 864 108 761 140 817 b 335 975 224 911 275 948 b 540 1015 396 1002 464 1015 b 746 975 617 1015 686 1002 b 899 864 806 948 857 911 b 994 698 940 817 972 761 b 1028 492 1017 634 1028 566 b 994 290 1028 419 1017 352 b 899 126 972 227 940 173 b 746 17 857 80 806 44 b 540 -22 686 -9 617 -22 b 335 17 464 -22 396 -9 b 182 126 275 44 224 80 b 86 290 140 173 108 227 b 53 492 64 352 53 419 z "},"Ó":{"ha":1081,"x_min":0,"x_max":0,"o":"m 574 1081 l 436 1081 l 569 1278 l 788 1278 z m 271 492 b 285 370 271 450 276 409 b 332 264 295 331 311 295 b 415 188 353 232 381 207 b 540 160 450 169 491 160 b 665 188 589 160 631 169 b 749 264 700 207 727 232 b 795 370 770 295 785 331 b 810 492 805 409 810 450 b 795 618 810 535 805 577 b 749 727 785 659 770 695 b 665 803 727 759 700 784 b 540 832 631 822 589 832 b 415 803 491 832 450 822 b 332 727 381 784 353 759 b 285 618 311 695 295 659 b 271 492 276 577 271 535 z m 53 492 b 86 698 53 566 64 634 b 182 864 108 761 140 817 b 335 975 224 911 275 948 b 540 1015 396 1002 464 1015 b 746 975 617 1015 686 1002 b 899 864 806 948 857 911 b 994 698 940 817 972 761 b 1028 492 1017 634 1028 566 b 994 290 1028 419 1017 352 b 899 126 972 227 940 173 b 746 17 857 80 806 44 b 540 -22 686 -9 617 -22 b 335 17 464 -22 396 -9 b 182 126 275 44 224 80 b 86 290 140 173 108 227 b 53 492 64 352 53 419 z "},"Ô":{"ha":1081,"x_min":0,"x_max":0,"o":"m 451 1278 l 632 1278 l 785 1081 l 622 1081 l 536 1193 l 447 1081 l 297 1081 z m 271 492 b 285 370 271 450 276 409 b 332 264 295 331 311 295 b 415 188 353 232 381 207 b 540 160 450 169 491 160 b 665 188 589 160 631 169 b 749 264 700 207 727 232 b 795 370 770 295 785 331 b 810 492 805 409 810 450 b 795 618 810 535 805 577 b 749 727 785 659 770 695 b 665 803 727 759 700 784 b 540 832 631 822 589 832 b 415 803 491 832 450 822 b 332 727 381 784 353 759 b 285 618 311 695 295 659 b 271 492 276 577 271 535 z m 53 492 b 86 698 53 566 64 634 b 182 864 108 761 140 817 b 335 975 224 911 275 948 b 540 1015 396 1002 464 1015 b 746 975 617 1015 686 1002 b 899 864 806 948 857 911 b 994 698 940 817 972 761 b 1028 492 1017 634 1028 566 b 994 290 1028 419 1017 352 b 899 126 972 227 940 173 b 746 17 857 80 806 44 b 540 -22 686 -9 617 -22 b 335 17 464 -22 396 -9 b 182 126 275 44 224 80 b 86 290 140 173 108 227 b 53 492 64 352 53 419 z "},"Õ":{"ha":1081,"x_min":0,"x_max":0,"o":"m 796 1265 b 780 1214 791 1250 786 1232 b 753 1163 774 1195 765 1178 b 709 1123 742 1147 727 1134 b 640 1107 691 1112 668 1107 b 581 1115 619 1107 599 1109 b 526 1131 562 1120 544 1125 b 476 1147 509 1137 492 1143 b 429 1154 461 1152 445 1154 b 390 1138 411 1154 397 1149 b 371 1096 382 1128 375 1113 l 286 1096 b 304 1156 291 1116 297 1136 b 335 1210 312 1176 322 1194 b 385 1250 348 1227 364 1240 b 461 1265 405 1260 431 1265 b 506 1258 477 1265 492 1263 b 550 1242 521 1253 535 1247 b 595 1224 565 1235 580 1229 b 642 1217 610 1219 626 1217 b 688 1231 663 1217 678 1222 b 700 1265 697 1241 701 1252 z m 271 492 b 285 370 271 450 276 409 b 332 264 295 331 311 295 b 415 188 353 232 381 207 b 540 160 450 169 491 160 b 665 188 589 160 631 169 b 749 264 700 207 727 232 b 795 370 770 295 785 331 b 810 492 805 409 810 450 b 795 618 810 535 805 577 b 749 727 785 659 770 695 b 665 803 727 759 700 784 b 540 832 631 822 589 832 b 415 803 491 832 450 822 b 332 727 381 784 353 759 b 285 618 311 695 295 659 b 271 492 276 577 271 535 z m 53 492 b 86 698 53 566 64 634 b 182 864 108 761 140 817 b 335 975 224 911 275 948 b 540 1015 396 1002 464 1015 b 746 975 617 1015 686 1002 b 899 864 806 948 857 911 b 994 698 940 817 972 761 b 1028 492 1017 634 1028 566 b 994 290 1028 419 1017 352 b 899 126 972 227 940 173 b 746 17 857 80 806 44 b 540 -22 686 -9 617 -22 b 335 17 464 -22 396 -9 b 182 126 275 44 224 80 b 86 290 140 173 108 227 b 53 492 64 352 53 419 z "},"Ö":{"ha":1081,"x_min":0,"x_max":0,"o":"m 304 1265 l 492 1265 l 492 1103 l 304 1103 z m 590 1265 l 778 1265 l 778 1103 l 590 1103 z m 271 492 b 285 370 271 450 276 409 b 332 264 295 331 311 295 b 415 188 353 232 381 207 b 540 160 450 169 491 160 b 665 188 589 160 631 169 b 749 264 700 207 727 232 b 795 370 770 295 785 331 b 810 492 805 409 810 450 b 795 618 810 535 805 577 b 749 727 785 659 770 695 b 665 803 727 759 700 784 b 540 832 631 822 589 832 b 415 803 491 832 450 822 b 332 727 381 784 353 759 b 285 618 311 695 295 659 b 271 492 276 577 271 535 z m 53 492 b 86 698 53 566 64 634 b 182 864 108 761 140 817 b 335 975 224 911 275 948 b 540 1015 396 1002 464 1015 b 746 975 617 1015 686 1002 b 899 864 806 948 857 911 b 994 698 940 817 972 761 b 1028 492 1017 634 1028 566 b 994 290 1028 419 1017 352 b 899 126 972 227 940 173 b 746 17 857 80 806 44 b 540 -22 686 -9 617 -22 b 335 17 464 -22 396 -9 b 182 126 275 44 224 80 b 86 290 140 173 108 227 b 53 492 64 352 53 419 z "},"×":{"ha":833,"x_min":0,"x_max":0,"o":"m 89 129 l 313 351 l 92 574 l 197 679 l 418 457 l 640 679 l 746 574 l 522 351 l 746 129 l 640 24 l 418 247 l 194 24 z "},"Ø":{"ha":1081,"x_min":0,"x_max":0,"o":"m 363 228 b 438 178 384 206 409 190 b 540 160 467 166 501 160 b 665 188 589 160 631 169 b 749 264 700 207 727 232 b 795 370 770 295 785 331 b 810 492 805 409 810 450 b 801 590 810 525 807 558 b 772 681 795 622 785 652 z m 721 761 b 644 813 700 782 674 800 b 540 832 615 825 580 832 b 415 803 491 832 450 822 b 332 727 381 784 353 759 b 285 618 311 695 295 659 b 271 492 276 577 271 535 b 280 395 271 459 274 427 b 310 304 286 363 296 333 z m 167 146 b 81 304 128 193 99 246 b 53 492 62 363 53 425 b 86 698 53 566 64 634 b 182 864 108 761 140 817 b 335 975 224 911 275 948 b 540 1015 396 1002 464 1015 b 715 988 604 1015 662 1006 b 853 908 767 969 813 943 l 964 1032 l 1033 971 l 917 842 b 999 683 953 794 980 742 b 1028 492 1018 625 1028 561 b 994 290 1028 419 1017 352 b 899 126 972 227 940 173 b 746 17 857 80 806 44 b 540 -22 686 -9 617 -22 b 367 6 476 -22 419 -13 b 231 82 315 24 269 50 l 115 -44 l 47 14 z "},"Ù":{"ha":1029,"x_min":0,"x_max":0,"o":"m 268 1278 l 486 1278 l 619 1081 l 482 1081 z m 938 375 b 825 76 938 241 900 141 b 514 -22 750 10 646 -22 b 202 75 380 -22 276 10 b 92 375 128 140 92 240 l 92 992 l 310 992 l 310 375 b 317 296 310 348 312 322 b 346 227 321 270 331 247 b 408 178 361 207 381 191 b 514 160 434 166 469 160 b 675 212 592 160 645 177 b 719 375 705 247 719 301 l 719 992 l 938 992 z "},"Ú":{"ha":1029,"x_min":0,"x_max":0,"o":"m 547 1081 l 410 1081 l 543 1278 l 761 1278 z m 938 375 b 825 76 938 241 900 141 b 514 -22 750 10 646 -22 b 202 75 380 -22 276 10 b 92 375 128 140 92 240 l 92 992 l 310 992 l 310 375 b 317 296 310 348 312 322 b 346 227 321 270 331 247 b 408 178 361 207 381 191 b 514 160 434 166 469 160 b 675 212 592 160 645 177 b 719 375 705 247 719 301 l 719 992 l 938 992 z "},"Û":{"ha":1029,"x_min":0,"x_max":0,"o":"m 425 1278 l 606 1278 l 758 1081 l 596 1081 l 510 1193 l 421 1081 l 271 1081 z m 938 375 b 825 76 938 241 900 141 b 514 -22 750 10 646 -22 b 202 75 380 -22 276 10 b 92 375 128 140 92 240 l 92 992 l 310 992 l 310 375 b 317 296 310 348 312 322 b 346 227 321 270 331 247 b 408 178 361 207 381 191 b 514 160 434 166 469 160 b 675 212 592 160 645 177 b 719 375 705 247 719 301 l 719 992 l 938 992 z "},"Ü":{"ha":1029,"x_min":0,"x_max":0,"o":"m 278 1265 l 465 1265 l 465 1103 l 278 1103 z m 564 1265 l 751 1265 l 751 1103 l 564 1103 z m 938 375 b 825 76 938 241 900 141 b 514 -22 750 10 646 -22 b 202 75 380 -22 276 10 b 92 375 128 140 92 240 l 92 992 l 310 992 l 310 375 b 317 296 310 348 312 322 b 346 227 321 270 331 247 b 408 178 361 207 381 191 b 514 160 434 166 469 160 b 675 212 592 160 645 177 b 719 375 705 247 719 301 l 719 992 l 938 992 z "},"Ý":{"ha":926,"x_min":0,"x_max":0,"o":"m 496 1081 l 358 1081 l 492 1278 l 710 1278 z m 353 386 l -11 992 l 233 992 l 465 600 l 696 992 l 939 992 l 571 381 l 571 0 l 353 0 z "},"Þ":{"ha":926,"x_min":0,"x_max":0,"o":"m 314 390 l 483 390 b 556 396 508 390 532 392 b 617 417 579 400 599 407 b 659 463 634 428 648 443 b 675 539 670 482 675 507 b 659 615 675 570 670 596 b 617 660 648 635 634 650 b 556 682 599 671 579 678 b 483 688 532 686 508 687 l 314 688 z m 96 992 l 314 992 l 314 857 l 543 857 b 701 830 605 857 658 848 b 808 758 745 812 780 788 b 867 657 835 729 855 695 b 886 539 880 619 886 580 b 867 422 886 499 880 460 b 808 319 855 383 835 349 b 701 248 780 290 745 266 b 543 221 658 230 605 221 l 314 221 l 314 0 l 96 0 z "},"ß":{"ha":849,"x_min":0,"x_max":0,"o":"m 78 682 b 90 799 78 721 82 760 b 137 906 97 839 113 874 b 236 985 160 938 194 964 b 404 1015 279 1005 335 1015 b 524 999 446 1015 486 1010 b 624 951 562 989 595 972 b 694 868 653 929 677 901 b 719 749 711 835 719 795 b 684 628 719 704 708 664 b 590 556 660 592 629 568 l 590 553 b 669 520 621 546 647 535 b 726 464 692 505 710 486 b 760 390 741 442 752 417 b 771 304 767 362 771 334 b 749 181 771 261 763 219 b 686 78 734 142 713 107 b 591 8 659 48 628 25 b 469 -18 554 -9 514 -18 b 356 -10 431 -18 394 -15 l 356 150 b 383 144 365 147 374 145 b 413 143 393 144 402 143 b 478 156 437 143 458 147 b 528 192 497 165 514 177 b 562 246 543 208 554 225 b 574 311 570 266 574 288 b 533 433 574 361 560 402 b 404 481 505 465 463 481 b 381 480 397 481 389 480 b 356 478 372 479 364 479 l 356 608 b 372 606 361 607 366 607 b 386 606 377 606 381 606 b 440 613 405 606 423 608 b 487 635 458 617 473 625 b 519 674 500 645 511 658 b 532 729 528 689 532 708 b 517 798 532 759 527 782 b 481 835 506 814 494 826 b 437 850 467 843 452 848 b 399 853 422 852 409 853 b 307 816 359 853 328 841 b 275 717 286 791 275 758 l 275 0 l 78 0 z "},"à":{"ha":797,"x_min":0,"x_max":0,"o":"m 153 1004 l 371 1004 l 504 807 l 367 807 z m 67 497 b 101 613 69 544 81 582 b 179 686 122 643 148 668 b 285 726 211 705 246 718 b 404 738 325 734 364 738 b 514 730 440 738 477 735 b 615 700 551 725 585 715 b 690 638 646 685 671 665 b 719 533 710 612 719 577 l 719 160 b 725 67 719 127 721 96 b 744 0 729 37 735 15 l 544 0 b 535 34 541 11 538 22 b 531 69 533 46 531 57 b 419 1 499 37 462 14 b 289 -18 377 -12 333 -18 b 193 -6 255 -18 223 -14 b 115 33 163 3 138 16 b 63 100 93 51 76 73 b 44 196 51 127 44 159 b 66 297 44 237 52 270 b 122 360 80 323 99 344 b 199 395 144 375 170 387 b 288 414 228 403 258 409 b 375 425 317 419 346 422 b 451 438 404 428 429 432 b 504 462 474 443 491 451 b 522 508 517 472 523 488 b 512 559 522 530 519 547 b 484 588 505 572 496 581 b 444 602 472 595 459 600 b 394 606 428 604 412 606 b 303 581 356 606 325 597 b 264 497 281 564 268 536 z m 522 351 b 491 334 514 344 503 338 b 451 324 478 330 465 326 b 406 317 436 321 421 319 b 358 310 390 315 374 313 b 315 299 344 307 329 303 b 277 280 300 294 288 288 b 251 250 266 272 258 262 b 242 204 245 238 242 223 b 251 160 242 187 245 172 b 278 131 258 148 267 138 b 317 117 289 124 302 119 b 363 113 331 114 347 113 b 453 132 401 113 431 119 b 500 178 474 145 490 160 b 519 233 510 197 516 215 b 522 278 521 252 522 267 z "},"á":{"ha":797,"x_min":0,"x_max":0,"o":"m 432 807 l 294 807 l 428 1004 l 646 1004 z m 67 497 b 101 613 69 544 81 582 b 179 686 122 643 148 668 b 285 726 211 705 246 718 b 404 738 325 734 364 738 b 514 730 440 738 477 735 b 615 700 551 725 585 715 b 690 638 646 685 671 665 b 719 533 710 612 719 577 l 719 160 b 725 67 719 127 721 96 b 744 0 729 37 735 15 l 544 0 b 535 34 541 11 538 22 b 531 69 533 46 531 57 b 419 1 499 37 462 14 b 289 -18 377 -12 333 -18 b 193 -6 255 -18 223 -14 b 115 33 163 3 138 16 b 63 100 93 51 76 73 b 44 196 51 127 44 159 b 66 297 44 237 52 270 b 122 360 80 323 99 344 b 199 395 144 375 170 387 b 288 414 228 403 258 409 b 375 425 317 419 346 422 b 451 438 404 428 429 432 b 504 462 474 443 491 451 b 522 508 517 472 523 488 b 512 559 522 530 519 547 b 484 588 505 572 496 581 b 444 602 472 595 459 600 b 394 606 428 604 412 606 b 303 581 356 606 325 597 b 264 497 281 564 268 536 z m 522 351 b 491 334 514 344 503 338 b 451 324 478 330 465 326 b 406 317 436 321 421 319 b 358 310 390 315 374 313 b 315 299 344 307 329 303 b 277 280 300 294 288 288 b 251 250 266 272 258 262 b 242 204 245 238 242 223 b 251 160 242 187 245 172 b 278 131 258 148 267 138 b 317 117 289 124 302 119 b 363 113 331 114 347 113 b 453 132 401 113 431 119 b 500 178 474 145 490 160 b 519 233 510 197 516 215 b 522 278 521 252 522 267 z "},"â":{"ha":797,"x_min":0,"x_max":0,"o":"m 310 1004 l 490 1004 l 643 807 l 481 807 l 394 919 l 306 807 l 156 807 z m 67 497 b 101 613 69 544 81 582 b 179 686 122 643 148 668 b 285 726 211 705 246 718 b 404 738 325 734 364 738 b 514 730 440 738 477 735 b 615 700 551 725 585 715 b 690 638 646 685 671 665 b 719 533 710 612 719 577 l 719 160 b 725 67 719 127 721 96 b 744 0 729 37 735 15 l 544 0 b 535 34 541 11 538 22 b 531 69 533 46 531 57 b 419 1 499 37 462 14 b 289 -18 377 -12 333 -18 b 193 -6 255 -18 223 -14 b 115 33 163 3 138 16 b 63 100 93 51 76 73 b 44 196 51 127 44 159 b 66 297 44 237 52 270 b 122 360 80 323 99 344 b 199 395 144 375 170 387 b 288 414 228 403 258 409 b 375 425 317 419 346 422 b 451 438 404 428 429 432 b 504 462 474 443 491 451 b 522 508 517 472 523 488 b 512 559 522 530 519 547 b 484 588 505 572 496 581 b 444 602 472 595 459 600 b 394 606 428 604 412 606 b 303 581 356 606 325 597 b 264 497 281 564 268 536 z m 522 351 b 491 334 514 344 503 338 b 451 324 478 330 465 326 b 406 317 436 321 421 319 b 358 310 390 315 374 313 b 315 299 344 307 329 303 b 277 280 300 294 288 288 b 251 250 266 272 258 262 b 242 204 245 238 242 223 b 251 160 242 187 245 172 b 278 131 258 148 267 138 b 317 117 289 124 302 119 b 363 113 331 114 347 113 b 453 132 401 113 431 119 b 500 178 474 145 490 160 b 519 233 510 197 516 215 b 522 278 521 252 522 267 z "},"ã":{"ha":797,"x_min":0,"x_max":0,"o":"m 654 992 b 638 940 650 976 644 959 b 612 889 632 922 623 905 b 567 849 600 873 585 860 b 499 833 549 839 526 833 b 439 841 477 833 457 836 b 385 857 420 846 402 851 b 335 874 367 863 350 869 b 288 881 319 878 303 881 b 248 865 269 881 256 875 b 229 822 240 854 234 840 l 144 822 b 163 883 149 843 155 863 b 193 937 170 903 180 921 b 243 976 206 953 223 966 b 319 992 263 987 289 992 b 365 984 335 992 350 989 b 408 968 379 979 394 974 b 453 951 423 962 438 956 b 500 943 469 946 484 943 b 546 958 521 943 537 948 b 558 992 555 967 559 979 z m 67 497 b 101 613 69 544 81 582 b 179 686 122 643 148 668 b 285 726 211 705 246 718 b 404 738 325 734 364 738 b 514 730 440 738 477 735 b 615 700 551 725 585 715 b 690 638 646 685 671 665 b 719 533 710 612 719 577 l 719 160 b 725 67 719 127 721 96 b 744 0 729 37 735 15 l 544 0 b 535 34 541 11 538 22 b 531 69 533 46 531 57 b 419 1 499 37 462 14 b 289 -18 377 -12 333 -18 b 193 -6 255 -18 223 -14 b 115 33 163 3 138 16 b 63 100 93 51 76 73 b 44 196 51 127 44 159 b 66 297 44 237 52 270 b 122 360 80 323 99 344 b 199 395 144 375 170 387 b 288 414 228 403 258 409 b 375 425 317 419 346 422 b 451 438 404 428 429 432 b 504 462 474 443 491 451 b 522 508 517 472 523 488 b 512 559 522 530 519 547 b 484 588 505 572 496 581 b 444 602 472 595 459 600 b 394 606 428 604 412 606 b 303 581 356 606 325 597 b 264 497 281 564 268 536 z m 522 351 b 491 334 514 344 503 338 b 451 324 478 330 465 326 b 406 317 436 321 421 319 b 358 310 390 315 374 313 b 315 299 344 307 329 303 b 277 280 300 294 288 288 b 251 250 266 272 258 262 b 242 204 245 238 242 223 b 251 160 242 187 245 172 b 278 131 258 148 267 138 b 317 117 289 124 302 119 b 363 113 331 114 347 113 b 453 132 401 113 431 119 b 500 178 474 145 490 160 b 519 233 510 197 516 215 b 522 278 521 252 522 267 z "},"ä":{"ha":797,"x_min":0,"x_max":0,"o":"m 163 992 l 350 992 l 350 829 l 163 829 z m 449 992 l 636 992 l 636 829 l 449 829 z m 67 497 b 101 613 69 544 81 582 b 179 686 122 643 148 668 b 285 726 211 705 246 718 b 404 738 325 734 364 738 b 514 730 440 738 477 735 b 615 700 551 725 585 715 b 690 638 646 685 671 665 b 719 533 710 612 719 577 l 719 160 b 725 67 719 127 721 96 b 744 0 729 37 735 15 l 544 0 b 535 34 541 11 538 22 b 531 69 533 46 531 57 b 419 1 499 37 462 14 b 289 -18 377 -12 333 -18 b 193 -6 255 -18 223 -14 b 115 33 163 3 138 16 b 63 100 93 51 76 73 b 44 196 51 127 44 159 b 66 297 44 237 52 270 b 122 360 80 323 99 344 b 199 395 144 375 170 387 b 288 414 228 403 258 409 b 375 425 317 419 346 422 b 451 438 404 428 429 432 b 504 462 474 443 491 451 b 522 508 517 472 523 488 b 512 559 522 530 519 547 b 484 588 505 572 496 581 b 444 602 472 595 459 600 b 394 606 428 604 412 606 b 303 581 356 606 325 597 b 264 497 281 564 268 536 z m 522 351 b 491 334 514 344 503 338 b 451 324 478 330 465 326 b 406 317 436 321 421 319 b 358 310 390 315 374 313 b 315 299 344 307 329 303 b 277 280 300 294 288 288 b 251 250 266 272 258 262 b 242 204 245 238 242 223 b 251 160 242 187 245 172 b 278 131 258 148 267 138 b 317 117 289 124 302 119 b 363 113 331 114 347 113 b 453 132 401 113 431 119 b 500 178 474 145 490 160 b 519 233 510 197 516 215 b 522 278 521 252 522 267 z "},"å":{"ha":797,"x_min":0,"x_max":0,"o":"m 229 911 b 242 978 229 935 234 957 b 278 1031 251 998 263 1016 b 333 1067 294 1047 312 1059 b 399 1081 353 1076 375 1081 b 465 1067 423 1081 445 1076 b 519 1031 486 1059 504 1047 b 556 978 535 1016 547 998 b 569 911 565 957 569 935 b 556 845 569 888 565 866 b 519 791 547 824 535 806 b 465 755 504 776 486 764 b 399 742 445 746 423 742 b 333 755 375 742 353 746 b 278 791 312 764 294 776 b 242 845 263 806 251 824 b 229 911 234 866 229 888 z m 311 911 b 335 842 311 884 319 861 b 399 814 350 823 372 814 b 463 842 425 814 447 823 b 488 911 479 861 487 884 b 463 980 488 938 479 961 b 399 1008 447 999 425 1008 b 335 980 372 1008 350 999 b 311 911 319 961 311 938 z m 67 497 b 101 613 69 544 81 582 b 179 686 122 643 148 668 b 285 726 211 705 246 718 b 404 738 325 734 364 738 b 514 730 440 738 477 735 b 615 700 551 725 585 715 b 690 638 646 685 671 665 b 719 533 710 612 719 577 l 719 160 b 725 67 719 127 721 96 b 744 0 729 37 735 15 l 544 0 b 535 34 541 11 538 22 b 531 69 533 46 531 57 b 419 1 499 37 462 14 b 289 -18 377 -12 333 -18 b 193 -6 255 -18 223 -14 b 115 33 163 3 138 16 b 63 100 93 51 76 73 b 44 196 51 127 44 159 b 66 297 44 237 52 270 b 122 360 80 323 99 344 b 199 395 144 375 170 387 b 288 414 228 403 258 409 b 375 425 317 419 346 422 b 451 438 404 428 429 432 b 504 462 474 443 491 451 b 522 508 517 472 523 488 b 512 559 522 530 519 547 b 484 588 505 572 496 581 b 444 602 472 595 459 600 b 394 606 428 604 412 606 b 303 581 356 606 325 597 b 264 497 281 564 268 536 z m 522 351 b 491 334 514 344 503 338 b 451 324 478 330 465 326 b 406 317 436 321 421 319 b 358 310 390 315 374 313 b 315 299 344 307 329 303 b 277 280 300 294 288 288 b 251 250 266 272 258 262 b 242 204 245 238 242 223 b 251 160 242 187 245 172 b 278 131 258 148 267 138 b 317 117 289 124 302 119 b 363 113 331 114 347 113 b 453 132 401 113 431 119 b 500 178 474 145 490 160 b 519 233 510 197 516 215 b 522 278 521 252 522 267 z "},"æ":{"ha":1260,"x_min":0,"x_max":0,"o":"m 1022 436 b 1013 500 1022 458 1019 480 b 983 554 1006 520 996 538 b 934 592 969 570 953 582 b 868 606 915 601 893 606 b 801 592 843 606 821 601 b 750 554 781 582 764 570 b 718 500 736 538 725 520 b 707 436 711 480 707 458 z m 707 311 b 717 240 706 288 709 264 b 750 176 724 216 735 195 b 804 131 765 158 783 143 b 878 113 825 119 850 113 b 978 142 922 113 956 122 b 1021 225 1000 162 1014 190 l 1213 225 b 1165 122 1202 186 1187 152 b 1090 45 1144 91 1119 66 b 994 -2 1062 24 1029 9 b 882 -18 958 -13 921 -18 b 732 10 830 -18 780 -9 b 614 103 684 28 644 59 b 555 47 597 81 578 62 b 483 9 532 31 508 19 b 403 -12 457 -1 431 -8 b 321 -18 375 -16 348 -18 b 222 -8 287 -18 253 -15 b 136 28 190 -1 161 11 b 76 94 111 44 91 66 b 53 194 60 121 53 155 b 74 295 53 235 60 269 b 128 359 88 322 106 343 b 206 395 151 375 177 387 b 293 414 234 403 263 409 b 401 431 335 420 371 426 b 477 447 432 435 457 441 b 521 471 497 453 512 461 b 535 514 530 481 535 495 b 524 560 535 532 531 548 b 494 588 516 572 506 581 b 453 602 482 595 469 600 b 407 606 438 604 423 606 b 310 581 368 606 336 597 b 269 494 285 565 271 536 l 72 494 b 105 609 74 540 85 578 b 181 684 125 640 150 665 b 288 725 212 703 248 717 b 411 738 328 733 369 738 b 476 733 432 738 454 736 b 542 717 499 729 520 724 b 601 687 563 709 583 699 b 649 640 620 674 636 659 b 746 713 676 673 709 697 b 889 738 783 729 831 738 b 1042 702 949 738 1000 726 b 1144 608 1083 678 1117 647 b 1201 472 1170 568 1189 523 b 1219 311 1213 420 1219 367 z m 535 350 b 488 328 523 340 507 332 b 428 316 469 323 449 319 b 365 306 408 313 387 309 b 308 290 344 303 325 298 b 266 260 291 283 277 273 b 250 206 255 247 250 229 b 260 161 250 188 253 173 b 288 132 267 149 277 139 b 328 117 300 125 313 119 b 372 113 343 114 357 113 b 428 121 391 113 409 115 b 481 147 447 126 465 135 b 519 194 496 159 509 175 b 535 261 530 213 535 235 z "},"ç":{"ha":797,"x_min":0,"x_max":0,"o":"m 564 465 b 418 589 551 548 502 589 b 339 567 387 589 360 582 b 287 512 318 553 300 534 b 258 437 273 489 264 464 b 250 356 253 409 250 382 b 258 276 250 330 253 303 b 285 203 264 250 273 225 b 336 150 298 182 315 164 b 414 129 357 136 383 129 b 523 169 461 129 497 142 b 571 275 548 195 564 231 l 761 275 b 656 62 749 182 714 111 b 432 -17 598 12 524 -14 l 393 -72 l 396 -72 b 443 -65 407 -68 423 -65 b 490 -71 459 -65 474 -67 b 531 -88 505 -75 519 -80 b 560 -119 543 -96 552 -106 b 571 -162 567 -131 571 -146 b 557 -230 571 -189 566 -212 b 520 -273 548 -248 535 -262 b 468 -295 505 -284 488 -291 b 408 -301 449 -299 429 -301 b 351 -299 386 -301 367 -301 b 309 -293 336 -298 322 -296 b 273 -283 297 -290 284 -287 b 236 -271 261 -280 249 -275 l 265 -204 b 317 -222 280 -211 297 -216 b 382 -229 336 -227 358 -229 b 422 -218 399 -229 412 -225 b 438 -182 432 -211 438 -199 b 422 -147 438 -164 432 -153 b 382 -137 411 -141 398 -137 b 326 -147 362 -137 343 -141 l 297 -114 l 367 -14 b 238 22 319 -9 277 3 b 139 99 200 42 167 67 b 75 210 111 131 90 168 b 53 349 60 253 53 299 b 77 503 53 404 61 456 b 149 627 93 551 117 592 b 264 708 180 662 219 689 b 419 738 309 728 361 738 b 542 721 462 738 503 732 b 648 670 582 710 617 693 b 724 585 679 647 704 619 b 757 465 743 552 754 512 z "},"è":{"ha":797,"x_min":0,"x_max":0,"o":"m 153 1004 l 371 1004 l 504 807 l 367 807 z m 558 436 b 509 550 549 486 533 524 b 401 589 485 576 450 589 b 323 573 370 589 344 584 b 273 533 302 562 285 549 b 247 483 260 518 252 501 b 238 436 241 466 238 450 z m 238 311 b 286 172 240 247 256 201 b 414 129 316 144 358 129 b 517 159 454 129 488 139 b 569 222 545 179 563 200 l 743 222 b 615 38 715 136 673 75 b 407 -18 558 0 488 -18 b 254 9 350 -18 300 -9 b 139 86 209 27 170 53 b 66 206 107 119 83 159 b 40 358 49 252 40 303 b 67 508 40 412 49 462 b 142 628 84 555 109 595 b 258 708 174 662 213 689 b 407 738 303 728 352 738 b 567 702 468 738 521 726 b 678 607 612 678 649 647 b 742 471 708 567 729 522 b 756 311 755 420 759 367 z "},"é":{"ha":797,"x_min":0,"x_max":0,"o":"m 432 807 l 294 807 l 428 1004 l 646 1004 z m 558 436 b 509 550 549 486 533 524 b 401 589 485 576 450 589 b 323 573 370 589 344 584 b 273 533 302 562 285 549 b 247 483 260 518 252 501 b 238 436 241 466 238 450 z m 238 311 b 286 172 240 247 256 201 b 414 129 316 144 358 129 b 517 159 454 129 488 139 b 569 222 545 179 563 200 l 743 222 b 615 38 715 136 673 75 b 407 -18 558 0 488 -18 b 254 9 350 -18 300 -9 b 139 86 209 27 170 53 b 66 206 107 119 83 159 b 40 358 49 252 40 303 b 67 508 40 412 49 462 b 142 628 84 555 109 595 b 258 708 174 662 213 689 b 407 738 303 728 352 738 b 567 702 468 738 521 726 b 678 607 612 678 649 647 b 742 471 708 567 729 522 b 756 311 755 420 759 367 z "},"ê":{"ha":797,"x_min":0,"x_max":0,"o":"m 310 1004 l 490 1004 l 643 807 l 481 807 l 394 919 l 306 807 l 156 807 z m 558 436 b 509 550 549 486 533 524 b 401 589 485 576 450 589 b 323 573 370 589 344 584 b 273 533 302 562 285 549 b 247 483 260 518 252 501 b 238 436 241 466 238 450 z m 238 311 b 286 172 240 247 256 201 b 414 129 316 144 358 129 b 517 159 454 129 488 139 b 569 222 545 179 563 200 l 743 222 b 615 38 715 136 673 75 b 407 -18 558 0 488 -18 b 254 9 350 -18 300 -9 b 139 86 209 27 170 53 b 66 206 107 119 83 159 b 40 358 49 252 40 303 b 67 508 40 412 49 462 b 142 628 84 555 109 595 b 258 708 174 662 213 689 b 407 738 303 728 352 738 b 567 702 468 738 521 726 b 678 607 612 678 649 647 b 742 471 708 567 729 522 b 756 311 755 420 759 367 z "},"ë":{"ha":797,"x_min":0,"x_max":0,"o":"m 163 992 l 350 992 l 350 829 l 163 829 z m 449 992 l 636 992 l 636 829 l 449 829 z m 558 436 b 509 550 549 486 533 524 b 401 589 485 576 450 589 b 323 573 370 589 344 584 b 273 533 302 562 285 549 b 247 483 260 518 252 501 b 238 436 241 466 238 450 z m 238 311 b 286 172 240 247 256 201 b 414 129 316 144 358 129 b 517 159 454 129 488 139 b 569 222 545 179 563 200 l 743 222 b 615 38 715 136 673 75 b 407 -18 558 0 488 -18 b 254 9 350 -18 300 -9 b 139 86 209 27 170 53 b 66 206 107 119 83 159 b 40 358 49 252 40 303 b 67 508 40 412 49 462 b 142 628 84 555 109 595 b 258 708 174 662 213 689 b 407 738 303 728 352 738 b 567 702 468 738 521 726 b 678 607 612 678 649 647 b 742 471 708 567 729 522 b 756 311 755 420 759 367 z "},"ì":{"ha":358,"x_min":0,"x_max":0,"o":"m -65 1004 l 151 1004 l 285 807 l 147 807 z m 81 718 l 278 718 l 278 0 l 81 0 z "},"í":{"ha":358,"x_min":0,"x_max":0,"o":"m 213 807 l 75 807 l 208 1004 l 426 1004 z m 81 718 l 278 718 l 278 0 l 81 0 z "},"î":{"ha":358,"x_min":0,"x_max":0,"o":"m 90 1004 l 271 1004 l 424 807 l 261 807 l 175 919 l 86 807 l -62 807 z m 81 718 l 278 718 l 278 0 l 81 0 z "},"ï":{"ha":358,"x_min":0,"x_max":0,"o":"m -56 992 l 131 992 l 131 829 l -56 829 z m 229 992 l 417 992 l 417 829 l 229 829 z m 81 718 l 278 718 l 278 0 l 81 0 z "},"ð":{"ha":849,"x_min":0,"x_max":0,"o":"m 333 899 b 274 938 313 913 293 926 b 217 968 254 949 235 959 l 344 1064 b 482 972 394 1036 440 1006 l 653 1058 l 725 976 l 567 897 b 739 665 642 825 699 748 b 796 379 779 583 798 488 b 769 220 796 322 787 269 b 694 94 752 172 727 130 b 577 12 662 59 623 32 b 424 -18 531 -8 480 -18 b 271 8 367 -18 316 -9 b 154 83 225 26 187 51 b 79 197 122 115 97 153 b 53 343 62 242 53 290 b 72 472 53 387 59 430 b 129 588 84 515 103 553 b 228 671 155 622 188 650 b 372 703 269 692 317 703 b 462 692 399 703 429 699 b 560 647 495 684 527 669 l 563 647 b 497 749 546 686 524 720 b 421 824 469 778 444 803 l 265 746 l 185 824 z m 424 129 b 508 149 457 129 485 136 b 562 201 530 162 548 179 b 590 274 575 222 585 247 b 599 358 596 302 599 330 b 589 435 599 384 595 410 b 558 503 582 461 572 484 b 504 552 544 523 526 540 b 422 571 482 565 455 571 b 342 552 391 571 364 565 b 288 503 319 540 302 523 b 259 434 275 482 265 459 b 250 358 253 409 250 383 b 258 274 250 330 253 302 b 287 201 264 247 273 222 b 340 149 300 179 318 162 b 424 129 363 136 390 129 z "},"ñ":{"ha":824,"x_min":0,"x_max":0,"o":"m 667 992 b 651 940 662 976 657 959 b 624 889 645 922 636 905 b 580 849 613 873 598 860 b 511 833 562 839 539 833 b 451 841 490 833 470 836 b 397 857 433 846 415 851 b 347 874 380 863 363 869 b 300 881 331 878 316 881 b 260 865 281 881 268 875 b 242 822 253 854 246 840 l 157 822 b 175 883 162 843 168 863 b 206 937 182 903 193 921 b 256 976 219 953 235 966 b 332 992 276 987 301 992 b 377 984 348 992 363 989 b 421 968 391 979 406 974 b 466 951 436 962 451 956 b 513 943 481 946 497 943 b 558 958 534 943 549 948 b 571 992 568 967 572 979 z m 75 718 l 263 718 l 263 618 l 267 618 b 364 709 292 660 324 690 b 486 738 404 728 444 738 b 616 716 539 738 582 730 b 696 656 650 702 676 682 b 737 563 715 631 729 600 b 749 442 745 527 749 486 l 749 0 l 551 0 l 551 406 b 524 538 551 465 542 509 b 425 582 505 567 472 582 b 308 534 371 582 332 566 b 272 376 284 502 272 450 l 272 0 l 75 0 z "},"ò":{"ha":849,"x_min":0,"x_max":0,"o":"m 178 1004 l 396 1004 l 529 807 l 392 807 z m 250 358 b 258 274 250 330 253 302 b 287 201 264 247 273 222 b 340 149 300 179 318 162 b 424 129 363 136 390 129 b 508 149 457 129 485 136 b 562 201 530 162 548 179 b 590 274 575 222 585 247 b 599 358 596 302 599 330 b 590 443 599 387 596 415 b 562 517 585 471 575 495 b 508 569 548 538 530 555 b 424 589 485 582 457 589 b 340 569 390 589 363 582 b 287 517 318 555 300 538 b 258 443 273 495 264 471 b 250 358 253 415 250 387 z m 53 358 b 79 515 53 416 62 468 b 154 634 97 561 122 601 b 271 710 187 667 225 692 b 424 738 316 728 367 738 b 577 710 480 738 531 728 b 694 634 623 692 662 667 b 769 515 727 601 752 561 b 796 358 787 468 796 416 b 769 203 796 301 787 249 b 694 84 752 156 727 117 b 577 8 662 51 623 26 b 424 -18 531 -9 480 -18 b 271 8 367 -18 316 -9 b 154 84 225 26 187 51 b 79 203 122 117 97 156 b 53 358 62 249 53 301 z "},"ó":{"ha":849,"x_min":0,"x_max":0,"o":"m 457 807 l 319 807 l 453 1004 l 671 1004 z m 250 358 b 258 274 250 330 253 302 b 287 201 264 247 273 222 b 340 149 300 179 318 162 b 424 129 363 136 390 129 b 508 149 457 129 485 136 b 562 201 530 162 548 179 b 590 274 575 222 585 247 b 599 358 596 302 599 330 b 590 443 599 387 596 415 b 562 517 585 471 575 495 b 508 569 548 538 530 555 b 424 589 485 582 457 589 b 340 569 390 589 363 582 b 287 517 318 555 300 538 b 258 443 273 495 264 471 b 250 358 253 415 250 387 z m 53 358 b 79 515 53 416 62 468 b 154 634 97 561 122 601 b 271 710 187 667 225 692 b 424 738 316 728 367 738 b 577 710 480 738 531 728 b 694 634 623 692 662 667 b 769 515 727 601 752 561 b 796 358 787 468 796 416 b 769 203 796 301 787 249 b 694 84 752 156 727 117 b 577 8 662 51 623 26 b 424 -18 531 -9 480 -18 b 271 8 367 -18 316 -9 b 154 84 225 26 187 51 b 79 203 122 117 97 156 b 53 358 62 249 53 301 z "},"ô":{"ha":849,"x_min":0,"x_max":0,"o":"m 335 1004 l 515 1004 l 668 807 l 506 807 l 419 919 l 331 807 l 181 807 z m 250 358 b 258 274 250 330 253 302 b 287 201 264 247 273 222 b 340 149 300 179 318 162 b 424 129 363 136 390 129 b 508 149 457 129 485 136 b 562 201 530 162 548 179 b 590 274 575 222 585 247 b 599 358 596 302 599 330 b 590 443 599 387 596 415 b 562 517 585 471 575 495 b 508 569 548 538 530 555 b 424 589 485 582 457 589 b 340 569 390 589 363 582 b 287 517 318 555 300 538 b 258 443 273 495 264 471 b 250 358 253 415 250 387 z m 53 358 b 79 515 53 416 62 468 b 154 634 97 561 122 601 b 271 710 187 667 225 692 b 424 738 316 728 367 738 b 577 710 480 738 531 728 b 694 634 623 692 662 667 b 769 515 727 601 752 561 b 796 358 787 468 796 416 b 769 203 796 301 787 249 b 694 84 752 156 727 117 b 577 8 662 51 623 26 b 424 -18 531 -9 480 -18 b 271 8 367 -18 316 -9 b 154 84 225 26 187 51 b 79 203 122 117 97 156 b 53 358 62 249 53 301 z "},"õ":{"ha":849,"x_min":0,"x_max":0,"o":"m 679 992 b 663 940 675 976 669 959 b 637 889 657 922 648 905 b 592 849 625 873 610 860 b 524 833 574 839 551 833 b 464 841 502 833 482 836 b 410 857 445 846 427 851 b 360 874 392 863 375 869 b 313 881 344 878 328 881 b 273 865 294 881 281 875 b 254 822 265 854 259 840 l 169 822 b 188 883 174 843 180 863 b 218 937 195 903 205 921 b 268 976 231 953 248 966 b 344 992 288 987 314 992 b 390 984 360 992 375 989 b 433 968 404 979 419 974 b 478 951 448 962 463 956 b 525 943 494 946 509 943 b 571 958 546 943 562 948 b 583 992 580 967 584 979 z m 250 358 b 258 274 250 330 253 302 b 287 201 264 247 273 222 b 340 149 300 179 318 162 b 424 129 363 136 390 129 b 508 149 457 129 485 136 b 562 201 530 162 548 179 b 590 274 575 222 585 247 b 599 358 596 302 599 330 b 590 443 599 387 596 415 b 562 517 585 471 575 495 b 508 569 548 538 530 555 b 424 589 485 582 457 589 b 340 569 390 589 363 582 b 287 517 318 555 300 538 b 258 443 273 495 264 471 b 250 358 253 415 250 387 z m 53 358 b 79 515 53 416 62 468 b 154 634 97 561 122 601 b 271 710 187 667 225 692 b 424 738 316 728 367 738 b 577 710 480 738 531 728 b 694 634 623 692 662 667 b 769 515 727 601 752 561 b 796 358 787 468 796 416 b 769 203 796 301 787 249 b 694 84 752 156 727 117 b 577 8 662 51 623 26 b 424 -18 531 -9 480 -18 b 271 8 367 -18 316 -9 b 154 84 225 26 187 51 b 79 203 122 117 97 156 b 53 358 62 249 53 301 z "},"ö":{"ha":849,"x_min":0,"x_max":0,"o":"m 188 992 l 375 992 l 375 829 l 188 829 z m 474 992 l 661 992 l 661 829 l 474 829 z m 250 358 b 258 274 250 330 253 302 b 287 201 264 247 273 222 b 340 149 300 179 318 162 b 424 129 363 136 390 129 b 508 149 457 129 485 136 b 562 201 530 162 548 179 b 590 274 575 222 585 247 b 599 358 596 302 599 330 b 590 443 599 387 596 415 b 562 517 585 471 575 495 b 508 569 548 538 530 555 b 424 589 485 582 457 589 b 340 569 390 589 363 582 b 287 517 318 555 300 538 b 258 443 273 495 264 471 b 250 358 253 415 250 387 z m 53 358 b 79 515 53 416 62 468 b 154 634 97 561 122 601 b 271 710 187 667 225 692 b 424 738 316 728 367 738 b 577 710 480 738 531 728 b 694 634 623 692 662 667 b 769 515 727 601 752 561 b 796 358 787 468 796 416 b 769 203 796 301 787 249 b 694 84 752 156 727 117 b 577 8 662 51 623 26 b 424 -18 531 -9 480 -18 b 271 8 367 -18 316 -9 b 154 84 225 26 187 51 b 79 203 122 117 97 156 b 53 358 62 249 53 301 z "},"÷":{"ha":833,"x_min":0,"x_max":0,"o":"m 300 63 b 310 108 300 79 303 94 b 335 145 316 122 325 134 b 373 170 346 156 359 164 b 418 179 387 176 402 179 b 463 170 434 179 449 176 b 499 145 476 164 489 156 b 525 108 510 134 519 122 b 535 63 531 94 535 79 b 525 21 535 49 531 35 b 500 -17 519 7 510 -6 b 464 -44 490 -28 478 -37 b 419 -54 450 -51 435 -54 b 373 -44 403 -54 387 -51 b 335 -19 359 -38 346 -29 b 310 19 325 -8 316 4 b 300 63 303 33 300 48 z m 300 639 b 335 723 300 672 312 700 b 418 757 359 746 387 757 b 463 748 434 757 449 754 b 499 723 476 742 489 734 b 525 685 510 712 519 700 b 535 639 531 671 535 656 b 525 596 535 624 531 610 b 500 558 519 582 510 569 b 464 532 490 547 478 538 b 419 522 450 525 435 522 b 373 531 403 522 387 525 b 335 556 359 537 346 546 b 310 594 325 567 316 579 b 300 639 303 608 300 623 z m 67 425 l 768 425 l 768 276 l 67 276 z "},"ø":{"ha":849,"x_min":0,"x_max":0,"o":"m 144 96 b 53 358 83 163 53 250 b 79 515 53 416 62 468 b 154 634 97 561 122 601 b 271 710 187 667 225 692 b 424 738 316 728 367 738 b 650 671 512 738 588 715 l 724 756 l 775 711 l 700 626 b 771 510 731 594 754 555 b 796 358 788 464 796 414 b 769 203 796 301 787 249 b 694 84 752 156 727 117 b 577 8 662 51 623 26 b 424 -18 531 -9 480 -18 b 194 50 333 -18 256 5 l 113 -42 l 61 1 z m 306 176 b 354 142 319 162 335 150 b 424 129 374 133 397 129 b 508 149 457 129 485 136 b 562 201 530 162 548 179 b 590 274 575 222 585 247 b 599 358 596 302 599 330 b 593 424 599 381 597 403 b 576 485 589 446 584 466 z m 539 544 b 424 589 511 574 473 589 b 340 569 390 589 363 582 b 287 517 318 555 300 538 b 258 443 273 495 264 471 b 250 358 253 415 250 387 b 255 296 250 337 252 316 b 271 239 258 275 263 256 z "},"ù":{"ha":824,"x_min":0,"x_max":0,"o":"m 165 1004 l 383 1004 l 517 807 l 379 807 z m 749 0 l 561 0 l 561 100 l 557 100 b 460 10 532 58 500 28 b 338 -18 420 -9 379 -18 b 208 3 285 -18 241 -11 b 128 62 174 17 147 36 b 87 155 108 87 95 118 b 75 276 79 191 75 232 l 75 718 l 272 718 l 272 313 b 300 180 272 253 281 209 b 399 136 319 151 351 136 b 515 184 452 136 491 152 b 551 342 539 216 551 269 l 551 718 l 749 718 z "},"ú":{"ha":824,"x_min":0,"x_max":0,"o":"m 444 807 l 307 807 l 440 1004 l 658 1004 z m 749 0 l 561 0 l 561 100 l 557 100 b 460 10 532 58 500 28 b 338 -18 420 -9 379 -18 b 208 3 285 -18 241 -11 b 128 62 174 17 147 36 b 87 155 108 87 95 118 b 75 276 79 191 75 232 l 75 718 l 272 718 l 272 313 b 300 180 272 253 281 209 b 399 136 319 151 351 136 b 515 184 452 136 491 152 b 551 342 539 216 551 269 l 551 718 l 749 718 z "},"û":{"ha":824,"x_min":0,"x_max":0,"o":"m 322 1004 l 503 1004 l 656 807 l 493 807 l 407 919 l 318 807 l 168 807 z m 749 0 l 561 0 l 561 100 l 557 100 b 460 10 532 58 500 28 b 338 -18 420 -9 379 -18 b 208 3 285 -18 241 -11 b 128 62 174 17 147 36 b 87 155 108 87 95 118 b 75 276 79 191 75 232 l 75 718 l 272 718 l 272 313 b 300 180 272 253 281 209 b 399 136 319 151 351 136 b 515 184 452 136 491 152 b 551 342 539 216 551 269 l 551 718 l 749 718 z "},"ü":{"ha":824,"x_min":0,"x_max":0,"o":"m 175 992 l 363 992 l 363 829 l 175 829 z m 461 992 l 649 992 l 649 829 l 461 829 z m 749 0 l 561 0 l 561 100 l 557 100 b 460 10 532 58 500 28 b 338 -18 420 -9 379 -18 b 208 3 285 -18 241 -11 b 128 62 174 17 147 36 b 87 155 108 87 95 118 b 75 276 79 191 75 232 l 75 718 l 272 718 l 272 313 b 300 180 272 253 281 209 b 399 136 319 151 351 136 b 515 184 452 136 491 152 b 551 342 539 216 551 269 l 551 718 l 749 718 z "},"ý":{"ha":721,"x_min":0,"x_max":0,"o":"m 393 807 l 256 807 l 389 1004 l 607 1004 z m 429 -89 b 340 -214 408 -147 378 -189 b 182 -251 302 -239 250 -251 b 122 -249 162 -251 141 -251 b 61 -244 102 -248 81 -246 l 61 -82 b 118 -87 80 -84 99 -86 b 176 -89 138 -89 157 -90 b 234 -58 202 -86 222 -76 b 253 0 247 -41 253 -21 b 244 44 253 16 250 31 l -7 718 l 203 718 l 365 226 l 368 226 l 525 718 l 729 718 z "},"þ":{"ha":849,"x_min":0,"x_max":0,"o":"m 608 357 b 599 442 608 386 605 414 b 569 516 593 469 583 494 b 516 569 556 538 538 555 b 436 589 494 582 468 589 b 355 569 404 589 377 582 b 302 517 333 555 316 538 b 274 443 289 495 279 471 b 265 357 268 415 265 387 b 274 272 265 328 268 300 b 303 199 280 244 290 220 b 357 149 317 178 335 162 b 438 129 379 136 406 129 b 519 149 470 129 497 136 b 572 199 541 162 558 178 b 600 272 585 220 594 244 b 608 357 606 300 608 328 z m 75 992 l 272 992 l 272 626 l 275 626 b 365 711 299 665 329 694 b 479 738 401 729 439 738 b 625 706 536 738 584 727 b 726 621 666 684 700 656 b 786 498 753 586 773 545 b 806 351 799 451 806 402 b 786 213 806 303 799 257 b 727 94 773 168 753 129 b 628 13 701 60 668 33 b 490 -18 589 -8 543 -18 b 367 9 446 -18 405 -9 b 275 89 330 27 299 54 l 272 89 l 272 -251 l 75 -251 z "},"ÿ":{"ha":721,"x_min":0,"x_max":0,"o":"m 124 992 l 311 992 l 311 829 l 124 829 z m 410 992 l 597 992 l 597 829 l 410 829 z m 429 -89 b 340 -214 408 -147 378 -189 b 182 -251 302 -239 250 -251 b 122 -249 162 -251 141 -251 b 61 -244 102 -248 81 -246 l 61 -82 b 118 -87 80 -84 99 -86 b 176 -89 138 -89 157 -90 b 234 -58 202 -86 222 -76 b 253 0 247 -41 253 -21 b 244 44 253 16 250 31 l -7 718 l 203 718 l 365 226 l 368 226 l 525 718 l 729 718 z "},"Ā":{"ha":951,"x_min":0,"x_max":0,"o":"m 367 992 l -10 0 l 211 0 l 289 221 l 660 221 l 735 0 l 961 0 l 590 992 z m 603 383 l 346 383 l 475 747 l 478 747 z m 232 1228 l 232 1124 l 722 1124 l 722 1228 z "},"ā":{"ha":797,"x_min":0,"x_max":0,"o":"m 67 497 l 264 497 b 303 581 268 536 281 564 b 394 606 325 597 356 606 b 444 602 412 606 428 604 b 484 588 459 600 472 595 b 512 558 496 581 505 571 b 522 508 519 545 522 529 b 511 470 522 493 519 480 b 477 446 504 460 492 452 b 419 431 462 439 443 434 b 339 421 396 428 369 425 b 236 406 306 417 271 412 b 141 372 201 399 169 388 b 72 307 113 356 90 335 b 44 196 53 279 44 242 b 63 100 44 159 51 127 b 115 33 76 73 93 51 b 193 -6 138 16 163 3 b 289 -19 223 -15 255 -19 b 419 1 333 -19 377 -13 b 531 69 462 14 499 37 b 535 34 531 57 533 46 b 544 0 538 22 541 11 l 744 0 b 725 67 735 15 729 37 b 719 160 721 96 719 127 l 719 533 b 690 638 719 576 710 611 b 615 700 671 664 646 685 b 514 730 585 715 551 725 b 404 738 477 735 440 738 b 285 726 363 738 324 734 b 179 686 246 718 211 705 b 101 612 148 668 122 643 b 67 497 81 581 69 543 z m 522 351 l 522 278 b 519 233 522 267 521 252 b 500 178 516 215 510 197 b 453 132 490 160 474 145 b 363 113 431 119 401 113 b 317 117 347 113 331 114 b 278 131 302 119 289 124 b 251 159 267 138 258 147 b 242 204 245 171 242 186 b 256 258 242 226 246 244 b 292 290 265 271 277 282 b 343 307 306 297 324 303 b 403 317 362 311 382 314 b 475 329 430 320 454 325 b 522 351 496 334 512 341 z m 164 964 l 164 860 l 654 860 l 654 964 z "},"Ă":{"ha":951,"x_min":0,"x_max":0,"o":"m 367 992 l -10 0 l 211 0 l 289 221 l 660 221 l 735 0 l 961 0 l 590 992 z m 603 383 l 346 383 l 475 747 l 478 747 z m 336 1279 l 246 1279 b 310 1133 251 1215 273 1166 b 467 1082 348 1099 400 1082 b 635 1128 536 1082 592 1097 b 714 1279 678 1159 705 1210 l 626 1279 b 575 1208 618 1247 601 1223 b 474 1186 549 1194 515 1186 b 431 1191 460 1186 445 1188 b 388 1207 416 1194 402 1200 b 354 1235 375 1214 363 1224 b 336 1279 345 1247 339 1262 z "},"ă":{"ha":797,"x_min":0,"x_max":0,"o":"m 67 497 l 264 497 b 303 581 268 536 281 564 b 394 606 325 597 356 606 b 444 602 412 606 428 604 b 484 588 459 600 472 595 b 512 558 496 581 505 571 b 522 508 519 545 522 529 b 511 470 522 493 519 480 b 477 446 504 460 492 452 b 419 431 462 439 443 434 b 339 421 396 428 369 425 b 236 406 306 417 271 412 b 141 372 201 399 169 388 b 72 307 113 356 90 335 b 44 196 53 279 44 242 b 63 100 44 159 51 127 b 115 33 76 73 93 51 b 193 -6 138 16 163 3 b 289 -19 223 -15 255 -19 b 419 1 333 -19 377 -13 b 531 69 462 14 499 37 b 535 34 531 57 533 46 b 544 0 538 22 541 11 l 744 0 b 725 67 735 15 729 37 b 719 160 721 96 719 127 l 719 533 b 690 638 719 576 710 611 b 615 700 671 664 646 685 b 514 730 585 715 551 725 b 404 738 477 735 440 738 b 285 726 363 738 324 734 b 179 686 246 718 211 705 b 101 612 148 668 122 643 b 67 497 81 581 69 543 z m 522 351 l 522 278 b 519 233 522 267 521 252 b 500 178 516 215 510 197 b 453 132 490 160 474 145 b 363 113 431 119 401 113 b 317 117 347 113 331 114 b 278 131 302 119 289 124 b 251 159 267 138 258 147 b 242 204 245 171 242 186 b 256 258 242 226 246 244 b 292 290 265 271 277 282 b 343 307 306 297 324 303 b 403 317 362 311 382 314 b 475 329 430 320 454 325 b 522 351 496 334 512 341 z m 268 1015 l 178 1015 b 242 869 183 951 205 903 b 399 818 280 835 332 818 b 567 865 468 818 524 834 b 646 1015 610 896 637 946 l 558 1015 b 507 944 550 983 533 959 b 406 922 481 930 447 922 b 363 927 392 922 377 924 b 320 943 348 930 334 936 b 286 972 307 950 295 960 b 268 1015 277 983 271 998 z "},"Ą":{"ha":951,"x_min":0,"x_max":0,"o":"m 775 -301 b 871 -281 806 -301 838 -294 b 961 -207 903 -267 933 -242 l 894 -176 b 856 -210 881 -194 869 -205 b 814 -218 843 -216 829 -218 b 776 -205 800 -218 788 -214 b 760 -171 765 -196 760 -185 b 783 -94 760 -147 768 -121 b 869 0 799 -69 828 -38 l 961 0 l 590 992 l 367 992 l -8 0 l 211 0 l 289 221 l 660 221 l 735 0 l 776 0 b 694 -58 741 -20 714 -40 b 647 -110 673 -78 657 -95 b 629 -150 637 -126 631 -139 b 626 -176 627 -161 626 -170 b 644 -246 626 -206 632 -229 b 688 -283 656 -262 671 -275 b 738 -299 704 -292 721 -297 b 775 -301 754 -300 767 -301 z m 603 383 l 346 383 l 475 747 l 478 747 z "},"ą":{"ha":797,"x_min":0,"x_max":0,"o":"m 558 -301 b 654 -281 590 -301 622 -294 b 744 -207 687 -267 717 -242 l 678 -176 b 639 -210 665 -194 652 -205 b 597 -218 626 -216 612 -218 b 560 -205 583 -218 571 -214 b 543 -171 549 -196 543 -185 b 567 -94 543 -147 551 -121 b 653 0 582 -69 611 -38 l 744 0 b 725 67 735 15 729 37 b 719 160 721 96 719 127 l 719 533 b 690 638 719 577 710 612 b 615 700 671 665 646 685 b 514 730 585 715 551 725 b 404 738 477 735 440 738 b 285 726 364 738 325 734 b 179 686 246 718 211 705 b 101 613 148 668 122 643 b 67 497 81 582 69 544 l 264 497 b 303 581 268 536 281 564 b 394 606 325 597 356 606 b 444 602 412 606 428 604 b 484 588 459 600 472 595 b 512 559 496 581 505 572 b 522 508 519 547 522 530 b 504 462 523 488 517 472 b 451 438 491 451 474 443 b 375 425 429 432 404 428 b 288 414 346 422 317 419 b 199 395 258 409 228 403 b 122 360 170 387 144 375 b 66 297 99 344 80 323 b 44 196 52 270 44 237 b 63 100 44 159 51 127 b 115 33 76 73 93 51 b 193 -6 138 16 163 3 b 289 -18 223 -14 255 -18 b 419 1 333 -18 377 -12 b 531 69 462 14 499 37 b 535 34 531 57 533 46 b 544 0 538 22 541 11 l 560 0 b 478 -58 525 -20 497 -40 b 431 -110 456 -78 441 -95 b 413 -150 420 -126 414 -139 b 410 -176 411 -161 410 -170 b 428 -246 410 -206 416 -229 b 471 -283 440 -262 454 -275 b 521 -299 488 -292 504 -297 b 558 -301 538 -300 550 -301 z m 363 113 b 317 117 347 113 331 114 b 278 131 302 119 289 124 b 251 160 267 138 258 148 b 242 204 245 172 242 187 b 251 250 242 223 245 238 b 277 280 258 262 266 272 b 315 299 288 288 300 294 b 358 310 329 303 344 307 b 406 317 374 312 390 315 b 451 324 421 319 436 321 b 491 334 465 326 478 330 b 522 351 503 338 514 344 l 522 278 b 519 233 522 267 521 252 b 500 178 516 215 510 197 b 453 132 490 160 474 145 b 363 113 431 119 401 113 z "},"Ć":{"ha":1029,"x_min":0,"x_max":0,"o":"m 757 658 l 757 658 l 968 658 b 921 811 962 716 946 767 b 826 923 896 856 864 893 b 695 992 787 953 744 976 b 540 1015 647 1007 595 1015 b 335 975 464 1015 396 1002 b 182 864 275 948 224 911 b 86 698 140 817 108 761 b 53 492 64 634 53 566 b 86 290 53 419 64 352 b 182 126 108 227 140 173 b 335 17 224 80 275 44 b 540 -22 396 -9 464 -22 b 708 6 601 -22 657 -13 b 842 86 759 24 804 51 b 933 214 880 121 910 164 b 976 382 956 264 971 320 l 765 382 b 697 221 757 315 734 262 b 540 160 659 180 607 160 b 415 188 491 160 450 169 b 332 264 381 207 353 232 b 285 370 311 295 295 331 b 271 492 276 409 271 450 b 285 618 271 535 276 577 b 332 727 295 659 311 695 b 415 803 353 759 381 784 b 540 832 450 822 491 832 b 617 819 567 832 593 828 b 683 782 642 810 664 798 b 732 727 703 766 719 748 b 757 658 745 706 753 683 z m 422 1081 l 560 1081 l 774 1278 l 556 1278 z "},"ć":{"ha":797,"x_min":0,"x_max":0,"o":"m 564 465 l 564 465 l 757 465 b 724 585 754 512 743 552 b 648 670 704 619 679 647 b 542 721 617 693 582 710 b 419 738 503 732 462 738 b 264 708 361 738 309 728 b 149 627 219 689 180 662 b 77 503 117 592 93 551 b 53 349 61 456 53 404 b 79 201 53 295 62 246 b 153 85 97 156 121 117 b 267 9 184 52 222 27 b 415 -18 312 -9 362 -18 b 650 57 511 -18 589 7 b 761 275 711 107 748 180 l 571 275 b 523 169 564 231 548 195 b 414 129 497 142 461 129 b 336 150 383 129 357 136 b 285 203 315 164 298 182 b 258 276 273 225 264 250 b 250 356 253 303 250 330 b 258 437 250 382 253 409 b 287 512 264 464 273 489 b 339 567 300 534 318 553 b 418 589 360 582 387 589 b 564 465 502 589 551 548 z m 306 807 l 443 807 l 657 1004 l 439 1004 z "},"Ĉ":{"ha":1029,"x_min":0,"x_max":0,"o":"m 53 492 b 86 290 53 420 64 353 b 182 126 108 227 140 173 b 335 17 224 80 275 44 b 540 -24 395 -10 463 -24 b 708 5 601 -24 657 -14 b 842 86 759 24 804 51 b 933 214 880 121 910 164 b 976 382 956 264 971 320 l 765 382 b 697 221 757 315 734 262 b 540 160 659 180 607 160 b 415 188 491 160 450 169 b 332 264 381 207 353 232 b 285 370 311 295 295 331 b 271 492 276 409 271 450 b 285 618 271 535 276 577 b 332 727 295 659 311 695 b 415 803 353 759 381 784 b 540 832 450 822 491 832 b 617 819 567 832 593 828 b 683 782 642 810 664 798 b 732 727 703 766 719 748 b 757 658 745 706 753 683 l 968 658 b 921 811 962 716 946 767 b 826 923 896 856 864 893 b 694 992 787 953 744 976 b 540 1015 645 1007 594 1015 b 335 975 463 1015 395 1002 b 182 864 275 948 224 911 b 86 697 140 817 108 761 b 53 492 64 633 53 565 z m 446 1279 l 292 1082 l 444 1082 l 533 1194 l 619 1082 l 779 1082 l 626 1279 z "},"ĉ":{"ha":797,"x_min":0,"x_max":0,"o":"m 564 465 l 757 465 b 724 585 754 511 743 550 b 648 670 704 619 679 647 b 542 721 617 693 582 710 b 419 738 503 732 462 738 b 264 708 361 738 309 728 b 149 627 219 689 180 662 b 77 503 117 592 93 551 b 53 349 61 456 53 404 b 79 201 53 295 62 246 b 153 84 97 156 121 117 b 267 8 184 51 222 26 b 415 -19 311 -10 361 -19 b 650 56 511 -19 589 6 b 761 275 711 107 748 180 l 571 275 b 523 169 564 231 548 195 b 414 129 497 142 461 129 b 336 150 383 129 357 136 b 285 203 315 164 298 182 b 258 276 273 225 264 250 b 250 356 253 303 250 330 b 258 436 250 381 253 408 b 287 512 264 464 273 489 b 339 567 300 534 318 553 b 418 589 360 582 387 589 b 564 465 502 589 551 548 z m 335 1015 l 181 818 l 333 818 l 422 931 l 508 818 l 668 818 l 515 1015 z "},"Ċ":{"ha":1029,"x_min":0,"x_max":0,"o":"m 53 492 b 86 290 53 420 64 353 b 182 126 108 227 140 173 b 335 17 224 80 275 44 b 540 -24 395 -10 463 -24 b 708 5 601 -24 657 -14 b 842 86 759 24 804 51 b 933 214 880 121 910 164 b 976 382 956 264 971 320 l 765 382 b 697 221 757 315 734 262 b 540 160 659 180 607 160 b 415 188 491 160 450 169 b 332 264 381 207 353 232 b 285 370 311 295 295 331 b 271 492 276 409 271 450 b 285 618 271 535 276 577 b 332 727 295 659 311 695 b 415 803 353 759 381 784 b 540 832 450 822 491 832 b 617 819 567 832 593 828 b 683 782 642 810 664 798 b 732 727 703 766 719 748 b 757 658 745 706 753 683 l 968 658 b 921 811 962 716 946 767 b 826 923 896 856 864 893 b 694 992 787 953 744 976 b 540 1015 645 1007 594 1015 b 335 975 463 1015 395 1002 b 182 864 275 948 224 911 b 86 697 140 817 108 761 b 53 492 64 633 53 565 z m 439 1257 l 439 1094 l 626 1094 l 626 1257 z "},"ċ":{"ha":797,"x_min":0,"x_max":0,"o":"m 564 465 l 757 465 b 724 585 754 511 743 550 b 648 670 704 619 679 647 b 542 721 617 693 582 710 b 419 738 503 732 462 738 b 264 708 361 738 309 728 b 149 627 219 689 180 662 b 77 503 117 592 93 551 b 53 349 61 456 53 404 b 79 201 53 295 62 246 b 153 84 97 156 121 117 b 267 8 184 51 222 26 b 415 -19 311 -10 361 -19 b 650 56 511 -19 589 6 b 761 275 711 107 748 180 l 571 275 b 523 169 564 231 548 195 b 414 129 497 142 461 129 b 336 150 383 129 357 136 b 285 203 315 164 298 182 b 258 276 273 225 264 250 b 250 356 253 303 250 330 b 258 436 250 381 253 408 b 287 512 264 464 273 489 b 339 567 300 534 318 553 b 418 589 360 582 387 589 b 564 465 502 589 551 548 z m 329 993 l 329 831 l 517 831 l 517 993 z "},"Č":{"ha":1029,"x_min":0,"x_max":0,"o":"m 53 492 b 86 290 53 420 64 353 b 182 126 108 227 140 173 b 335 17 224 80 275 44 b 540 -24 395 -10 463 -24 b 708 5 601 -24 657 -14 b 842 86 759 24 804 51 b 933 214 880 121 910 164 b 976 382 956 264 971 320 l 765 382 b 697 221 757 315 734 262 b 540 160 659 180 607 160 b 415 188 491 160 450 169 b 332 264 381 207 353 232 b 285 370 311 295 295 331 b 271 492 276 409 271 450 b 285 618 271 535 276 577 b 332 727 295 659 311 695 b 415 803 353 759 381 784 b 540 832 450 822 491 832 b 617 819 567 832 593 828 b 683 782 642 810 664 798 b 732 727 703 766 719 748 b 757 658 745 706 753 683 l 968 658 b 921 811 962 716 946 767 b 826 923 896 856 864 893 b 694 992 787 953 744 976 b 540 1015 645 1007 594 1015 b 335 975 463 1015 395 1002 b 182 864 275 948 224 911 b 86 697 140 817 108 761 b 53 492 64 633 53 565 z m 622 1082 l 776 1279 l 624 1279 l 535 1167 l 449 1279 l 289 1279 l 442 1082 z "},"č":{"ha":797,"x_min":0,"x_max":0,"o":"m 564 465 l 757 465 b 724 585 754 511 743 550 b 648 670 704 619 679 647 b 542 721 617 693 582 710 b 419 738 503 732 462 738 b 264 708 361 738 309 728 b 149 627 219 689 180 662 b 77 503 117 592 93 551 b 53 349 61 456 53 404 b 79 201 53 295 62 246 b 153 84 97 156 121 117 b 267 8 184 51 222 26 b 415 -19 311 -10 361 -19 b 650 56 511 -19 589 6 b 761 275 711 107 748 180 l 571 275 b 523 169 564 231 548 195 b 414 129 497 142 461 129 b 336 150 383 129 357 136 b 285 203 315 164 298 182 b 258 276 273 225 264 250 b 250 356 253 303 250 330 b 258 436 250 381 253 408 b 287 512 264 464 273 489 b 339 567 300 534 318 553 b 418 589 360 582 387 589 b 564 465 502 589 551 548 z m 514 818 l 668 1015 l 515 1015 l 426 903 l 340 1015 l 181 1015 l 333 818 z "},"Ď":{"ha":1029,"x_min":0,"x_max":0,"o":"m 96 992 l 96 0 l 524 0 b 722 38 600 0 666 13 b 862 143 778 64 824 99 b 946 301 899 188 927 240 b 974 501 964 363 974 429 b 940 716 974 583 962 654 b 845 869 917 778 885 829 b 702 961 805 910 757 941 b 524 992 647 981 588 992 z m 508 183 l 314 183 l 314 808 l 469 808 b 605 785 523 808 568 801 b 693 719 641 770 671 748 b 741 616 715 691 731 656 b 756 481 751 576 756 531 b 735 342 756 426 749 380 b 679 249 721 304 702 273 b 600 199 656 226 630 209 b 508 183 570 188 540 183 z m 551 1082 l 706 1279 l 553 1279 l 464 1167 l 378 1279 l 218 1279 l 371 1082 z "},"ď":{"ha":849,"x_min":0,"x_max":0,"o":"m 588 92 l 588 0 l 775 0 l 775 992 l 578 992 l 578 631 l 575 631 b 484 710 553 666 522 692 b 363 738 446 728 405 738 b 224 706 310 738 263 727 b 124 624 184 685 151 658 b 65 505 98 589 78 550 b 44 365 51 460 44 413 b 65 221 44 315 51 267 b 124 98 78 175 98 134 b 224 13 151 62 184 34 b 367 -19 265 -9 312 -19 b 494 7 414 -19 456 -11 b 585 92 531 25 562 53 z m 585 361 b 576 275 585 331 582 303 b 549 201 571 247 562 222 b 497 149 536 179 518 162 b 415 129 475 136 448 129 b 337 149 385 129 359 136 b 283 202 315 163 297 180 b 251 276 268 224 258 249 b 242 360 245 304 242 332 b 251 444 242 388 245 417 b 280 518 257 472 266 497 b 333 569 293 539 311 556 b 415 589 356 582 383 589 b 495 569 447 589 473 582 b 548 519 517 556 534 540 b 576 446 561 498 571 474 b 585 361 582 418 585 390 z m 976 794 l 1089 992 l 883 992 l 840 794 z "},"Đ":{"ha":1029,"x_min":0,"x_max":0,"o":"m 96 444 l 96 0 l 524 0 b 722 38 600 0 666 13 b 862 143 778 64 824 99 b 946 301 899 188 927 240 b 974 501 964 363 974 429 b 940 716 974 583 962 654 b 845 869 917 778 885 829 b 702 961 805 910 757 941 b 524 992 647 981 588 992 l 96 992 l 96 581 l -6 581 l -6 444 z m 314 581 l 314 808 l 469 808 b 605 785 523 808 568 801 b 693 719 641 770 671 748 b 741 616 715 691 731 656 b 756 481 751 576 756 531 b 735 342 756 426 749 380 b 679 249 721 304 702 273 b 600 199 656 226 630 209 b 508 183 570 188 540 183 l 314 183 l 314 443 l 536 443 l 536 581 z "},"đ":{"ha":863,"x_min":0,"x_max":0,"o":"m 358 894 l 358 789 l 578 789 l 578 631 l 575 631 b 484 710 553 666 522 692 b 363 738 446 728 405 738 b 224 706 310 738 263 727 b 124 624 184 685 151 658 b 65 505 98 589 78 550 b 44 365 51 460 44 413 b 65 221 44 315 51 267 b 124 98 78 175 98 134 b 224 13 151 62 184 34 b 367 -19 265 -9 312 -19 b 494 7 414 -19 456 -11 b 585 92 531 25 562 53 l 588 92 l 588 0 l 775 0 l 775 789 l 888 789 l 888 894 l 775 894 l 775 992 l 578 992 l 578 894 z m 585 361 b 576 275 585 331 582 303 b 549 201 571 247 562 222 b 497 149 536 179 518 162 b 415 129 475 136 448 129 b 337 149 385 129 359 136 b 283 202 315 163 297 180 b 251 276 268 224 258 249 b 242 360 245 304 242 332 b 251 444 242 388 245 417 b 280 518 257 472 266 497 b 333 569 293 539 311 556 b 415 589 356 582 383 589 b 495 569 447 589 473 582 b 548 519 517 556 534 540 b 576 446 561 498 571 474 b 585 361 582 418 585 390 z "},"Ē":{"ha":900,"x_min":0,"x_max":0,"o":"m 96 992 l 96 0 l 849 0 l 849 183 l 314 183 l 314 426 l 794 426 l 794 596 l 314 596 l 314 808 l 838 808 l 838 992 z m 215 1228 l 215 1124 l 706 1124 l 706 1228 z "},"ē":{"ha":797,"x_min":0,"x_max":0,"o":"m 238 311 l 756 311 b 742 471 759 367 755 420 b 678 607 729 522 708 567 b 567 702 649 647 612 678 b 407 738 521 726 468 738 b 258 708 352 738 303 728 b 142 628 213 689 174 662 b 67 508 109 595 84 555 b 40 358 49 462 40 412 b 66 206 40 303 49 252 b 139 86 83 159 107 119 b 254 8 170 53 209 27 b 407 -19 300 -10 350 -19 b 615 37 488 -19 558 -1 b 743 222 673 74 715 136 l 569 222 b 517 159 563 200 545 179 b 414 129 488 139 454 129 b 286 172 358 129 316 144 b 238 311 256 201 240 247 z m 558 436 l 238 436 b 247 483 238 450 241 466 b 273 533 252 501 260 518 b 322 573 285 549 302 562 b 401 589 343 584 369 589 b 509 550 450 589 485 576 b 558 436 533 524 549 486 z m 163 964 l 163 860 l 653 860 l 653 964 z "},"Ĕ":{"ha":900,"x_min":0,"x_max":0,"o":"m 96 992 l 96 0 l 849 0 l 849 183 l 314 183 l 314 426 l 794 426 l 794 596 l 314 596 l 314 808 l 838 808 l 838 992 z m 319 1279 l 229 1279 b 294 1133 235 1215 256 1166 b 450 1082 331 1099 383 1082 b 619 1128 519 1082 576 1097 b 697 1279 662 1159 688 1210 l 610 1279 b 558 1208 601 1247 584 1223 b 457 1186 532 1194 499 1186 b 414 1191 443 1186 429 1188 b 372 1207 399 1194 385 1200 b 338 1235 358 1214 347 1224 b 319 1279 328 1247 322 1262 z "},"ĕ":{"ha":797,"x_min":0,"x_max":0,"o":"m 238 311 l 756 311 b 742 471 759 367 755 420 b 678 607 729 522 708 567 b 567 702 649 647 612 678 b 407 738 521 726 468 738 b 258 708 352 738 303 728 b 142 628 213 689 174 662 b 67 508 109 595 84 555 b 40 358 49 462 40 412 b 66 206 40 303 49 252 b 139 86 83 159 107 119 b 254 8 170 53 209 27 b 407 -19 300 -10 350 -19 b 615 37 488 -19 558 -1 b 743 222 673 74 715 136 l 569 222 b 517 159 563 200 545 179 b 414 129 488 139 454 129 b 286 172 358 129 316 144 b 238 311 256 201 240 247 z m 558 436 l 238 436 b 247 483 238 450 241 466 b 273 533 252 501 260 518 b 322 573 285 549 302 562 b 401 589 343 584 369 589 b 509 550 450 589 485 576 b 558 436 533 524 549 486 z m 267 1015 l 176 1015 b 241 869 182 951 203 903 b 397 818 278 835 331 818 b 566 865 467 818 523 834 b 644 1015 609 896 635 946 l 557 1015 b 506 944 549 983 531 959 b 404 922 480 930 446 922 b 361 927 390 922 376 924 b 319 943 346 930 332 936 b 285 972 305 950 294 960 b 267 1015 275 983 269 998 z "},"Ė":{"ha":900,"x_min":0,"x_max":0,"o":"m 96 992 l 96 0 l 849 0 l 849 183 l 314 183 l 314 426 l 794 426 l 794 596 l 314 596 l 314 808 l 838 808 l 838 992 z m 365 1257 l 365 1094 l 553 1094 l 553 1257 z "},"ė":{"ha":797,"x_min":0,"x_max":0,"o":"m 238 311 l 756 311 b 742 471 759 367 755 420 b 678 607 729 522 708 567 b 567 702 649 647 612 678 b 407 738 521 726 468 738 b 258 708 352 738 303 728 b 142 628 213 689 174 662 b 67 508 109 595 84 555 b 40 358 49 462 40 412 b 66 206 40 303 49 252 b 139 86 83 159 107 119 b 254 8 170 53 209 27 b 407 -19 300 -10 350 -19 b 615 37 488 -19 558 -1 b 743 222 673 74 715 136 l 569 222 b 517 159 563 200 545 179 b 414 129 488 139 454 129 b 286 172 358 129 316 144 b 238 311 256 201 240 247 z m 558 436 l 238 436 b 247 483 238 450 241 466 b 273 533 252 501 260 518 b 322 573 285 549 302 562 b 401 589 343 584 369 589 b 509 550 450 589 485 576 b 558 436 533 524 549 486 z m 313 993 l 313 831 l 500 831 l 500 993 z "},"Ę":{"ha":900,"x_min":0,"x_max":0,"o":"m 663 -301 b 758 -281 694 -301 726 -294 b 849 -207 791 -267 821 -242 l 782 -176 b 743 -210 769 -194 756 -205 b 701 -218 730 -216 716 -218 b 664 -205 688 -218 675 -214 b 647 -171 653 -196 647 -185 b 671 -94 647 -147 655 -121 b 757 0 687 -69 715 -38 l 849 0 l 849 183 l 314 183 l 314 426 l 794 426 l 794 596 l 314 596 l 314 808 l 838 808 l 838 992 l 96 992 l 96 0 l 664 0 b 582 -58 629 -20 601 -40 b 535 -110 561 -78 545 -95 b 517 -150 525 -126 519 -139 b 514 -176 515 -161 514 -170 b 532 -246 514 -206 520 -229 b 575 -283 544 -262 558 -275 b 625 -299 592 -292 608 -297 b 663 -301 642 -300 654 -301 z "},"ę":{"ha":797,"x_min":0,"x_max":0,"o":"m 385 -301 b 481 -281 416 -301 448 -294 b 571 -207 513 -267 543 -242 l 504 -176 b 465 -210 491 -194 478 -205 b 424 -218 452 -216 438 -218 b 386 -205 410 -218 397 -214 b 369 -171 375 -196 369 -185 b 393 -94 369 -147 377 -121 b 464 -14 407 -72 431 -45 b 615 38 521 -7 572 10 b 743 222 673 75 715 136 l 569 222 b 517 159 563 200 545 179 b 414 129 488 139 454 129 b 286 172 358 129 316 144 b 238 311 256 201 240 247 l 756 311 b 742 471 759 367 755 420 b 678 607 729 522 708 567 b 567 702 649 647 612 678 b 407 738 521 726 468 738 b 258 708 352 738 303 728 b 142 628 213 689 174 662 b 67 508 109 595 84 555 b 40 358 49 462 40 412 b 66 206 40 303 49 252 b 139 86 83 159 107 119 b 254 8 170 53 209 27 b 360 -15 287 -4 322 -12 b 304 -58 338 -30 319 -44 b 257 -110 283 -78 267 -95 b 239 -150 247 -126 241 -139 b 236 -176 237 -161 236 -170 b 254 -246 236 -206 242 -229 b 297 -283 266 -262 281 -275 b 347 -299 314 -292 331 -297 b 385 -301 364 -300 376 -301 z m 558 436 l 238 436 b 247 483 238 450 241 466 b 273 533 252 501 260 518 b 323 573 285 549 302 562 b 401 589 344 584 370 589 b 509 550 450 589 485 576 b 558 436 533 524 549 486 z "},"Ě":{"ha":900,"x_min":0,"x_max":0,"o":"m 96 992 l 96 0 l 849 0 l 849 183 l 314 183 l 314 426 l 794 426 l 794 596 l 314 596 l 314 808 l 838 808 l 838 992 z m 551 1082 l 706 1279 l 553 1279 l 464 1167 l 378 1279 l 218 1279 l 371 1082 z "},"ě":{"ha":797,"x_min":0,"x_max":0,"o":"m 238 311 l 756 311 b 742 471 759 367 755 420 b 678 607 729 522 708 567 b 567 702 649 647 612 678 b 407 738 521 726 468 738 b 258 708 352 738 303 728 b 142 628 213 689 174 662 b 67 508 109 595 84 555 b 40 358 49 462 40 412 b 66 206 40 303 49 252 b 139 86 83 159 107 119 b 254 8 170 53 209 27 b 407 -19 300 -10 350 -19 b 615 37 488 -19 558 -1 b 743 222 673 74 715 136 l 569 222 b 517 159 563 200 545 179 b 414 129 488 139 454 129 b 286 172 358 129 316 144 b 238 311 256 201 240 247 z m 558 436 l 238 436 b 247 483 238 450 241 466 b 273 533 252 501 260 518 b 322 573 285 549 302 562 b 401 589 343 584 369 589 b 509 550 450 589 485 576 b 558 436 533 524 549 486 z m 499 818 l 653 1015 l 500 1015 l 411 903 l 325 1015 l 165 1015 l 318 818 z "},"Ĝ":{"ha":1054,"x_min":0,"x_max":0,"o":"m 53 492 b 86 290 53 420 64 353 b 182 126 108 227 140 173 b 335 17 224 80 275 44 b 540 -24 395 -10 463 -24 b 683 7 588 -24 636 -13 b 813 113 731 27 774 63 l 835 0 l 974 0 l 974 536 l 557 536 l 557 374 l 776 374 b 708 215 770 304 747 251 b 540 160 668 178 613 160 b 415 188 491 160 450 169 b 332 264 381 207 353 232 b 285 370 311 295 295 331 b 271 492 276 409 271 450 b 285 618 271 535 276 577 b 332 727 295 659 311 695 b 415 803 353 759 381 784 b 540 832 450 822 491 832 b 675 790 593 832 638 818 b 750 665 712 763 737 721 l 958 665 b 912 815 953 722 937 772 b 817 925 886 859 855 895 b 688 992 779 955 736 977 b 540 1015 641 1008 591 1015 b 335 975 463 1015 395 1002 b 182 864 275 948 224 911 b 86 697 140 817 108 761 b 53 492 64 633 53 565 z m 446 1279 l 292 1082 l 444 1082 l 533 1194 l 619 1082 l 779 1082 l 626 1279 z "},"ĝ":{"ha":849,"x_min":0,"x_max":0,"o":"m 765 46 l 765 718 l 578 718 l 578 622 l 575 622 b 485 711 551 664 521 694 b 361 738 450 729 408 738 b 228 708 311 738 267 728 b 132 630 190 689 158 663 b 73 516 106 597 86 559 b 53 382 59 473 53 428 b 70 242 53 333 59 286 b 125 127 82 198 100 160 b 220 49 150 94 182 68 b 360 21 259 30 305 21 b 484 48 403 21 445 30 b 575 132 523 66 554 94 l 578 132 l 578 38 b 541 -91 579 -15 566 -58 b 419 -140 516 -124 475 -140 b 326 -119 384 -140 353 -133 b 272 -42 300 -104 281 -79 l 76 -42 b 110 -147 79 -82 91 -117 b 185 -218 130 -176 155 -200 b 285 -259 216 -237 249 -250 b 393 -272 322 -268 358 -272 b 590 -239 475 -272 541 -261 b 703 -157 639 -217 677 -189 b 753 -53 729 -125 746 -90 b 765 46 761 -17 765 16 z m 410 169 b 333 189 379 169 354 176 b 284 239 313 202 297 219 b 258 308 272 259 263 282 b 250 385 253 333 250 359 b 259 462 250 412 253 437 b 288 527 265 486 275 508 b 338 572 302 546 318 561 b 410 589 358 583 382 589 b 490 571 441 589 468 583 b 542 522 511 559 529 543 b 569 451 555 502 564 478 b 578 368 575 425 578 397 b 567 294 578 342 574 317 b 536 231 560 270 550 249 b 483 186 522 212 505 197 b 410 169 462 175 438 169 z m 342 1015 l 188 818 l 340 818 l 429 931 l 515 818 l 675 818 l 522 1015 z "},"Ğ":{"ha":1054,"x_min":0,"x_max":0,"o":"m 53 492 b 86 290 53 420 64 353 b 182 126 108 227 140 173 b 335 17 224 80 275 44 b 540 -24 395 -10 463 -24 b 683 7 588 -24 636 -13 b 813 113 731 27 774 63 l 835 0 l 974 0 l 974 536 l 557 536 l 557 374 l 776 374 b 708 215 770 304 747 251 b 540 160 668 178 613 160 b 415 188 491 160 450 169 b 332 264 381 207 353 232 b 285 370 311 295 295 331 b 271 492 276 409 271 450 b 285 618 271 535 276 577 b 332 727 295 659 311 695 b 415 803 353 759 381 784 b 540 832 450 822 491 832 b 675 790 593 832 638 818 b 750 665 712 763 737 721 l 958 665 b 912 815 953 722 937 772 b 817 925 886 859 855 895 b 688 992 779 955 736 977 b 540 1015 641 1008 591 1015 b 335 975 463 1015 395 1002 b 182 864 275 948 224 911 b 86 697 140 817 108 761 b 53 492 64 633 53 565 z m 393 1279 l 303 1279 b 367 1133 308 1215 330 1166 b 524 1082 405 1099 457 1082 b 692 1128 593 1082 649 1097 b 771 1279 735 1159 762 1210 l 683 1279 b 632 1208 675 1247 658 1223 b 531 1186 606 1194 572 1186 b 488 1191 517 1186 502 1188 b 445 1207 473 1194 459 1200 b 411 1235 432 1214 420 1224 b 393 1279 402 1247 396 1262 z "},"ğ":{"ha":849,"x_min":0,"x_max":0,"o":"m 765 46 l 765 718 l 578 718 l 578 622 l 575 622 b 485 711 551 664 521 694 b 361 738 450 729 408 738 b 228 708 311 738 267 728 b 132 630 190 689 158 663 b 73 516 106 597 86 559 b 53 382 59 473 53 428 b 70 242 53 333 59 286 b 125 127 82 198 100 160 b 220 49 150 94 182 68 b 360 21 259 30 305 21 b 484 48 403 21 445 30 b 575 132 523 66 554 94 l 578 132 l 578 38 b 541 -91 579 -15 566 -58 b 419 -140 516 -124 475 -140 b 326 -119 384 -140 353 -133 b 272 -42 300 -104 281 -79 l 76 -42 b 110 -147 79 -82 91 -117 b 185 -218 130 -176 155 -200 b 285 -259 216 -237 249 -250 b 393 -272 322 -268 358 -272 b 590 -239 475 -272 541 -261 b 703 -157 639 -217 677 -189 b 753 -53 729 -125 746 -90 b 765 46 761 -17 765 16 z m 410 169 b 333 189 379 169 354 176 b 284 239 313 202 297 219 b 258 308 272 259 263 282 b 250 385 253 333 250 359 b 259 462 250 412 253 437 b 288 527 265 486 275 508 b 338 572 302 546 318 561 b 410 589 358 583 382 589 b 490 571 441 589 468 583 b 542 522 511 559 529 543 b 569 451 555 502 564 478 b 578 368 575 425 578 397 b 567 294 578 342 574 317 b 536 231 560 270 550 249 b 483 186 522 212 505 197 b 410 169 462 175 438 169 z m 289 1015 l 199 1015 b 263 869 204 951 226 903 b 419 818 301 835 353 818 b 588 865 489 818 545 834 b 667 1015 631 896 657 946 l 579 1015 b 528 944 571 983 554 959 b 426 922 502 930 468 922 b 383 927 413 922 398 924 b 341 943 369 930 354 936 b 307 972 328 950 316 960 b 289 1015 298 983 292 998 z "},"Ġ":{"ha":1054,"x_min":0,"x_max":0,"o":"m 53 492 b 86 290 53 420 64 353 b 182 126 108 227 140 173 b 335 17 224 80 275 44 b 540 -24 395 -10 463 -24 b 683 7 588 -24 636 -13 b 813 113 731 27 774 63 l 835 0 l 974 0 l 974 536 l 557 536 l 557 374 l 776 374 b 708 215 770 304 747 251 b 540 160 668 178 613 160 b 415 188 491 160 450 169 b 332 264 381 207 353 232 b 285 370 311 295 295 331 b 271 492 276 409 271 450 b 285 618 271 535 276 577 b 332 727 295 659 311 695 b 415 803 353 759 381 784 b 540 832 450 822 491 832 b 675 790 593 832 638 818 b 750 665 712 763 737 721 l 958 665 b 912 815 953 722 937 772 b 817 925 886 859 855 895 b 688 992 779 955 736 977 b 540 1015 641 1008 591 1015 b 335 975 463 1015 395 1002 b 182 864 275 948 224 911 b 86 697 140 817 108 761 b 53 492 64 633 53 565 z m 439 1257 l 439 1094 l 626 1094 l 626 1257 z "},"ġ":{"ha":849,"x_min":0,"x_max":0,"o":"m 765 46 l 765 718 l 578 718 l 578 622 l 575 622 b 485 711 551 664 521 694 b 361 738 450 729 408 738 b 228 708 311 738 267 728 b 132 630 190 689 158 663 b 73 516 106 597 86 559 b 53 382 59 473 53 428 b 70 242 53 333 59 286 b 125 127 82 198 100 160 b 220 49 150 94 182 68 b 360 21 259 30 305 21 b 484 48 403 21 445 30 b 575 132 523 66 554 94 l 578 132 l 578 38 b 541 -91 579 -15 566 -58 b 419 -140 516 -124 475 -140 b 326 -119 384 -140 353 -133 b 272 -42 300 -104 281 -79 l 76 -42 b 110 -147 79 -82 91 -117 b 185 -218 130 -176 155 -200 b 285 -259 216 -237 249 -250 b 393 -272 322 -268 358 -272 b 590 -239 475 -272 541 -261 b 703 -157 639 -217 677 -189 b 753 -53 729 -125 746 -90 b 765 46 761 -17 765 16 z m 410 169 b 333 189 379 169 354 176 b 284 239 313 202 297 219 b 258 308 272 259 263 282 b 250 385 253 333 250 359 b 259 462 250 412 253 437 b 288 527 265 486 275 508 b 338 572 302 546 318 561 b 410 589 358 583 382 589 b 490 571 441 589 468 583 b 542 522 511 559 529 543 b 569 451 555 502 564 478 b 578 368 575 425 578 397 b 567 294 578 342 574 317 b 536 231 560 270 550 249 b 483 186 522 212 505 197 b 410 169 462 175 438 169 z m 335 993 l 335 831 l 522 831 l 522 993 z "},"Ģ":{"ha":1054,"x_min":0,"x_max":0,"o":"m 53 492 b 86 290 53 420 64 353 b 182 126 108 227 140 173 b 335 17 224 80 275 44 b 540 -24 395 -10 463 -24 b 683 7 588 -24 636 -13 b 813 113 731 27 774 63 l 835 0 l 974 0 l 974 536 l 557 536 l 557 374 l 776 374 b 708 215 770 304 747 251 b 540 160 668 178 613 160 b 415 188 491 160 450 169 b 332 264 381 207 353 232 b 285 370 311 295 295 331 b 271 492 276 409 271 450 b 285 618 271 535 276 577 b 332 727 295 659 311 695 b 415 803 353 759 381 784 b 540 832 450 822 491 832 b 675 790 593 832 638 818 b 750 665 712 763 737 721 l 958 665 b 912 815 953 722 937 772 b 817 925 886 859 855 895 b 688 992 779 955 736 977 b 540 1015 641 1008 591 1015 b 335 975 463 1015 395 1002 b 182 864 275 948 224 911 b 86 697 140 817 108 761 b 53 492 64 633 53 565 z m 426 -69 l 426 -199 l 519 -199 b 493 -236 515 -216 506 -229 b 440 -250 480 -244 463 -248 l 440 -301 b 514 -297 466 -301 491 -300 b 574 -280 537 -294 557 -289 b 613 -241 590 -271 603 -258 b 628 -171 623 -224 628 -200 l 628 -69 z "},"ģ":{"ha":849,"x_min":0,"x_max":0,"o":"m 765 46 l 765 718 l 578 718 l 578 622 l 575 622 b 485 711 551 664 521 694 b 361 738 450 729 408 738 b 228 708 311 738 267 728 b 132 630 190 689 158 663 b 73 516 106 597 86 559 b 53 382 59 473 53 428 b 70 242 53 333 59 286 b 125 127 82 198 100 160 b 220 49 150 94 182 68 b 360 21 259 30 305 21 b 484 48 403 21 445 30 b 575 132 523 66 554 94 l 578 132 l 578 38 b 541 -91 579 -15 566 -58 b 419 -140 516 -124 475 -140 b 326 -119 384 -140 353 -133 b 272 -42 300 -104 281 -79 l 76 -42 b 110 -147 79 -82 91 -117 b 185 -218 130 -176 155 -200 b 285 -259 216 -237 249 -250 b 393 -272 322 -268 358 -272 b 590 -239 475 -272 541 -261 b 703 -157 639 -217 677 -189 b 753 -53 729 -125 746 -90 b 765 46 761 -17 765 16 z m 410 169 b 333 189 379 169 354 176 b 284 239 313 202 297 219 b 258 308 272 259 263 282 b 250 385 253 333 250 359 b 259 462 250 412 253 437 b 288 527 265 486 275 508 b 338 572 302 546 318 561 b 410 589 358 583 382 589 b 490 571 441 589 468 583 b 542 522 511 559 529 543 b 569 451 555 502 564 478 b 578 368 575 425 578 397 b 567 294 578 342 574 317 b 536 231 560 270 550 249 b 483 186 522 212 505 197 b 410 169 462 175 438 169 z m 528 863 l 528 992 l 435 992 b 461 1029 439 1009 448 1022 b 514 1043 474 1037 492 1041 l 514 1094 b 440 1090 487 1094 462 1093 b 381 1073 417 1088 397 1082 b 341 1033 364 1064 351 1051 b 326 964 331 1016 326 993 l 326 863 z "},"Ĥ":{"ha":1029,"x_min":0,"x_max":0,"o":"m 96 992 l 96 0 l 314 0 l 314 428 l 715 428 l 715 0 l 933 0 l 933 992 l 715 992 l 715 611 l 314 611 l 314 992 z m 425 1279 l 271 1082 l 424 1082 l 513 1194 l 599 1082 l 758 1082 l 606 1279 z "},"ĥ":{"ha":824,"x_min":0,"x_max":0,"o":"m 75 992 l 75 0 l 272 0 l 272 376 b 308 534 272 450 284 502 b 425 582 332 566 371 582 b 524 538 472 582 505 567 b 551 406 542 509 551 465 l 551 0 l 749 0 l 749 442 b 737 563 749 486 745 527 b 696 656 729 600 715 631 b 616 716 676 682 650 702 b 486 738 582 730 539 737 b 372 709 449 738 411 728 b 276 618 333 690 301 660 l 272 618 l 272 992 z m 307 1279 l 153 1082 l 306 1082 l 394 1194 l 481 1082 l 640 1082 l 488 1279 z "},"Ħ":{"ha":1029,"x_min":0,"x_max":0,"o":"m 96 992 l 96 0 l 314 0 l 314 390 l 715 390 l 715 0 l 933 0 l 933 992 l 715 992 l 715 840 l 314 840 l 314 992 z m 715 560 l 314 560 l 314 717 l 715 717 z "},"ħ":{"ha":838,"x_min":0,"x_max":0,"o":"m 89 789 l 89 0 l 286 0 l 286 376 b 322 534 286 450 298 502 b 439 582 346 566 385 582 b 538 538 486 582 519 567 b 565 406 556 509 565 465 l 565 0 l 763 0 l 763 442 b 751 563 763 486 759 527 b 710 656 743 600 729 631 b 630 716 690 682 664 702 b 500 738 596 730 553 737 b 386 709 463 738 425 728 b 290 618 347 690 315 660 l 286 618 l 286 789 l 506 789 l 506 894 l 286 894 l 286 992 l 89 992 l 89 894 l -24 894 l -24 789 z "},"Ĩ":{"ha":410,"x_min":0,"x_max":0,"o":"m 96 992 l 96 0 l 314 0 l 314 992 z m 304 1107 b 369 1120 329 1107 351 1111 b 414 1155 387 1129 402 1141 b 442 1205 426 1169 435 1186 b 460 1265 449 1224 455 1244 l 371 1265 b 350 1228 366 1248 359 1235 b 311 1217 341 1220 328 1217 b 266 1224 296 1217 281 1219 b 218 1241 251 1229 235 1235 b 167 1258 201 1247 184 1253 b 113 1265 149 1263 131 1265 b 48 1250 88 1265 67 1260 b -1 1211 29 1240 13 1227 b -34 1157 -15 1195 -26 1177 b -50 1096 -42 1137 -47 1116 l 38 1096 b 59 1138 42 1113 49 1128 b 100 1154 69 1149 82 1154 b 146 1147 115 1154 130 1152 b 194 1131 162 1141 178 1136 b 245 1115 210 1125 227 1120 b 304 1107 263 1110 283 1107 z "},"ĩ":{"ha":358,"x_min":0,"x_max":0,"o":"m 81 718 l 81 0 l 278 0 l 278 718 z m 279 843 b 344 856 304 843 326 847 b 389 891 362 865 377 877 b 417 941 401 905 410 922 b 435 1001 424 960 430 980 l 346 1001 b 325 964 341 984 334 971 b 286 953 316 956 303 953 b 241 960 271 953 256 955 b 193 977 226 966 210 971 b 142 994 176 983 159 989 b 88 1001 124 999 106 1001 b 23 986 63 1001 42 996 b -26 947 4 976 -12 963 b -59 893 -40 931 -51 913 b -75 832 -67 873 -72 852 l 13 832 b 34 874 17 850 24 864 b 75 890 44 885 57 890 b 121 883 90 890 105 888 b 169 867 137 878 153 872 b 220 851 185 861 202 856 b 279 843 238 846 258 843 z "},"Ī":{"ha":410,"x_min":0,"x_max":0,"o":"m 96 992 l 96 0 l 314 0 l 314 992 z m -42 1228 l -42 1124 l 449 1124 l 449 1228 z "},"ī":{"ha":358,"x_min":0,"x_max":0,"o":"m 81 718 l 81 0 l 278 0 l 278 718 z m -65 964 l -65 860 l 425 860 l 425 964 z "},"Ĭ":{"ha":410,"x_min":0,"x_max":0,"o":"m 96 992 l 96 0 l 314 0 l 314 992 z m 63 1279 l -28 1279 b 37 1133 -22 1215 -1 1166 b 193 1082 74 1099 126 1082 b 362 1128 263 1082 319 1097 b 440 1279 405 1159 431 1210 l 353 1279 b 301 1208 344 1247 327 1223 b 200 1186 275 1194 242 1186 b 157 1191 186 1186 172 1188 b 115 1207 142 1194 128 1200 b 81 1235 101 1214 90 1224 b 63 1279 71 1247 65 1262 z "},"ĭ":{"ha":358,"x_min":0,"x_max":0,"o":"m 81 718 l 81 0 l 278 0 l 278 718 z m 39 1015 l -51 1015 b 13 869 -46 951 -24 903 b 169 818 51 835 103 818 b 338 865 239 818 295 834 b 417 1015 381 896 407 946 l 329 1015 b 278 944 321 983 304 959 b 176 922 252 930 218 922 b 133 927 163 922 148 924 b 91 943 119 930 104 936 b 57 972 78 950 66 960 b 39 1015 48 983 42 998 z "},"Į":{"ha":410,"x_min":0,"x_max":0,"o":"m 96 992 l 96 0 l 219 0 b 103 -92 167 -31 128 -62 b 67 -186 79 -122 67 -154 b 104 -270 67 -221 79 -249 b 208 -301 129 -291 164 -301 b 294 -281 243 -301 271 -294 b 360 -215 316 -267 338 -245 l 303 -179 b 274 -208 294 -191 284 -201 b 239 -218 263 -215 252 -218 b 207 -206 226 -218 215 -214 b 194 -168 199 -197 194 -185 b 198 -138 194 -159 196 -149 b 214 -102 200 -128 206 -116 b 250 -58 222 -89 234 -74 b 314 0 266 -41 287 -22 l 314 992 z "},"į":{"ha":358,"x_min":0,"x_max":0,"o":"m 278 829 l 278 992 l 81 992 l 81 829 z m 81 718 l 81 0 l 192 0 b 80 -92 142 -31 104 -62 b 43 -186 55 -122 43 -154 b 81 -270 43 -221 56 -249 b 185 -301 106 -291 140 -301 b 270 -281 219 -301 247 -294 b 336 -215 293 -267 315 -245 l 279 -179 b 250 -208 270 -191 260 -201 b 215 -218 240 -215 228 -218 b 183 -206 202 -218 192 -214 b 171 -168 175 -197 171 -185 b 174 -138 171 -159 172 -149 b 190 -102 177 -128 182 -116 b 222 -58 197 -89 208 -74 b 278 0 236 -41 255 -22 l 278 718 z "},"İ":{"ha":410,"x_min":0,"x_max":0,"o":"m 96 992 l 96 0 l 314 0 l 314 992 z m 111 1257 l 111 1094 l 299 1094 l 299 1257 z "},"ı":{"ha":358,"x_min":0,"x_max":0,"o":"m 81 718 l 278 718 l 278 0 l 81 0 z "},"Ĳ":{"ha":1174,"x_min":0,"x_max":0,"o":"m 96 992 l 96 0 l 314 0 l 314 992 z m 421 369 l 421 283 b 449 144 421 229 430 182 b 522 49 467 105 492 74 b 626 -6 553 24 588 5 b 747 -24 665 -18 706 -24 b 874 -8 796 -24 839 -18 b 965 35 910 3 940 17 b 1024 97 989 53 1009 74 b 1058 168 1038 119 1050 143 b 1074 243 1066 193 1071 218 b 1078 313 1076 268 1078 291 l 1078 992 l 860 992 l 860 322 b 858 267 860 305 859 286 b 845 215 856 248 852 231 b 811 175 838 198 827 185 b 744 160 795 165 773 160 b 681 172 719 160 697 164 b 643 206 665 181 652 192 b 624 258 634 221 627 238 b 618 325 620 279 618 301 l 618 369 z "},"ĳ":{"ha":728,"x_min":0,"x_max":0,"o":"m 278 829 l 278 992 l 81 992 l 81 829 z m 81 718 l 81 0 l 278 0 l 278 718 z m 632 829 l 632 992 l 435 992 l 435 829 z m 315 -85 l 315 -247 b 347 -251 325 -249 336 -250 b 379 -253 358 -252 369 -253 b 503 -240 429 -253 470 -248 b 580 -199 535 -231 561 -217 b 620 -132 599 -181 612 -159 b 632 -36 628 -105 632 -73 l 632 718 l 435 718 l 435 -26 b 412 -78 435 -53 427 -71 b 358 -90 397 -86 379 -90 b 315 -85 340 -90 325 -88 z "},"Ĵ":{"ha":772,"x_min":0,"x_max":0,"o":"m 19 369 l 19 283 b 47 144 19 229 29 182 b 121 49 66 105 90 74 b 225 -6 151 24 186 5 b 346 -24 264 -18 304 -24 b 473 -8 395 -24 437 -18 b 563 35 509 3 539 17 b 622 97 588 53 607 74 b 656 168 637 119 648 143 b 672 243 664 193 669 218 b 676 313 675 268 676 291 l 676 992 l 458 992 l 458 322 b 456 267 458 305 458 286 b 444 215 455 248 451 231 b 410 175 437 198 425 185 b 343 160 394 165 372 160 b 280 172 317 160 296 164 b 242 206 264 181 251 192 b 222 258 232 221 226 238 b 217 325 219 279 217 301 l 217 369 z m 471 1279 l 317 1082 l 469 1082 l 558 1194 l 644 1082 l 804 1082 l 651 1279 z "},"ĵ":{"ha":386,"x_min":0,"x_max":0,"o":"m -26 -85 l -26 -247 b 6 -251 -16 -249 -6 -250 b 38 -253 17 -252 27 -253 b 161 -240 88 -253 129 -248 b 238 -199 194 -231 219 -217 b 278 -132 257 -181 271 -159 b 290 -36 286 -105 290 -73 l 290 718 l 93 718 l 93 -26 b 70 -78 93 -53 85 -71 b 17 -90 55 -86 37 -90 b -26 -85 -2 -90 -16 -88 z m 99 1015 l -56 818 l 97 818 l 186 931 l 272 818 l 432 818 l 279 1015 z "},"Ķ":{"ha":1003,"x_min":0,"x_max":0,"o":"m 96 992 l 96 0 l 314 0 l 314 319 l 439 446 l 738 0 l 1011 0 l 586 600 l 974 992 l 701 992 l 314 581 l 314 992 z m 414 -69 l 414 -199 l 507 -199 b 481 -236 502 -216 494 -229 b 428 -250 468 -244 450 -248 l 428 -301 b 501 -297 454 -301 478 -300 b 561 -280 525 -294 544 -289 b 601 -241 578 -271 591 -258 b 615 -171 610 -224 615 -200 l 615 -69 z "},"ķ":{"ha":797,"x_min":0,"x_max":0,"o":"m 93 992 l 93 0 l 290 0 l 290 247 l 367 321 l 564 0 l 803 0 l 501 454 l 772 718 l 539 718 l 290 460 l 290 992 z m 326 -69 l 326 -199 l 419 -199 b 393 -236 415 -216 406 -229 b 340 -250 380 -244 363 -248 l 340 -301 b 414 -297 366 -301 391 -300 b 474 -280 437 -294 457 -289 b 513 -241 490 -271 503 -258 b 528 -171 523 -224 528 -200 l 528 -69 z "},"ĸ":{"ha":785,"x_min":0,"x_max":0,"o":"m 75 718 l 75 0 l 272 0 l 272 222 l 353 300 l 547 0 l 786 0 l 485 438 l 754 718 l 521 718 l 272 435 l 272 718 z "},"Ĺ":{"ha":824,"x_min":0,"x_max":0,"o":"m 96 992 l 96 0 l 797 0 l 797 183 l 314 183 l 314 992 z m 269 1082 l 483 1279 l 265 1279 l 132 1082 z "},"ĺ":{"ha":358,"x_min":0,"x_max":0,"o":"m 81 992 l 81 0 l 278 0 l 278 992 z m 221 1082 l 435 1279 l 217 1279 l 83 1082 z "},"Ļ":{"ha":824,"x_min":0,"x_max":0,"o":"m 96 992 l 96 0 l 797 0 l 797 183 l 314 183 l 314 992 z m 342 -69 l 342 -199 l 435 -199 b 408 -236 430 -216 421 -229 b 356 -250 395 -244 378 -248 l 356 -301 b 429 -297 381 -301 406 -300 b 489 -280 452 -294 472 -289 b 528 -241 506 -271 519 -258 b 543 -171 538 -224 543 -200 l 543 -69 z "},"ļ":{"ha":358,"x_min":0,"x_max":0,"o":"m 81 992 l 81 0 l 278 0 l 278 992 z m 78 -69 l 78 -199 l 171 -199 b 144 -236 166 -216 157 -229 b 92 -250 131 -244 114 -248 l 92 -301 b 165 -297 118 -301 142 -300 b 225 -280 188 -294 208 -289 b 265 -241 242 -271 255 -258 b 279 -171 274 -224 279 -200 l 279 -69 z "},"Ľ":{"ha":824,"x_min":0,"x_max":0,"o":"m 96 992 l 96 0 l 797 0 l 797 183 l 314 183 l 314 992 z m 558 794 l 671 992 l 465 992 l 422 794 z "},"ľ":{"ha":539,"x_min":0,"x_max":0,"o":"m 81 992 l 81 0 l 278 0 l 278 992 z m 533 558 l 533 992 l 382 992 l 382 558 z "},"Ŀ":{"ha":824,"x_min":0,"x_max":0,"o":"m 96 992 l 96 0 l 797 0 l 797 183 l 314 183 l 314 992 z m 472 625 l 472 463 l 660 463 l 660 625 z "},"ŀ":{"ha":569,"x_min":0,"x_max":0,"o":"m 81 992 l 81 0 l 278 0 l 278 992 z m 363 625 l 363 463 l 550 463 l 550 625 z "},"Ł":{"ha":824,"x_min":0,"x_max":0,"o":"m 96 297 l -14 219 l -14 375 l 96 453 l 96 992 l 314 992 l 314 606 l 607 811 l 607 656 l 314 450 l 314 183 l 797 183 l 797 0 l 96 0 z "},"ł":{"ha":358,"x_min":0,"x_max":0,"o":"m 81 397 l -11 324 l -11 465 l 81 539 l 81 992 l 278 992 l 278 694 l 371 768 l 371 626 l 278 553 l 278 0 l 81 0 z "},"Ń":{"ha":1029,"x_min":0,"x_max":0,"o":"m 313 992 l 96 992 l 96 0 l 300 0 l 300 664 l 303 664 l 715 0 l 933 0 l 933 992 l 729 992 l 729 326 l 726 326 z m 422 1081 l 560 1081 l 774 1278 l 556 1278 z "},"ń":{"ha":824,"x_min":0,"x_max":0,"o":"m 263 718 l 75 718 l 75 0 l 272 0 l 272 376 b 308 534 272 450 284 502 b 425 582 332 566 371 582 b 524 538 472 582 505 567 b 551 406 542 509 551 465 l 551 0 l 749 0 l 749 442 b 737 563 749 486 745 527 b 696 656 729 600 715 631 b 616 716 676 682 650 702 b 486 738 582 730 539 737 b 364 709 444 738 404 728 b 267 618 324 690 292 660 l 263 618 z m 292 807 l 429 807 l 643 1004 l 425 1004 z "},"Ņ":{"ha":1029,"x_min":0,"x_max":0,"o":"m 96 992 l 96 0 l 300 0 l 300 664 l 303 664 l 715 0 l 933 0 l 933 992 l 729 992 l 729 326 l 726 326 l 313 992 z m 417 -69 l 417 -199 l 510 -199 b 483 -236 505 -216 496 -229 b 431 -250 470 -244 453 -248 l 431 -301 b 504 -297 456 -301 481 -300 b 564 -280 527 -294 547 -289 b 603 -241 581 -271 594 -258 b 618 -171 613 -224 618 -200 l 618 -69 z "},"ņ":{"ha":824,"x_min":0,"x_max":0,"o":"m 75 718 l 75 0 l 272 0 l 272 376 b 308 534 272 450 284 502 b 425 582 332 566 371 582 b 524 538 472 582 505 567 b 551 406 542 509 551 465 l 551 0 l 749 0 l 749 442 b 737 563 749 486 745 527 b 696 656 729 600 715 631 b 616 716 676 682 650 702 b 486 738 582 730 539 737 b 364 709 444 738 404 728 b 267 618 324 690 292 660 l 263 618 l 263 718 z m 307 -69 l 307 -199 l 400 -199 b 374 -236 395 -216 387 -229 b 321 -250 361 -244 343 -248 l 321 -301 b 394 -297 347 -301 371 -300 b 454 -280 418 -294 437 -289 b 494 -241 471 -271 484 -258 b 508 -171 503 -224 508 -200 l 508 -69 z "},"Ň":{"ha":1029,"x_min":0,"x_max":0,"o":"m 96 992 l 96 0 l 300 0 l 300 664 l 303 664 l 715 0 l 933 0 l 933 992 l 729 992 l 729 326 l 726 326 l 313 992 z m 599 1082 l 753 1279 l 600 1279 l 511 1167 l 425 1279 l 265 1279 l 418 1082 z "},"ň":{"ha":824,"x_min":0,"x_max":0,"o":"m 75 718 l 75 0 l 272 0 l 272 376 b 308 534 272 450 284 502 b 425 582 332 566 371 582 b 524 538 472 582 505 567 b 551 406 542 509 551 465 l 551 0 l 749 0 l 749 442 b 737 563 749 486 745 527 b 696 656 729 600 715 631 b 616 716 676 682 650 702 b 486 738 582 730 539 737 b 364 709 444 738 404 728 b 267 618 324 690 292 660 l 263 618 l 263 718 z m 501 818 l 656 1015 l 503 1015 l 414 903 l 328 1015 l 168 1015 l 321 818 z "},"ŉ":{"ha":1024,"x_min":0,"x_max":0,"o":"m 275 718 l 275 0 l 472 0 l 472 376 b 508 534 472 450 484 502 b 625 582 532 566 571 582 b 724 538 672 582 705 567 b 751 406 742 509 751 465 l 751 0 l 949 0 l 949 442 b 937 563 949 486 945 527 b 896 656 929 600 915 631 b 816 716 876 682 850 702 b 686 738 782 730 739 737 b 564 709 644 738 604 728 b 467 618 524 690 492 660 l 463 618 l 463 718 z m 28 992 l 28 778 l 119 778 b 100 691 119 744 113 715 b 28 638 87 667 63 650 l 28 546 b 108 572 56 550 83 558 b 171 622 132 585 153 602 b 212 693 188 643 202 666 b 225 779 222 720 226 749 l 225 992 z "},"Ŋ":{"ha":1029,"x_min":0,"x_max":0,"o":"m 96 992 l 96 0 l 300 0 l 300 664 l 303 664 l 732 0 b 702 -65 731 -30 721 -51 b 632 -85 683 -78 660 -85 b 551 -76 612 -85 585 -82 l 551 -244 b 657 -253 591 -250 626 -253 b 788 -237 709 -253 752 -247 b 873 -190 823 -226 851 -210 b 919 -111 895 -169 910 -143 b 933 -1 929 -80 933 -43 l 933 992 l 729 992 l 729 338 l 726 338 l 313 992 z "},"ŋ":{"ha":824,"x_min":0,"x_max":0,"o":"m 401 -85 l 401 -247 b 446 -251 417 -249 432 -250 b 482 -253 460 -252 472 -253 b 611 -237 534 -253 577 -247 b 693 -190 645 -226 673 -210 b 736 -112 713 -169 728 -143 b 749 -8 744 -82 749 -47 l 749 442 b 737 563 749 486 745 527 b 696 656 729 600 715 631 b 616 716 676 682 650 702 b 486 738 582 730 539 737 b 364 709 444 738 404 728 b 267 618 324 690 292 660 l 263 618 l 263 718 l 75 718 l 75 0 l 272 0 l 272 376 b 308 534 272 450 284 502 b 425 582 332 566 371 582 b 524 538 472 582 505 567 b 551 406 542 509 551 465 l 551 -1 b 526 -69 551 -33 543 -56 b 464 -90 509 -83 488 -90 b 401 -85 444 -90 423 -88 z "},"Ō":{"ha":1081,"x_min":0,"x_max":0,"o":"m 53 492 b 86 290 53 420 64 353 b 182 126 108 227 140 173 b 335 17 224 80 275 44 b 540 -24 395 -10 463 -24 b 745 17 616 -24 684 -10 b 899 126 806 44 857 80 b 994 290 940 173 972 227 b 1028 492 1017 353 1028 420 b 994 697 1028 565 1017 633 b 899 864 972 761 940 817 b 745 975 857 911 806 948 b 540 1015 684 1002 616 1015 b 335 975 463 1015 395 1002 b 182 864 275 948 224 911 b 86 697 140 817 108 761 b 53 492 64 633 53 565 z m 271 492 b 285 618 271 535 276 577 b 332 727 295 659 311 695 b 415 803 353 759 381 784 b 540 832 450 822 491 832 b 665 803 589 832 631 822 b 749 727 700 784 727 759 b 795 618 770 695 785 659 b 810 492 805 577 810 535 b 795 370 810 450 805 409 b 749 264 785 331 770 295 b 665 188 727 232 700 207 b 540 160 631 169 589 160 b 415 188 491 160 450 169 b 332 264 381 207 353 232 b 285 370 311 295 295 331 b 271 492 276 409 271 450 z m 296 1228 l 296 1124 l 786 1124 l 786 1228 z "},"ō":{"ha":849,"x_min":0,"x_max":0,"o":"m 53 358 b 79 203 53 301 62 249 b 154 84 97 156 122 117 b 271 8 187 51 225 26 b 424 -19 316 -10 367 -19 b 577 8 480 -19 531 -10 b 694 84 623 26 662 51 b 769 203 727 117 752 156 b 796 358 787 249 796 301 b 769 515 796 416 787 468 b 694 634 752 561 727 601 b 577 710 662 667 623 692 b 424 738 531 728 480 738 b 271 710 367 738 316 728 b 154 634 225 692 187 667 b 79 515 122 601 97 561 b 53 358 62 468 53 416 z m 250 358 b 258 443 250 387 253 415 b 287 517 264 471 273 495 b 340 569 300 538 318 555 b 424 589 363 582 390 589 b 508 569 457 589 485 582 b 562 517 530 555 548 538 b 590 443 575 495 585 471 b 599 358 596 415 599 387 b 590 274 599 330 596 302 b 562 201 585 247 575 222 b 508 149 548 179 530 162 b 424 129 485 136 457 129 b 340 149 390 129 363 136 b 287 201 318 162 300 179 b 258 274 273 222 264 247 b 250 358 253 302 250 330 z m 181 964 l 181 860 l 671 860 l 671 964 z "},"Ŏ":{"ha":1081,"x_min":0,"x_max":0,"o":"m 53 492 b 86 290 53 420 64 353 b 182 126 108 227 140 173 b 335 17 224 80 275 44 b 540 -24 395 -10 463 -24 b 745 17 616 -24 684 -10 b 899 126 806 44 857 80 b 994 290 940 173 972 227 b 1028 492 1017 353 1028 420 b 994 697 1028 565 1017 633 b 899 864 972 761 940 817 b 745 975 857 911 806 948 b 540 1015 684 1002 616 1015 b 335 975 463 1015 395 1002 b 182 864 275 948 224 911 b 86 697 140 817 108 761 b 53 492 64 633 53 565 z m 271 492 b 285 618 271 535 276 577 b 332 727 295 659 311 695 b 415 803 353 759 381 784 b 540 832 450 822 491 832 b 665 803 589 832 631 822 b 749 727 700 784 727 759 b 795 618 770 695 785 659 b 810 492 805 577 810 535 b 795 370 810 450 805 409 b 749 264 785 331 770 295 b 665 188 727 232 700 207 b 540 160 631 169 589 160 b 415 188 491 160 450 169 b 332 264 381 207 353 232 b 285 370 311 295 295 331 b 271 492 276 409 271 450 z m 400 1279 l 310 1279 b 374 1133 315 1215 337 1166 b 531 1082 412 1099 464 1082 b 699 1128 600 1082 656 1097 b 778 1279 742 1159 769 1210 l 690 1279 b 639 1208 682 1247 665 1223 b 538 1186 613 1194 579 1186 b 494 1191 524 1186 509 1188 b 452 1207 480 1194 466 1200 b 418 1235 439 1214 427 1224 b 400 1279 409 1247 403 1262 z "},"ŏ":{"ha":849,"x_min":0,"x_max":0,"o":"m 53 358 b 79 203 53 301 62 249 b 154 84 97 156 122 117 b 271 8 187 51 225 26 b 424 -19 316 -10 367 -19 b 577 8 480 -19 531 -10 b 694 84 623 26 662 51 b 769 203 727 117 752 156 b 796 358 787 249 796 301 b 769 515 796 416 787 468 b 694 634 752 561 727 601 b 577 710 662 667 623 692 b 424 738 531 728 480 738 b 271 710 367 738 316 728 b 154 634 225 692 187 667 b 79 515 122 601 97 561 b 53 358 62 468 53 416 z m 250 358 b 258 443 250 387 253 415 b 287 517 264 471 273 495 b 340 569 300 538 318 555 b 424 589 363 582 390 589 b 508 569 457 589 485 582 b 562 517 530 555 548 538 b 590 443 575 495 585 471 b 599 358 596 415 599 387 b 590 274 599 330 596 302 b 562 201 585 247 575 222 b 508 149 548 179 530 162 b 424 129 485 136 457 129 b 340 149 390 129 363 136 b 287 201 318 162 300 179 b 258 274 273 222 264 247 b 250 358 253 302 250 330 z m 285 1015 l 194 1015 b 259 869 200 951 222 903 b 415 818 297 835 349 818 b 584 865 485 818 541 834 b 663 1015 627 896 653 946 l 575 1015 b 524 944 567 983 550 959 b 422 922 498 930 464 922 b 379 927 408 922 394 924 b 337 943 364 930 350 936 b 303 972 323 950 312 960 b 285 1015 294 983 288 998 z "},"Ő":{"ha":1081,"x_min":0,"x_max":0,"o":"m 53 492 b 86 290 53 420 64 353 b 182 126 108 227 140 173 b 335 17 224 80 275 44 b 540 -24 395 -10 463 -24 b 745 17 616 -24 684 -10 b 899 126 806 44 857 80 b 994 290 940 173 972 227 b 1028 492 1017 353 1028 420 b 994 697 1028 565 1017 633 b 899 864 972 761 940 817 b 745 975 857 911 806 948 b 540 1015 684 1002 616 1015 b 335 975 463 1015 395 1002 b 182 864 275 948 224 911 b 86 697 140 817 108 761 b 53 492 64 633 53 565 z m 271 492 b 285 618 271 535 276 577 b 332 727 295 659 311 695 b 415 803 353 759 381 784 b 540 832 450 822 491 832 b 665 803 589 832 631 822 b 749 727 700 784 727 759 b 795 618 770 695 785 659 b 810 492 805 577 810 535 b 795 370 810 450 805 409 b 749 264 785 331 770 295 b 665 188 727 232 700 207 b 540 160 631 169 589 160 b 415 188 491 160 450 169 b 332 264 381 207 353 232 b 285 370 311 295 295 331 b 271 492 276 409 271 450 z m 736 1082 l 943 1279 l 725 1279 l 599 1082 z m 449 1082 l 656 1279 l 438 1279 l 311 1082 z "},"ő":{"ha":849,"x_min":0,"x_max":0,"o":"m 53 358 b 79 203 53 301 62 249 b 154 84 97 156 122 117 b 271 8 187 51 225 26 b 424 -19 316 -10 367 -19 b 577 8 480 -19 531 -10 b 694 84 623 26 662 51 b 769 203 727 117 752 156 b 796 358 787 249 796 301 b 769 515 796 416 787 468 b 694 634 752 561 727 601 b 577 710 662 667 623 692 b 424 738 531 728 480 738 b 271 710 367 738 316 728 b 154 634 225 692 187 667 b 79 515 122 601 97 561 b 53 358 62 468 53 416 z m 250 358 b 258 443 250 387 253 415 b 287 517 264 471 273 495 b 340 569 300 538 318 555 b 424 589 363 582 390 589 b 508 569 457 589 485 582 b 562 517 530 555 548 538 b 590 443 575 495 585 471 b 599 358 596 415 599 387 b 590 274 599 330 596 302 b 562 201 585 247 575 222 b 508 149 548 179 530 162 b 424 129 485 136 457 129 b 340 149 390 129 363 136 b 287 201 318 162 300 179 b 258 274 273 222 264 247 b 250 358 253 302 250 330 z m 621 818 l 828 1015 l 610 1015 l 483 818 z m 333 818 l 540 1015 l 322 1015 l 196 818 z "},"Œ":{"ha":1518,"x_min":0,"x_max":0,"o":"m 747 622 b 731 708 747 654 742 682 b 687 774 721 733 706 755 b 619 817 668 792 645 806 b 533 832 592 827 564 832 b 411 802 485 832 444 822 b 330 724 378 782 351 756 b 285 616 309 692 294 656 b 271 493 275 576 271 535 b 285 372 271 452 275 412 b 330 265 294 332 309 297 b 410 189 351 234 378 208 b 529 160 443 169 483 160 b 688 222 596 160 649 181 b 747 386 728 264 747 319 z m 756 75 l 753 75 b 644 2 723 43 687 18 b 514 -22 602 -14 558 -22 b 318 19 441 -22 375 -8 b 173 131 261 47 212 84 b 83 294 134 178 104 232 b 53 490 63 356 53 422 b 84 688 53 559 63 625 b 175 856 105 752 135 808 b 322 972 215 905 264 944 b 518 1015 379 1001 445 1015 b 647 994 562 1015 605 1008 b 753 921 690 981 725 956 l 756 921 l 756 992 l 1450 992 l 1450 808 l 958 808 l 958 596 l 1408 596 l 1408 426 l 958 426 l 958 183 l 1460 183 l 1460 0 l 756 0 z "},"œ":{"ha":1286,"x_min":0,"x_max":0,"o":"m 733 311 b 776 181 733 259 747 216 b 904 129 804 147 847 129 b 994 154 940 129 970 138 b 1049 228 1017 171 1036 195 l 1240 228 b 1116 46 1217 149 1176 88 b 904 -18 1056 3 986 -18 b 758 9 854 -18 805 -9 b 644 103 710 27 672 58 b 597 47 631 81 616 62 b 534 9 578 31 557 19 b 463 -12 511 -1 488 -8 b 390 -18 439 -16 414 -18 b 244 13 335 -18 286 -8 b 138 95 202 33 166 60 b 74 217 110 130 89 170 b 53 363 60 263 53 312 b 78 510 53 415 61 465 b 149 629 94 556 118 596 b 260 708 179 663 216 689 b 406 738 303 728 352 738 b 544 712 453 738 499 729 b 653 624 590 695 626 665 b 699 672 665 642 680 658 b 759 708 717 686 737 698 b 826 730 781 717 803 725 b 893 738 850 735 872 738 b 1056 703 957 738 1011 726 b 1165 610 1100 680 1136 649 b 1226 474 1193 571 1213 526 b 1246 311 1239 423 1246 369 z m 403 129 b 483 151 436 129 463 136 b 531 206 504 165 520 184 b 555 281 543 229 551 254 b 561 361 559 309 561 335 b 556 438 561 385 559 411 b 533 511 552 464 544 489 b 487 567 522 533 507 552 b 407 589 467 581 440 589 b 331 568 376 589 351 582 b 283 514 311 554 295 536 b 258 439 271 492 263 467 b 250 356 253 411 250 383 b 257 278 250 331 252 305 b 282 206 262 252 270 228 b 329 151 294 183 310 165 b 403 129 349 136 373 129 z m 1049 436 b 1007 548 1047 483 1033 521 b 889 589 981 575 942 589 b 775 544 839 589 801 574 b 733 436 749 515 735 479 z "},"Ŕ":{"ha":1003,"x_min":0,"x_max":0,"o":"m 96 992 l 96 0 l 314 0 l 314 388 l 532 388 b 650 351 587 388 626 375 b 697 238 674 327 690 289 b 703 176 700 218 702 197 b 709 112 705 154 707 133 b 717 52 711 91 714 71 b 732 0 721 33 725 16 l 950 0 b 927 51 940 14 932 31 b 916 114 922 71 918 92 b 911 179 914 136 912 158 b 908 235 910 200 909 219 b 898 309 906 260 903 284 b 874 377 893 334 885 356 b 831 432 863 398 848 416 b 764 467 813 448 791 459 l 764 469 b 884 567 819 492 859 524 b 921 718 909 609 921 660 b 901 824 921 755 914 790 b 842 911 887 857 868 886 b 751 970 817 936 786 956 b 631 992 715 984 675 992 z m 314 543 l 314 822 l 553 822 b 665 790 603 822 640 811 b 703 685 690 768 703 733 b 665 576 703 635 690 599 b 553 543 640 554 603 543 z m 525 1082 l 739 1279 l 521 1279 l 388 1082 z "},"ŕ":{"ha":540,"x_min":0,"x_max":0,"o":"m 75 718 l 75 0 l 272 0 l 272 324 b 282 413 272 355 275 385 b 315 487 288 441 299 466 b 375 536 330 508 350 524 b 467 554 400 548 431 554 b 504 552 479 554 491 553 b 538 547 517 551 528 549 l 538 731 b 494 738 522 735 507 737 b 422 726 469 738 445 734 b 357 695 399 719 377 709 b 303 647 337 682 319 666 b 265 585 287 628 275 607 l 263 585 l 263 718 z m 356 818 l 569 1015 l 351 1015 l 218 818 z "},"Ŗ":{"ha":1003,"x_min":0,"x_max":0,"o":"m 96 992 l 96 0 l 314 0 l 314 388 l 532 388 b 650 351 587 388 626 375 b 697 238 674 327 690 289 b 703 176 700 218 702 197 b 709 112 705 154 707 133 b 717 52 711 91 714 71 b 732 0 721 33 725 16 l 950 0 b 927 51 940 14 932 31 b 916 114 922 71 918 92 b 911 179 914 136 912 158 b 908 235 910 200 909 219 b 898 309 906 260 903 284 b 874 377 893 334 885 356 b 831 432 863 398 848 416 b 764 467 813 448 791 459 l 764 469 b 884 567 819 492 859 524 b 921 718 909 609 921 660 b 901 824 921 755 914 790 b 842 911 887 857 868 886 b 751 970 817 936 786 956 b 631 992 715 984 675 992 z m 314 543 l 314 822 l 553 822 b 665 790 603 822 640 811 b 703 685 690 768 703 733 b 665 576 703 635 690 599 b 553 543 640 554 603 543 z m 410 -69 l 410 -199 l 503 -199 b 476 -236 498 -216 489 -229 b 424 -250 463 -244 446 -248 l 424 -301 b 497 -297 450 -301 474 -300 b 557 -280 520 -294 540 -289 b 597 -241 574 -271 587 -258 b 611 -171 606 -224 611 -200 l 611 -69 z "},"ŗ":{"ha":540,"x_min":0,"x_max":0,"o":"m 75 718 l 75 0 l 272 0 l 272 324 b 282 413 272 355 275 385 b 315 487 288 441 299 466 b 375 536 330 508 350 524 b 467 554 400 548 431 554 b 504 552 479 554 491 553 b 538 547 517 551 528 549 l 538 731 b 494 738 522 735 507 737 b 422 726 469 738 445 734 b 357 695 399 719 377 709 b 303 647 337 682 319 666 b 265 585 287 628 275 607 l 263 585 l 263 718 z m 74 -69 l 74 -199 l 167 -199 b 140 -236 162 -216 153 -229 b 88 -250 127 -244 110 -248 l 88 -301 b 161 -297 113 -301 138 -300 b 221 -280 184 -294 204 -289 b 260 -241 238 -271 251 -258 b 275 -171 270 -224 275 -200 l 275 -69 z "},"Ř":{"ha":1003,"x_min":0,"x_max":0,"o":"m 96 992 l 96 0 l 314 0 l 314 388 l 532 388 b 650 351 587 388 626 375 b 697 238 674 327 690 289 b 703 176 700 218 702 197 b 709 112 705 154 707 133 b 717 52 711 91 714 71 b 732 0 721 33 725 16 l 950 0 b 927 51 940 14 932 31 b 916 114 922 71 918 92 b 911 179 914 136 912 158 b 908 235 910 200 909 219 b 898 309 906 260 903 284 b 874 377 893 334 885 356 b 831 432 863 398 848 416 b 764 467 813 448 791 459 l 764 469 b 884 567 819 492 859 524 b 921 718 909 609 921 660 b 901 824 921 755 914 790 b 842 911 887 857 868 886 b 751 970 817 936 786 956 b 631 992 715 984 675 992 z m 314 543 l 314 822 l 553 822 b 665 790 603 822 640 811 b 703 685 690 768 703 733 b 665 576 703 635 690 599 b 553 543 640 554 603 543 z m 560 1082 l 714 1279 l 561 1279 l 472 1167 l 386 1279 l 226 1279 l 379 1082 z "},"ř":{"ha":540,"x_min":0,"x_max":0,"o":"m 75 718 l 75 0 l 272 0 l 272 324 b 282 413 272 355 275 385 b 315 487 288 441 299 466 b 375 536 330 508 350 524 b 467 554 400 548 431 554 b 504 552 479 554 491 553 b 538 547 517 551 528 549 l 538 731 b 494 738 522 735 507 737 b 422 726 469 738 445 734 b 357 695 399 719 377 709 b 303 647 337 682 319 666 b 265 585 287 628 275 607 l 263 585 l 263 718 z m 396 818 l 550 1015 l 397 1015 l 308 903 l 222 1015 l 63 1015 l 215 818 z "},"Ś":{"ha":901,"x_min":0,"x_max":0,"o":"m 244 329 l 244 329 l 33 329 b 67 171 32 268 44 215 b 160 61 90 126 121 90 b 297 -2 200 32 245 11 b 456 -22 348 -16 401 -22 b 634 1 523 -22 583 -14 b 763 67 685 17 728 39 b 842 168 798 96 824 129 b 868 294 859 207 868 249 b 833 431 868 350 856 396 b 749 517 809 467 781 495 b 651 563 716 538 684 553 b 574 583 618 573 592 580 b 423 622 512 599 461 612 b 333 653 384 632 354 643 b 289 686 311 663 296 674 b 278 733 281 698 278 714 b 292 786 278 755 282 772 b 327 821 301 800 313 812 b 375 840 341 830 357 837 b 428 846 393 844 410 846 b 502 839 455 846 479 844 b 563 815 525 834 545 826 b 605 769 580 804 594 789 b 624 696 616 750 622 725 l 835 696 b 802 842 835 753 824 802 b 714 942 780 883 751 916 b 587 998 677 968 634 986 b 438 1015 539 1009 489 1015 b 304 997 393 1015 349 1009 b 185 942 260 985 220 967 b 99 848 150 917 121 885 b 67 715 78 810 67 766 b 92 599 67 670 75 631 b 160 519 109 567 132 541 b 254 467 187 498 219 481 b 363 433 289 454 325 443 b 469 406 399 423 434 414 b 564 376 505 397 536 388 b 631 335 592 365 614 351 b 657 269 648 318 657 296 b 638 208 657 244 650 224 b 589 169 625 191 608 179 b 526 151 569 160 549 154 b 464 146 504 147 483 146 b 381 156 435 146 407 149 b 310 188 354 163 330 174 b 263 244 291 203 275 221 b 244 329 250 268 244 296 z m 344 1081 l 482 1081 l 696 1278 l 478 1278 z "},"ś":{"ha":746,"x_min":0,"x_max":0,"o":"m 228 233 l 228 233 l 40 233 b 73 113 42 185 53 145 b 149 36 93 81 118 56 b 256 -6 180 17 216 3 b 378 -18 295 -14 336 -18 b 498 -6 419 -18 459 -14 b 603 35 537 2 572 15 b 677 112 633 54 658 80 b 706 231 696 144 706 183 b 686 315 706 264 699 292 b 635 372 673 337 656 356 b 562 408 613 387 589 399 b 478 432 534 418 506 425 b 396 450 450 438 423 444 b 324 469 369 456 345 462 b 274 496 303 476 287 485 b 254 539 261 507 254 521 b 265 574 254 554 258 566 b 292 594 273 583 282 590 b 328 603 303 599 315 602 b 364 606 341 605 353 606 b 456 585 399 606 430 599 b 499 508 481 572 496 546 l 686 508 b 652 619 682 553 671 590 b 581 689 633 648 609 671 b 483 726 552 706 519 719 b 369 738 446 734 408 737 b 256 727 331 738 293 734 b 156 691 219 720 185 708 b 84 621 126 674 102 650 b 57 507 66 591 57 553 b 76 427 57 475 63 449 b 128 373 89 405 106 387 b 201 338 149 359 173 347 b 285 315 228 329 256 322 b 449 271 355 300 410 286 b 508 204 489 256 508 234 b 496 160 508 187 504 172 b 465 133 488 149 477 140 b 423 117 452 126 438 121 b 379 113 408 114 393 113 b 323 119 360 113 341 115 b 275 141 305 124 289 131 b 241 178 261 151 250 163 b 228 233 232 194 228 212 z m 281 807 l 418 807 l 632 1004 l 414 1004 z "},"Ŝ":{"ha":901,"x_min":0,"x_max":0,"o":"m 244 329 l 33 329 b 67 171 32 268 44 215 b 160 61 90 126 121 90 b 297 -3 200 32 245 11 b 456 -24 348 -17 401 -24 b 634 1 523 -24 583 -16 b 763 67 685 17 728 39 b 842 168 798 96 824 129 b 868 294 859 207 868 249 b 833 431 868 350 856 396 b 749 517 809 467 781 495 b 651 563 716 538 684 553 b 574 583 618 572 592 579 b 423 622 512 599 461 612 b 333 653 384 632 354 643 b 289 686 311 663 296 674 b 278 733 281 698 278 714 b 292 785 278 754 282 771 b 327 821 301 800 313 812 b 375 840 341 830 357 837 b 428 846 393 844 410 846 b 501 839 454 846 478 844 b 563 815 525 834 545 826 b 605 769 580 804 594 789 b 624 696 616 750 622 725 l 835 696 b 802 842 835 753 824 802 b 714 942 780 883 751 916 b 587 998 677 968 634 986 b 438 1015 539 1009 489 1015 b 304 997 393 1015 349 1009 b 185 942 260 985 220 967 b 99 848 150 917 121 885 b 67 715 78 810 67 766 b 92 599 67 669 75 630 b 160 519 109 567 132 541 b 254 467 187 497 219 480 b 363 433 289 454 325 443 b 469 406 399 423 434 414 b 564 376 505 397 536 388 b 631 335 592 365 614 351 b 657 269 648 318 657 296 b 638 208 657 244 650 224 b 589 169 625 191 608 179 b 526 151 569 160 549 154 b 464 146 504 147 483 146 b 380 156 434 146 406 149 b 310 188 353 163 330 174 b 263 244 291 203 275 221 b 244 329 250 268 244 296 z m 367 1279 l 213 1082 l 365 1082 l 454 1194 l 540 1082 l 700 1082 l 547 1279 z "},"ŝ":{"ha":746,"x_min":0,"x_max":0,"o":"m 228 233 l 40 233 b 73 114 42 186 53 146 b 149 35 93 81 118 55 b 256 -7 180 16 216 1 b 378 -19 295 -15 336 -19 b 498 -7 419 -19 459 -15 b 603 35 537 1 572 15 b 677 112 633 54 658 80 b 706 231 696 144 706 183 b 686 315 706 264 699 292 b 635 372 673 337 656 356 b 562 408 613 387 589 399 b 478 432 534 418 506 425 b 396 450 450 438 423 444 b 324 469 369 456 345 462 b 274 496 303 476 287 485 b 254 539 261 507 254 521 b 265 574 254 554 258 566 b 292 594 273 583 282 590 b 328 603 303 599 315 602 b 364 606 341 605 353 606 b 456 585 399 606 430 599 b 499 508 481 572 496 546 l 686 508 b 652 619 682 553 671 590 b 581 689 633 648 609 671 b 483 726 552 706 519 719 b 369 738 446 734 408 737 b 256 727 331 738 293 734 b 156 691 219 720 185 708 b 84 620 126 674 102 650 b 57 507 66 590 57 552 b 76 426 57 475 63 448 b 128 373 89 405 106 387 b 201 338 149 359 173 347 b 285 315 228 329 256 322 b 449 271 355 300 410 286 b 508 204 489 256 508 234 b 496 160 508 187 504 172 b 465 133 488 149 477 140 b 423 117 452 126 438 121 b 379 113 408 114 393 113 b 323 119 360 113 341 115 b 275 141 305 124 289 131 b 241 178 261 151 250 163 b 228 233 232 194 228 212 z m 288 1015 l 133 818 l 286 818 l 375 931 l 461 818 l 621 818 l 468 1015 z "},"Ş":{"ha":901,"x_min":0,"x_max":0,"o":"m 299 -204 l 269 -271 b 346 -294 296 -281 322 -289 b 431 -301 370 -299 398 -301 b 559 -267 486 -301 529 -290 b 604 -172 589 -245 604 -213 b 572 -93 604 -138 593 -112 b 485 -65 550 -75 521 -65 b 458 -67 477 -65 468 -66 b 429 -75 447 -69 438 -71 l 426 -72 l 463 -24 b 638 2 529 -23 588 -14 b 765 69 689 18 731 41 b 842 169 798 97 824 130 b 868 294 859 207 868 249 b 833 431 868 350 856 396 b 749 517 809 467 781 495 b 651 563 716 538 684 553 b 574 583 618 572 592 579 b 423 622 512 599 461 612 b 333 653 384 632 354 643 b 289 686 311 663 296 674 b 278 733 281 698 278 714 b 292 785 278 754 282 771 b 327 821 301 800 313 812 b 375 840 341 830 357 837 b 428 846 393 844 410 846 b 501 839 454 846 478 844 b 563 815 525 834 545 826 b 605 769 580 804 594 789 b 624 696 616 750 622 725 l 835 696 b 802 842 835 753 824 802 b 714 942 780 883 751 916 b 587 998 677 968 634 986 b 438 1015 539 1009 489 1015 b 304 997 393 1015 349 1009 b 185 942 260 985 220 967 b 99 848 150 917 121 885 b 67 715 78 810 67 766 b 92 599 67 669 75 630 b 160 519 109 567 132 541 b 254 467 187 497 219 480 b 363 433 289 454 325 443 b 469 406 399 423 434 414 b 564 376 505 397 536 388 b 631 335 592 365 614 351 b 657 269 648 318 657 296 b 638 208 657 244 650 224 b 589 169 625 191 608 179 b 526 151 569 160 549 154 b 464 146 504 147 483 146 b 380 156 434 146 406 149 b 310 188 353 163 330 174 b 263 244 291 203 275 221 b 244 329 250 268 244 296 l 33 329 b 61 183 32 274 42 225 b 140 77 81 141 107 105 b 257 10 174 49 213 27 b 397 -21 301 -6 348 -16 l 331 -114 l 360 -147 b 385 -139 369 -144 378 -141 b 413 -136 393 -137 402 -136 b 454 -148 429 -136 443 -140 b 471 -182 465 -156 471 -167 b 408 -229 471 -213 450 -229 b 351 -222 390 -229 371 -227 b 299 -204 331 -216 313 -211 z "},"ş":{"ha":746,"x_min":0,"x_max":0,"o":"m 221 -204 l 192 -271 b 268 -294 219 -281 244 -289 b 353 -301 292 -299 320 -301 b 481 -267 408 -301 451 -290 b 526 -172 511 -245 526 -213 b 494 -93 526 -138 516 -112 b 407 -65 472 -75 443 -65 b 380 -67 400 -65 391 -66 b 351 -75 369 -69 360 -71 l 349 -72 l 388 -19 b 504 -5 427 -19 466 -14 b 606 38 542 4 576 18 b 678 114 636 57 660 82 b 706 231 697 145 706 184 b 686 315 706 264 699 292 b 635 372 673 337 656 356 b 562 408 613 387 589 399 b 478 432 534 418 506 425 b 396 450 450 438 423 444 b 324 469 369 456 345 462 b 274 496 303 476 287 485 b 254 539 261 507 254 521 b 265 574 254 554 258 566 b 292 594 273 583 282 590 b 328 603 303 599 315 602 b 364 606 341 605 353 606 b 456 585 399 606 430 599 b 499 508 481 572 496 546 l 686 508 b 652 619 682 553 671 590 b 581 689 633 648 609 671 b 483 726 552 706 519 719 b 369 738 446 734 408 737 b 256 727 331 738 293 734 b 156 691 219 720 185 708 b 84 620 126 674 102 650 b 57 507 66 590 57 552 b 76 426 57 475 63 448 b 128 373 89 405 106 387 b 201 338 149 359 173 347 b 285 315 228 329 256 322 b 449 271 355 300 410 286 b 508 204 489 256 508 234 b 496 160 508 187 504 172 b 465 133 488 149 477 140 b 423 117 452 126 438 121 b 379 113 408 114 393 113 b 323 119 360 113 341 115 b 275 141 305 124 289 131 b 241 178 261 151 250 163 b 228 233 232 194 228 212 l 40 233 b 66 124 41 191 50 154 b 128 49 82 94 103 69 b 217 3 154 29 184 14 b 322 -17 251 -7 286 -14 l 253 -114 l 282 -147 b 308 -139 291 -144 300 -141 b 335 -136 316 -137 325 -136 b 376 -148 351 -136 365 -140 b 393 -182 388 -156 393 -167 b 331 -229 393 -213 372 -229 b 273 -222 312 -229 293 -227 b 221 -204 253 -216 236 -211 z "},"Š":{"ha":901,"x_min":0,"x_max":0,"o":"m 542 1081 l 361 1081 l 207 1278 l 363 1278 l 451 1165 l 542 1278 l 694 1278 z m 244 329 b 263 244 244 296 250 268 b 310 188 275 221 291 203 b 381 156 330 174 354 163 b 464 146 407 149 435 146 b 526 151 483 146 504 147 b 589 169 549 154 569 160 b 638 208 608 179 625 191 b 657 269 650 224 657 244 b 631 335 657 296 648 318 b 564 376 614 351 592 365 b 469 406 536 388 505 397 b 363 433 434 414 399 423 b 254 467 325 443 289 454 b 160 519 219 481 188 498 b 92 599 132 541 109 567 b 67 715 75 631 67 670 b 99 848 67 766 78 810 b 185 942 121 885 150 917 b 304 997 220 967 260 985 b 438 1015 349 1009 393 1015 b 587 998 489 1015 539 1009 b 714 942 634 986 677 968 b 802 842 751 916 780 883 b 835 696 824 802 835 753 l 624 696 b 605 769 622 725 616 750 b 563 815 594 789 580 804 b 502 839 545 826 525 834 b 428 846 479 844 455 846 b 375 840 410 846 393 844 b 327 821 357 837 341 830 b 292 786 313 812 301 800 b 278 733 282 772 278 755 b 289 686 278 714 281 698 b 333 653 296 674 311 663 b 423 622 354 643 384 632 b 574 583 461 612 512 599 b 651 563 592 580 618 573 b 749 517 684 553 716 538 b 833 431 781 495 809 467 b 868 294 856 396 868 350 b 842 168 868 249 859 207 b 763 67 824 129 798 96 b 634 1 728 39 685 17 b 456 -22 583 -14 523 -22 b 297 -2 401 -22 348 -16 b 160 61 245 11 200 32 b 67 171 121 90 90 126 b 33 329 44 215 32 268 z "},"š":{"ha":746,"x_min":0,"x_max":0,"o":"m 464 807 l 283 807 l 129 1004 l 285 1004 l 374 892 l 464 1004 l 617 1004 z m 228 233 b 241 178 228 212 232 194 b 275 141 250 163 261 151 b 323 119 289 131 305 124 b 379 113 341 115 360 113 b 423 117 393 113 408 114 b 465 133 438 121 452 126 b 496 160 477 140 488 149 b 508 204 504 172 508 187 b 449 271 508 234 489 256 b 285 315 410 286 355 300 b 201 338 256 322 228 329 b 128 373 173 347 149 359 b 76 427 106 387 89 405 b 57 507 63 449 57 475 b 84 621 57 553 66 591 b 156 691 102 650 126 674 b 256 727 185 708 219 720 b 369 738 293 734 331 738 b 483 726 408 738 446 734 b 581 689 519 719 552 706 b 652 619 609 671 633 648 b 686 508 671 590 682 553 l 499 508 b 456 585 496 546 481 572 b 364 606 430 599 399 606 b 328 603 353 606 341 605 b 292 594 315 602 303 599 b 265 574 282 590 273 583 b 254 539 258 566 254 554 b 274 496 254 521 261 507 b 324 469 287 485 303 476 b 396 450 345 462 369 456 b 478 432 423 444 450 438 b 562 408 506 425 534 418 b 635 372 589 399 613 387 b 686 315 656 356 673 337 b 706 231 699 292 706 264 b 677 112 706 183 696 144 b 603 35 658 80 633 54 b 498 -6 572 15 537 2 b 378 -18 459 -14 419 -18 b 256 -6 336 -18 295 -14 b 149 36 216 3 180 17 b 73 113 118 56 93 81 b 40 233 53 145 42 185 z "},"Ţ":{"ha":849,"x_min":0,"x_max":0,"o":"m 315 808 l 315 0 l 533 0 l 533 808 l 831 808 l 831 992 l 18 992 l 18 808 z m 324 -69 l 324 -199 l 417 -199 b 390 -236 412 -216 403 -229 b 338 -250 377 -244 360 -248 l 338 -301 b 411 -297 363 -301 388 -300 b 471 -280 434 -294 454 -289 b 510 -241 488 -271 501 -258 b 525 -171 520 -224 525 -200 l 525 -69 z "},"ţ":{"ha":489,"x_min":0,"x_max":0,"o":"m 325 718 l 325 933 l 128 933 l 128 718 l 8 718 l 8 586 l 128 586 l 128 163 b 146 75 128 126 134 97 b 195 23 158 53 174 35 b 267 -2 216 10 240 2 b 354 -8 295 -6 324 -8 b 414 -7 374 -8 394 -8 b 469 -1 434 -6 453 -4 l 469 153 b 440 149 460 151 450 150 b 408 147 430 148 419 147 b 342 164 375 147 353 153 b 325 231 331 175 325 197 l 325 586 l 469 586 l 469 718 z m 174 -204 l 144 -271 b 181 -283 157 -275 170 -280 b 217 -293 193 -287 205 -290 b 260 -299 230 -296 244 -298 b 317 -301 275 -301 294 -301 b 376 -295 337 -301 357 -299 b 428 -273 396 -291 413 -284 b 465 -230 444 -262 456 -248 b 479 -162 475 -212 479 -189 b 468 -119 479 -146 475 -131 b 439 -88 461 -106 451 -96 b 398 -71 427 -80 413 -75 b 351 -65 383 -67 367 -65 b 304 -72 331 -65 315 -68 l 301 -72 l 356 3 l 288 3 l 206 -114 l 235 -147 b 290 -137 251 -141 270 -137 b 330 -147 306 -138 319 -141 b 346 -182 341 -153 346 -164 b 331 -218 346 -199 341 -211 b 290 -229 320 -225 307 -229 b 225 -222 266 -229 244 -227 b 174 -204 206 -216 188 -211 z "},"Ť":{"ha":849,"x_min":0,"x_max":0,"o":"m 315 808 l 315 0 l 533 0 l 533 808 l 831 808 l 831 992 l 18 992 l 18 808 z m 514 1082 l 668 1279 l 515 1279 l 426 1167 l 340 1279 l 181 1279 l 333 1082 z "},"ť":{"ha":489,"x_min":0,"x_max":0,"o":"m 535 794 l 647 992 l 442 992 l 399 794 z m 325 718 l 325 933 l 128 933 l 128 718 l 8 718 l 8 586 l 128 586 l 128 163 b 146 75 128 126 134 97 b 195 23 158 53 174 35 b 267 -2 216 10 240 2 b 354 -8 295 -6 324 -8 b 414 -7 374 -8 394 -8 b 469 -1 434 -6 453 -4 l 469 153 b 440 149 460 151 450 150 b 408 147 430 148 419 147 b 342 164 375 147 353 153 b 325 231 331 175 325 197 l 325 586 l 469 586 l 469 718 z "},"Ŧ":{"ha":849,"x_min":0,"x_max":0,"o":"m 111 642 l 111 508 l 315 508 l 315 0 l 533 0 l 533 508 l 738 508 l 738 642 l 533 642 l 533 808 l 831 808 l 831 992 l 18 992 l 18 808 l 315 808 l 315 642 z "},"ŧ":{"ha":489,"x_min":0,"x_max":0,"o":"m 325 718 l 325 933 l 128 933 l 128 718 l 8 718 l 8 586 l 128 586 l 128 474 l 19 474 l 19 368 l 128 368 l 128 163 b 146 75 128 126 134 97 b 195 23 158 53 174 35 b 267 -2 216 10 240 2 b 354 -8 295 -6 324 -8 b 414 -7 374 -8 394 -8 b 469 -1 434 -6 453 -4 l 469 153 b 440 149 460 151 450 150 b 408 147 430 148 419 147 b 342 164 375 147 353 153 b 325 231 331 175 325 197 l 325 368 l 453 368 l 453 474 l 325 474 l 325 586 l 469 586 l 469 718 z "},"Ũ":{"ha":1029,"x_min":0,"x_max":0,"o":"m 938 375 l 938 992 l 719 992 l 719 375 b 675 212 719 301 705 247 b 514 160 645 177 592 160 b 408 178 469 160 434 166 b 346 226 381 190 361 206 b 317 296 331 247 321 270 b 310 375 312 322 310 348 l 310 992 l 92 992 l 92 375 b 202 74 92 240 128 140 b 514 -24 276 9 380 -24 b 825 75 646 -24 750 9 b 938 375 900 141 938 241 z m 614 1107 b 678 1120 639 1107 660 1111 b 724 1155 697 1129 712 1141 b 752 1205 736 1169 745 1186 b 769 1265 759 1224 765 1244 l 681 1265 b 660 1228 676 1248 669 1235 b 621 1217 650 1220 638 1217 b 576 1224 606 1217 591 1219 b 528 1241 560 1229 544 1235 b 476 1258 511 1247 494 1253 b 422 1265 459 1263 441 1265 b 358 1250 398 1265 377 1260 b 308 1211 339 1240 322 1227 b 276 1157 294 1195 284 1177 b 260 1096 268 1137 263 1116 l 347 1096 b 369 1138 352 1113 359 1128 b 410 1154 378 1149 392 1154 b 456 1147 425 1154 440 1152 b 503 1131 471 1141 487 1136 b 555 1115 520 1125 537 1120 b 614 1107 573 1110 593 1107 z "},"ũ":{"ha":824,"x_min":0,"x_max":0,"o":"m 749 0 l 749 718 l 551 718 l 551 342 b 515 184 551 269 539 216 b 399 136 491 152 452 136 b 300 180 351 136 319 151 b 272 313 281 209 272 253 l 272 718 l 75 718 l 75 276 b 87 155 75 232 79 191 b 128 62 95 118 108 87 b 208 2 147 36 174 16 b 338 -19 241 -12 285 -19 b 460 9 379 -19 420 -10 b 557 100 500 28 532 58 l 561 100 l 561 0 z m 514 843 b 578 856 539 843 560 847 b 624 891 597 865 612 877 b 652 941 636 905 645 922 b 669 1001 659 960 665 980 l 581 1001 b 560 964 576 984 569 971 b 521 953 550 956 538 953 b 476 960 506 953 491 955 b 428 977 460 966 444 971 b 376 994 411 983 394 989 b 322 1001 359 999 341 1001 b 258 986 298 1001 277 996 b 208 947 239 976 222 963 b 176 893 194 931 184 913 b 160 832 168 873 163 852 l 247 832 b 269 874 252 850 259 864 b 310 890 278 885 292 890 b 356 883 325 890 340 888 b 403 867 371 878 387 872 b 455 851 420 861 437 856 b 514 843 473 846 493 843 z "},"Ū":{"ha":1029,"x_min":0,"x_max":0,"o":"m 938 375 l 938 992 l 719 992 l 719 375 b 675 212 719 301 705 247 b 514 160 645 177 592 160 b 408 178 469 160 434 166 b 346 226 381 190 361 206 b 317 296 331 247 321 270 b 310 375 312 322 310 348 l 310 992 l 92 992 l 92 375 b 202 74 92 240 128 140 b 514 -24 276 9 380 -24 b 825 75 646 -24 750 9 b 938 375 900 141 938 241 z m 269 1228 l 269 1124 l 760 1124 l 760 1228 z "},"ū":{"ha":824,"x_min":0,"x_max":0,"o":"m 749 0 l 749 718 l 551 718 l 551 342 b 515 184 551 269 539 216 b 399 136 491 152 452 136 b 300 180 351 136 319 151 b 272 313 281 209 272 253 l 272 718 l 75 718 l 75 276 b 87 155 75 232 79 191 b 128 62 95 118 108 87 b 208 2 147 36 174 16 b 338 -19 241 -12 285 -19 b 460 9 379 -19 420 -10 b 557 100 500 28 532 58 l 561 100 l 561 0 z m 171 964 l 171 860 l 661 860 l 661 964 z "},"Ŭ":{"ha":1029,"x_min":0,"x_max":0,"o":"m 938 375 l 938 992 l 719 992 l 719 375 b 675 212 719 301 705 247 b 514 160 645 177 592 160 b 408 178 469 160 434 166 b 346 226 381 190 361 206 b 317 296 331 247 321 270 b 310 375 312 322 310 348 l 310 992 l 92 992 l 92 375 b 202 74 92 240 128 140 b 514 -24 276 9 380 -24 b 825 75 646 -24 750 9 b 938 375 900 141 938 241 z m 374 1279 l 283 1279 b 348 1133 289 1215 310 1166 b 504 1082 385 1099 438 1082 b 673 1128 574 1082 630 1097 b 751 1279 716 1159 742 1210 l 664 1279 b 613 1208 656 1247 638 1223 b 511 1186 587 1194 553 1186 b 468 1191 497 1186 483 1188 b 426 1207 453 1194 439 1200 b 392 1235 412 1214 401 1224 b 374 1279 382 1247 376 1262 z "},"ŭ":{"ha":824,"x_min":0,"x_max":0,"o":"m 749 0 l 749 718 l 551 718 l 551 342 b 515 184 551 269 539 216 b 399 136 491 152 452 136 b 300 180 351 136 319 151 b 272 313 281 209 272 253 l 272 718 l 75 718 l 75 276 b 87 155 75 232 79 191 b 128 62 95 118 108 87 b 208 2 147 36 174 16 b 338 -19 241 -12 285 -19 b 460 9 379 -19 420 -10 b 557 100 500 28 532 58 l 561 100 l 561 0 z m 274 1015 l 183 1015 b 248 869 189 951 210 903 b 404 818 285 835 338 818 b 573 865 474 818 530 834 b 651 1015 616 896 642 946 l 564 1015 b 513 944 556 983 538 959 b 411 922 487 930 453 922 b 368 927 397 922 383 924 b 326 943 353 930 339 936 b 292 972 312 950 301 960 b 274 1015 282 983 276 998 z "},"Ů":{"ha":1029,"x_min":0,"x_max":0,"o":"m 938 375 l 938 992 l 719 992 l 719 375 b 675 212 719 301 705 247 b 514 160 645 177 592 160 b 408 178 469 160 434 166 b 346 226 381 190 361 206 b 317 296 331 247 321 270 b 310 375 312 322 310 348 l 310 992 l 92 992 l 92 375 b 202 74 92 240 128 140 b 514 -24 276 9 380 -24 b 825 75 646 -24 750 9 b 938 375 900 141 938 241 z m 676 1165 b 664 1228 676 1188 672 1208 b 630 1278 656 1247 644 1264 b 578 1311 616 1292 598 1303 b 514 1324 559 1319 537 1324 b 451 1311 492 1324 471 1319 b 399 1278 431 1303 413 1292 b 364 1228 384 1264 372 1247 b 351 1165 356 1208 351 1188 b 364 1103 351 1143 356 1122 b 398 1053 372 1083 384 1067 b 449 1019 412 1039 429 1028 b 514 1007 469 1011 491 1007 b 577 1019 536 1007 557 1011 b 629 1053 597 1028 614 1039 b 664 1103 644 1067 656 1083 b 676 1165 672 1122 676 1143 z m 429 1165 b 452 1228 429 1191 437 1212 b 514 1253 467 1245 488 1253 b 576 1228 540 1253 560 1244 b 599 1165 591 1211 599 1190 b 576 1102 599 1139 591 1118 b 514 1078 560 1086 540 1078 b 452 1103 488 1078 467 1086 b 429 1165 437 1119 429 1140 z "},"ů":{"ha":824,"x_min":0,"x_max":0,"o":"m 749 0 l 749 718 l 551 718 l 551 342 b 515 184 551 269 539 216 b 399 136 491 152 452 136 b 300 180 351 136 319 151 b 272 313 281 209 272 253 l 272 718 l 75 718 l 75 276 b 87 155 75 232 79 191 b 128 62 95 118 108 87 b 208 2 147 36 174 16 b 338 -19 241 -12 285 -19 b 460 9 379 -19 420 -10 b 557 100 500 28 532 58 l 561 100 l 561 0 z m 244 950 b 257 883 244 926 249 904 b 292 831 265 863 277 845 b 346 796 308 816 325 804 b 414 783 366 788 389 783 b 481 796 438 783 460 788 b 535 831 502 804 520 816 b 572 883 551 845 563 863 b 585 950 580 904 585 926 b 572 1017 585 974 581 996 b 537 1069 564 1037 552 1055 b 483 1104 522 1084 504 1096 b 415 1117 463 1113 440 1117 b 348 1104 391 1117 369 1113 b 294 1069 327 1096 309 1084 b 258 1017 278 1055 266 1037 b 244 950 249 996 244 974 z m 503 950 b 478 883 503 923 495 901 b 414 857 462 866 441 857 b 350 883 387 857 366 866 b 326 950 334 901 326 923 b 351 1017 326 977 334 999 b 415 1043 367 1034 388 1043 b 479 1017 442 1043 463 1034 b 503 950 495 999 503 977 z "},"Ű":{"ha":1029,"x_min":0,"x_max":0,"o":"m 938 375 l 938 992 l 719 992 l 719 375 b 675 212 719 301 705 247 b 514 160 645 177 592 160 b 408 178 469 160 434 166 b 346 226 381 190 361 206 b 317 296 331 247 321 270 b 310 375 312 322 310 348 l 310 992 l 92 992 l 92 375 b 202 74 92 240 128 140 b 514 -24 276 9 380 -24 b 825 75 646 -24 750 9 b 938 375 900 141 938 241 z m 710 1082 l 917 1279 l 699 1279 l 572 1082 z m 422 1082 l 629 1279 l 411 1279 l 285 1082 z "},"ű":{"ha":824,"x_min":0,"x_max":0,"o":"m 749 0 l 749 718 l 551 718 l 551 342 b 515 184 551 269 539 216 b 399 136 491 152 452 136 b 300 180 351 136 319 151 b 272 313 281 209 272 253 l 272 718 l 75 718 l 75 276 b 87 155 75 232 79 191 b 128 62 95 118 108 87 b 208 2 147 36 174 16 b 338 -19 241 -12 285 -19 b 460 9 379 -19 420 -10 b 557 100 500 28 532 58 l 561 100 l 561 0 z m 610 818 l 817 1015 l 599 1015 l 472 818 z m 322 818 l 529 1015 l 311 1015 l 185 818 z "},"Ų":{"ha":1029,"x_min":0,"x_max":0,"o":"m 676 -210 l 614 -174 b 579 -206 603 -187 591 -197 b 538 -218 567 -214 553 -218 b 501 -204 524 -218 512 -213 b 486 -165 491 -195 486 -182 b 489 -138 486 -156 487 -147 b 500 -108 491 -129 494 -119 b 524 -71 506 -97 514 -85 b 567 -22 535 -57 549 -41 b 840 89 683 -14 774 23 b 938 375 905 155 938 250 l 938 992 l 719 992 l 719 375 b 675 212 719 301 705 247 b 514 160 645 177 592 160 b 408 178 469 160 434 166 b 346 226 381 190 361 206 b 317 296 331 247 321 270 b 310 375 312 322 310 348 l 310 992 l 92 992 l 92 375 b 190 86 92 247 124 151 b 467 -22 255 21 347 -15 b 381 -102 429 -49 400 -76 b 353 -186 362 -128 353 -156 b 394 -270 353 -221 366 -249 b 504 -301 421 -291 458 -301 b 601 -281 541 -301 574 -295 b 676 -210 629 -268 654 -244 z "},"ų":{"ha":824,"x_min":0,"x_max":0,"o":"m 749 0 l 749 718 l 551 718 l 551 342 b 515 184 551 269 539 216 b 399 136 491 152 452 136 b 300 180 351 136 319 151 b 272 313 281 209 272 253 l 272 718 l 75 718 l 75 276 b 87 155 75 232 79 191 b 128 62 95 118 108 87 b 208 2 147 36 174 16 b 338 -19 241 -12 285 -19 b 460 9 379 -19 420 -10 b 557 100 500 28 532 58 l 561 100 l 561 0 b 467 -92 519 -32 488 -63 b 435 -185 445 -120 435 -151 b 476 -269 435 -220 448 -248 b 586 -301 503 -291 540 -301 b 683 -281 623 -301 656 -295 b 758 -210 711 -268 736 -244 l 696 -174 b 661 -206 685 -187 673 -197 b 619 -218 649 -214 635 -218 b 582 -204 605 -218 592 -213 b 567 -164 572 -195 567 -181 b 569 -133 567 -155 568 -144 b 582 -97 571 -122 575 -110 b 610 -54 588 -84 598 -70 b 658 0 622 -38 638 -20 z "},"Ŵ":{"ha":1311,"x_min":0,"x_max":0,"o":"m 1040 0 l 1307 992 l 1093 992 l 931 308 l 928 308 l 758 992 l 554 992 l 382 317 l 379 317 l 222 992 l 4 992 l 267 0 l 488 0 l 653 675 l 656 675 l 824 0 z m 569 1279 l 415 1082 l 568 1082 l 657 1194 l 743 1082 l 903 1082 l 750 1279 z "},"ŵ":{"ha":1131,"x_min":0,"x_max":0,"o":"m 896 0 l 1122 718 l 919 718 l 788 232 l 785 232 l 663 718 l 471 718 l 351 231 l 349 231 l 217 718 l 8 718 l 236 0 l 440 0 l 563 482 l 565 482 l 693 0 z m 479 1015 l 325 818 l 478 818 l 567 931 l 653 818 l 813 818 l 660 1015 z "},"Ŷ":{"ha":926,"x_min":0,"x_max":0,"o":"m 353 386 l 353 0 l 571 0 l 571 381 l 939 992 l 696 992 l 465 600 l 233 992 l -12 992 z m 379 1279 l 225 1082 l 378 1082 l 467 1194 l 553 1082 l 713 1082 l 560 1279 z "},"ŷ":{"ha":721,"x_min":0,"x_max":0,"o":"m 429 -90 l 729 718 l 525 718 l 368 226 l 365 226 l 203 718 l -8 718 l 244 44 b 253 0 250 31 253 16 b 229 -65 253 -27 245 -49 b 167 -90 213 -82 193 -90 b 111 -88 147 -90 129 -90 b 61 -83 94 -87 77 -85 l 61 -246 b 122 -251 81 -248 102 -249 b 182 -253 141 -252 162 -253 b 340 -215 250 -253 302 -240 b 429 -90 378 -190 408 -149 z m 281 1015 l 126 818 l 279 818 l 368 931 l 454 818 l 614 818 l 461 1015 z "},"Ÿ":{"ha":926,"x_min":0,"x_max":0,"o":"m 226 1265 l 414 1265 l 414 1103 l 226 1103 z m 513 1265 l 700 1265 l 700 1103 l 513 1103 z m 353 386 l -11 992 l 233 992 l 465 600 l 696 992 l 939 992 l 571 381 l 571 0 l 353 0 z "},"Ź":{"ha":900,"x_min":0,"x_max":0,"o":"m 564 808 l 32 172 l 32 0 l 868 0 l 868 183 l 322 183 l 854 819 l 854 992 l 74 992 l 74 808 z m 343 1081 l 481 1081 l 694 1278 l 476 1278 z "},"ź":{"ha":721,"x_min":0,"x_max":0,"o":"m 404 569 l 31 149 l 31 0 l 690 0 l 690 149 l 290 149 l 664 569 l 664 718 l 58 718 l 58 569 z m 254 807 l 392 807 l 606 1004 l 388 1004 z "},"Ż":{"ha":900,"x_min":0,"x_max":0,"o":"m 564 808 l 32 172 l 32 0 l 868 0 l 868 183 l 322 183 l 854 819 l 854 992 l 74 992 l 74 808 z m 543 1265 l 356 1265 l 356 1103 l 543 1103 z "},"ż":{"ha":721,"x_min":0,"x_max":0,"o":"m 404 569 l 31 149 l 31 0 l 690 0 l 690 149 l 290 149 l 664 569 l 664 718 l 58 718 l 58 569 z m 454 992 l 267 992 l 267 829 l 454 829 z "},"Ž":{"ha":900,"x_min":0,"x_max":0,"o":"m 542 1081 l 361 1081 l 207 1278 l 363 1278 l 451 1165 l 542 1278 l 694 1278 z m 32 172 l 564 808 l 74 808 l 74 992 l 854 992 l 854 819 l 322 183 l 868 183 l 868 0 l 32 0 z "},"ž":{"ha":721,"x_min":0,"x_max":0,"o":"m 451 807 l 271 807 l 117 1004 l 272 1004 l 361 892 l 451 1004 l 604 1004 z m 31 149 l 404 569 l 58 569 l 58 718 l 664 718 l 664 569 l 290 149 l 690 149 l 690 0 l 31 0 z "},"ſ":{"ha":463,"x_min":0,"x_max":0,"o":"m 315 596 l 315 794 b 330 835 315 809 320 823 b 383 851 340 847 357 852 b 436 849 408 850 426 850 l 436 1006 b 396 1009 419 1007 406 1009 b 363 1010 386 1009 375 1010 b 160 943 256 1010 188 988 b 119 781 133 913 119 859 l 119 732 l 14 732 l 14 596 l 122 596 l 122 0 l 315 0 z "},"ƀ":{"ha":849,"x_min":0,"x_max":0,"o":"m 325 646 l 325 817 l 525 817 l 525 921 l 325 921 l 325 999 l 129 999 l 129 921 l 43 921 l 43 817 l 129 817 l 129 0 l 317 0 l 317 103 b 411 6 344 58 376 26 b 543 -24 446 -14 490 -24 b 760 81 629 -24 702 11 b 849 350 819 151 849 241 b 762 649 849 477 820 576 b 529 757 704 721 626 757 b 410 727 485 757 445 747 b 325 646 375 707 346 680 z m 319 358 b 388 553 319 449 342 514 b 486 588 416 576 449 587 b 610 524 543 588 584 566 b 650 365 637 481 650 428 b 610 201 650 297 637 242 b 488 140 583 161 542 140 b 363 201 433 140 391 160 b 319 358 334 241 319 294 z "},"Ƃ":{"ha":926,"x_min":0,"x_max":0,"o":"m 531 640 l 318 640 l 318 825 l 839 825 l 839 1003 l 106 1003 l 111 997 l 111 0 l 546 0 b 785 77 646 0 726 26 b 875 317 845 128 875 208 b 785 567 875 434 845 518 b 531 640 726 616 641 640 z m 513 174 l 318 174 l 318 468 l 513 468 b 627 432 562 468 600 456 b 668 318 654 408 668 370 b 627 207 668 266 654 229 b 513 174 600 185 562 174 z "},"ƃ":{"ha":849,"x_min":0,"x_max":0,"o":"m 78 1003 l 83 997 l 83 0 l 272 0 l 272 93 b 344 17 298 57 322 31 b 492 -19 381 -7 431 -19 b 719 94 589 -19 665 18 b 800 379 773 169 800 264 b 718 651 800 490 773 581 b 490 756 663 721 588 756 b 357 722 436 756 391 744 b 276 643 327 704 300 677 l 276 831 l 282 825 l 689 825 l 689 1003 z m 597 358 b 556 200 597 293 584 240 b 440 140 529 160 490 140 b 312 202 383 140 340 161 b 269 360 284 243 269 296 b 290 492 269 413 276 457 b 435 586 316 555 364 586 b 578 489 504 586 552 554 b 597 358 591 455 597 411 z "},"Ɔ":{"ha":1003,"x_min":0,"x_max":0,"o":"m 810 94 b 951 499 904 189 951 324 b 828 879 951 660 910 787 b 489 1018 745 972 632 1018 b 202 915 372 1018 277 984 b 64 650 128 847 81 758 l 271 650 b 324 765 285 701 302 739 b 492 838 362 813 418 838 b 668 753 563 838 622 809 b 738 501 714 697 737 613 b 672 242 738 389 716 303 b 492 150 628 181 568 150 b 322 215 417 150 360 172 b 271 324 301 239 284 275 l 61 324 b 131 138 65 262 88 200 b 500 -29 208 26 331 -29 b 810 94 626 -29 729 12 z "},"Ɖ":{"ha":1003,"x_min":0,"x_max":0,"o":"m 453 174 l 308 174 l 308 446 l 519 446 l 519 619 l 308 619 l 308 826 l 463 826 b 638 786 541 826 600 813 b 739 510 705 739 739 647 b 725 383 739 473 734 430 b 675 258 716 335 699 294 b 575 185 648 220 615 196 b 453 174 550 177 509 174 z m 885 211 b 951 524 929 299 951 403 b 930 701 951 588 944 648 b 863 846 916 755 893 803 b 721 963 823 900 775 940 b 524 999 666 987 600 999 l 106 999 l 106 619 l 13 619 l 13 446 l 106 446 l 106 0 l 522 0 b 885 211 692 0 813 70 z "},"Ƌ":{"ha":926,"x_min":0,"x_max":0,"o":"m 450 640 b 195 567 340 640 255 616 b 106 317 135 518 106 434 b 195 77 106 208 135 128 b 435 0 255 26 335 0 l 869 0 l 869 997 l 875 1003 l 143 1003 l 143 825 l 663 825 l 663 640 z m 468 174 b 353 207 419 174 381 185 b 313 318 326 229 313 266 b 353 432 313 370 326 408 b 468 468 381 456 419 468 l 663 468 l 663 174 z "},"ƌ":{"ha":849,"x_min":0,"x_max":0,"o":"m 794 997 l 800 1003 l 189 1003 l 189 825 l 596 825 l 603 831 l 603 643 b 521 722 578 677 550 704 b 389 756 487 744 443 756 b 160 651 292 756 216 721 b 78 379 105 581 78 490 b 159 94 78 264 105 169 b 386 -19 213 18 289 -19 b 533 17 447 -19 496 -7 b 606 93 556 31 580 57 l 606 0 l 794 0 z m 281 358 b 301 489 281 411 288 455 b 443 586 327 554 375 586 b 588 492 513 586 562 555 b 608 360 601 457 608 413 b 566 202 608 296 594 243 b 438 140 538 161 495 140 b 322 200 388 140 350 160 b 281 358 294 240 281 293 z "},"ƍ":{"ha":801,"x_min":0,"x_max":0,"o":"m 454 268 b 665 394 542 287 612 328 b 743 626 717 459 743 537 b 648 892 743 737 711 825 b 388 993 584 959 498 993 b 143 896 288 993 206 961 b 49 643 80 831 49 747 b 130 405 49 561 76 481 b 306 214 184 328 243 265 b 415 135 369 163 405 137 l 110 135 l 110 -21 l 694 -21 l 694 118 z m 388 407 b 276 474 341 407 304 429 b 235 633 249 519 235 572 b 274 785 235 693 248 743 b 388 849 301 828 338 849 b 508 786 440 849 481 828 b 550 635 536 744 550 694 b 506 475 550 574 535 520 b 388 407 477 430 438 407 z "},"Ǝ":{"ha":926,"x_min":0,"x_max":0,"o":"m 136 1000 l 136 822 l 665 822 l 665 610 l 179 610 l 179 436 l 665 436 l 665 179 l 111 179 l 111 0 l 868 0 l 868 1000 z "},"Ə":{"ha":1039,"x_min":0,"x_max":0,"o":"m 522 -22 b 710 15 591 -22 653 -10 b 857 121 767 40 816 75 b 952 285 898 166 929 221 b 986 497 975 349 986 419 b 953 700 986 569 975 637 b 857 865 931 763 899 818 b 704 975 815 911 764 948 b 500 1015 644 1002 576 1015 b 340 990 443 1015 389 1007 b 209 920 290 974 247 950 b 117 814 172 890 141 855 b 71 681 93 773 77 729 l 278 681 b 359 795 291 731 318 769 b 504 835 400 822 449 835 b 681 760 575 835 634 810 b 768 556 729 711 758 643 l 56 556 b 53 524 55 549 54 538 b 53 492 53 509 53 498 b 81 290 53 419 62 352 b 168 126 100 227 129 173 b 315 17 207 80 256 44 b 522 -22 373 -9 443 -22 z m 521 158 b 425 176 485 158 453 164 b 353 224 397 187 373 203 b 306 296 334 244 318 268 b 281 386 294 324 285 354 l 761 386 b 675 215 745 310 717 253 b 521 158 633 177 582 158 z "},"Ɛ":{"ha":789,"x_min":0,"x_max":0,"o":"m 36 321 b 136 58 36 208 69 120 b 404 -33 200 -3 289 -33 b 643 63 503 -33 583 -1 b 733 306 703 125 733 206 l 558 306 b 388 124 558 184 501 124 b 260 182 333 124 290 143 b 219 319 233 217 219 263 b 272 428 219 363 237 399 b 361 464 302 452 331 464 l 467 464 l 467 610 l 372 610 b 289 644 344 610 316 621 b 240 753 256 672 240 708 b 276 852 240 794 252 827 b 375 890 300 878 333 890 b 493 842 427 890 466 874 b 526 749 515 816 526 785 l 693 749 b 690 814 692 770 691 792 b 661 899 687 845 677 874 b 381 1028 606 985 512 1028 b 158 967 287 1028 213 1007 b 67 763 97 920 67 852 b 101 640 67 718 78 677 b 194 554 123 602 155 574 b 78 465 146 546 107 516 b 36 321 50 421 36 373 z "},"Ƒ":{"ha":849,"x_min":0,"x_max":0,"o":"m 13 -142 l 13 -296 b 56 -298 30 -297 45 -297 b 82 -299 68 -298 76 -299 b 267 -245 175 -299 237 -281 b 311 -79 296 -209 311 -154 l 311 0 l 314 0 l 314 419 l 753 419 l 753 593 l 314 593 l 314 822 l 814 822 l 814 999 l 106 999 l 106 -76 b 91 -130 106 -102 101 -120 b 49 -144 81 -140 67 -144 b 36 -144 45 -144 41 -144 b 13 -142 31 -143 24 -143 z "},"ƒ":{"ha":772,"x_min":0,"x_max":0,"o":"m 19 -82 b 75 -86 38 -85 56 -86 b 147 -62 110 -87 134 -79 b 175 11 160 -45 169 -20 l 263 468 l 135 468 l 160 600 l 286 600 l 319 776 b 353 888 328 820 339 857 b 407 962 367 918 385 943 b 489 1003 429 981 456 994 b 606 1015 521 1011 560 1015 b 710 1006 645 1015 680 1012 l 685 857 b 656 865 675 862 665 864 b 629 867 647 866 638 867 b 553 846 593 867 568 860 b 524 781 539 832 529 810 l 489 600 l 625 600 l 603 468 l 464 468 l 386 38 b 356 -83 378 -9 368 -49 b 306 -167 344 -116 327 -145 b 224 -218 284 -190 257 -207 b 96 -235 190 -229 148 -235 b 46 -234 78 -235 62 -234 b -6 -231 30 -234 13 -232 z "},"Ɩ":{"ha":386,"x_min":0,"x_max":0,"o":"m 347 -31 l 347 124 b 324 122 336 123 328 122 b 311 121 319 121 315 121 b 269 135 293 121 278 125 b 254 189 259 144 254 162 l 254 1001 l 60 1001 l 60 186 b 104 20 60 111 75 56 b 278 -33 134 -16 192 -33 b 303 -33 283 -33 292 -33 b 347 -31 315 -32 330 -31 z "},"Ɨ":{"ha":542,"x_min":0,"x_max":0,"o":"m 29 681 l 29 578 l 169 578 l 169 0 l 363 0 l 363 578 l 511 578 l 511 681 l 363 681 l 363 1000 l 169 1000 l 169 681 z "}}}
